Dhurjati.ufo
<glyph name="exclam" format="1">
  <advance width="350"/>
  <unicode hex="0021"/>
  <outline>
    <contour>
      <point x="199" y="173" type="curve" name="hr00" smooth="yes"/>
      <point x="214" y="173"/>
      <point x="226" y="180"/>
      <point x="236" y="195" type="curve" smooth="yes"/>
      <point x="246" y="208"/>
      <point x="251" y="225"/>
      <point x="251" y="245" type="curve" smooth="yes"/>
      <point x="251" y="593" type="line" smooth="yes"/>
      <point x="251" y="598"/>
      <point x="253" y="602"/>
      <point x="256" y="606" type="curve" smooth="yes"/>
      <point x="258" y="609"/>
      <point x="261" y="611"/>
      <point x="264" y="611" type="curve"/>
      <point x="264" y="608"/>
      <point x="266" y="605"/>
      <point x="270" y="604" type="curve"/>
      <point x="274" y="601"/>
      <point x="279" y="599"/>
      <point x="284" y="599" type="curve" smooth="yes"/>
      <point x="287" y="599"/>
      <point x="290" y="601"/>
      <point x="292" y="605" type="curve"/>
      <point x="295" y="608"/>
      <point x="296" y="613"/>
      <point x="296" y="618" type="curve" smooth="yes"/>
      <point x="296" y="623"/>
      <point x="293" y="628"/>
      <point x="288" y="633" type="curve" smooth="yes"/>
      <point x="284" y="636"/>
      <point x="278" y="638"/>
      <point x="271" y="638" type="curve" smooth="yes"/>
      <point x="129" y="638" type="line" smooth="yes"/>
      <point x="122" y="638"/>
      <point x="116" y="636"/>
      <point x="112" y="633" type="curve" smooth="yes"/>
      <point x="107" y="628"/>
      <point x="104" y="623"/>
      <point x="104" y="618" type="curve" smooth="yes"/>
      <point x="104" y="613"/>
      <point x="106" y="608"/>
      <point x="109" y="605" type="curve" smooth="yes"/>
      <point x="113" y="601"/>
      <point x="117" y="599"/>
      <point x="122" y="599" type="curve" smooth="yes"/>
      <point x="126" y="599"/>
      <point x="129" y="601"/>
      <point x="132" y="604" type="curve"/>
      <point x="135" y="605"/>
      <point x="137" y="608"/>
      <point x="137" y="611" type="curve"/>
      <point x="140" y="611"/>
      <point x="143" y="609"/>
      <point x="145" y="606" type="curve" smooth="yes"/>
      <point x="148" y="602"/>
      <point x="150" y="598"/>
      <point x="150" y="593" type="curve" smooth="yes"/>
      <point x="150" y="245" type="line" smooth="yes"/>
      <point x="150" y="225"/>
      <point x="155" y="208"/>
      <point x="164" y="195" type="curve" smooth="yes"/>
      <point x="173" y="180"/>
      <point x="185" y="173"/>
    </contour>
    <contour>
      <point x="271" y="-6" type="line" smooth="yes"/>
      <point x="278" y="-6"/>
      <point x="284" y="-4"/>
      <point x="288" y="-1" type="curve" smooth="yes"/>
      <point x="293" y="3"/>
      <point x="296" y="8"/>
      <point x="296" y="13" type="curve" smooth="yes"/>
      <point x="296" y="19"/>
      <point x="295" y="24"/>
      <point x="292" y="27" type="curve"/>
      <point x="290" y="31"/>
      <point x="287" y="33"/>
      <point x="284" y="33" type="curve" smooth="yes"/>
      <point x="279" y="33"/>
      <point x="274" y="31"/>
      <point x="270" y="28" type="curve" smooth="yes"/>
      <point x="266" y="26"/>
      <point x="264" y="23"/>
      <point x="264" y="18" type="curve"/>
      <point x="261" y="18"/>
      <point x="258" y="20"/>
      <point x="256" y="25" type="curve"/>
      <point x="253" y="29"/>
      <point x="251" y="34"/>
      <point x="251" y="39" type="curve" smooth="yes"/>
      <point x="251" y="78" type="line" smooth="yes"/>
      <point x="251" y="83"/>
      <point x="253" y="88"/>
      <point x="256" y="92" type="curve" smooth="yes"/>
      <point x="258" y="96"/>
      <point x="261" y="98"/>
      <point x="264" y="98" type="curve"/>
      <point x="264" y="94"/>
      <point x="266" y="91"/>
      <point x="270" y="88" type="curve" smooth="yes"/>
      <point x="274" y="86"/>
      <point x="279" y="85"/>
      <point x="284" y="85" type="curve" smooth="yes"/>
      <point x="287" y="85"/>
      <point x="290" y="86"/>
      <point x="292" y="89" type="curve" smooth="yes"/>
      <point x="295" y="93"/>
      <point x="296" y="98"/>
      <point x="296" y="104" type="curve" smooth="yes"/>
      <point x="296" y="109"/>
      <point x="293" y="114"/>
      <point x="288" y="117" type="curve" smooth="yes"/>
      <point x="284" y="120"/>
      <point x="278" y="121"/>
      <point x="271" y="121" type="curve" smooth="yes"/>
      <point x="129" y="121" type="line" smooth="yes"/>
      <point x="122" y="121"/>
      <point x="116" y="120"/>
      <point x="112" y="117" type="curve" smooth="yes"/>
      <point x="107" y="114"/>
      <point x="104" y="109"/>
      <point x="104" y="104" type="curve" smooth="yes"/>
      <point x="104" y="98"/>
      <point x="106" y="93"/>
      <point x="109" y="89" type="curve"/>
      <point x="113" y="86"/>
      <point x="117" y="85"/>
      <point x="122" y="85" type="curve" smooth="yes"/>
      <point x="126" y="85"/>
      <point x="129" y="86"/>
      <point x="132" y="88" type="curve" smooth="yes"/>
      <point x="135" y="91"/>
      <point x="137" y="94"/>
      <point x="137" y="98" type="curve"/>
      <point x="140" y="98"/>
      <point x="143" y="96"/>
      <point x="145" y="92" type="curve" smooth="yes"/>
      <point x="148" y="88"/>
      <point x="150" y="83"/>
      <point x="150" y="78" type="curve" smooth="yes"/>
      <point x="150" y="39" type="line" smooth="yes"/>
      <point x="150" y="34"/>
      <point x="148" y="29"/>
      <point x="145" y="25" type="curve"/>
      <point x="143" y="20"/>
      <point x="140" y="18"/>
      <point x="137" y="18" type="curve"/>
      <point x="137" y="23"/>
      <point x="135" y="26"/>
      <point x="132" y="28" type="curve" smooth="yes"/>
      <point x="129" y="31"/>
      <point x="126" y="33"/>
      <point x="122" y="33" type="curve" smooth="yes"/>
      <point x="117" y="33"/>
      <point x="113" y="31"/>
      <point x="109" y="27" type="curve" smooth="yes"/>
      <point x="106" y="24"/>
      <point x="104" y="19"/>
      <point x="104" y="13" type="curve" smooth="yes"/>
      <point x="104" y="8"/>
      <point x="107" y="3"/>
      <point x="112" y="-1" type="curve" smooth="yes"/>
      <point x="116" y="-4"/>
      <point x="122" y="-6"/>
      <point x="129" y="-6" type="curve" smooth="yes"/>
    </contour>
  </outline>
</glyph>
<glyph name="quotedbl" format="1">
  <advance width="434"/>
  <unicode hex="0022"/>
  <outline>
    <contour>
      <point x="356" y="548" type="line" name="hr00"/>
      <point x="377" y="646" type="line"/>
      <point x="377" y="690" type="line"/>
      <point x="245" y="690" type="line"/>
      <point x="245" y="646" type="line"/>
      <point x="270" y="548" type="line"/>
    </contour>
    <contour>
      <point x="154" y="548" type="line"/>
      <point x="175" y="646" type="line"/>
      <point x="175" y="690" type="line"/>
      <point x="43" y="690" type="line"/>
      <point x="43" y="646" type="line"/>
      <point x="68" y="548" type="line"/>
    </contour>
  </outline>
</glyph>
<glyph name="numbersign" format="1">
  <advance width="606"/>
  <unicode hex="0023"/>
  <outline>
    <contour>
      <point x="581" y="424" type="line"/>
      <point x="581" y="342" type="line"/>
      <point x="491" y="342" type="line"/>
      <point x="447" y="207" type="line"/>
      <point x="558" y="207" type="line"/>
      <point x="558" y="125" type="line"/>
      <point x="421" y="125" type="line"/>
      <point x="383" y="0" type="line"/>
      <point x="301" y="0" type="line"/>
      <point x="339" y="125" type="line"/>
      <point x="176" y="125" type="line"/>
      <point x="138" y="0" type="line"/>
      <point x="55" y="0" type="line"/>
      <point x="93" y="125" type="line"/>
      <point x="24" y="125" type="line"/>
      <point x="24" y="207" type="line"/>
      <point x="119" y="207" type="line"/>
      <point x="163" y="342" type="line"/>
      <point x="48" y="342" type="line"/>
      <point x="48" y="424" type="line"/>
      <point x="189" y="424" type="line"/>
      <point x="230" y="545" type="line"/>
      <point x="312" y="545" type="line"/>
      <point x="271" y="424" type="line"/>
      <point x="435" y="424" type="line"/>
      <point x="476" y="545" type="line"/>
      <point x="558" y="545" type="line"/>
      <point x="517" y="424" type="line"/>
    </contour>
    <contour>
      <point x="201" y="207" type="line"/>
      <point x="365" y="207" type="line"/>
      <point x="409" y="342" type="line"/>
      <point x="245" y="342" type="line"/>
    </contour>
  </outline>
</glyph>
<glyph name="dollar" format="1">
  <advance width="599"/>
  <unicode hex="0024"/>
  <outline>
    <contour>
      <point x="573" y="416" type="line"/>
      <point x="491" y="416" type="line"/>
      <point x="491" y="448" type="line" smooth="yes"/>
      <point x="491" y="458"/>
      <point x="483" y="465"/>
      <point x="474" y="465" type="curve" smooth="yes"/>
      <point x="340" y="465" type="line"/>
      <point x="340" y="315" type="line"/>
      <point x="474" y="315" type="line" smooth="yes"/>
      <point x="529" y="315"/>
      <point x="573" y="271"/>
      <point x="573" y="216" type="curve" smooth="yes"/>
      <point x="573" y="99" type="line" smooth="yes"/>
      <point x="573" y="44"/>
      <point x="529" y="0"/>
      <point x="474" y="0" type="curve" smooth="yes"/>
      <point x="340" y="0" type="line"/>
      <point x="340" y="-82" type="line"/>
      <point x="258" y="-82" type="line"/>
      <point x="258" y="0" type="line"/>
      <point x="125" y="0" type="line" smooth="yes"/>
      <point x="70" y="0"/>
      <point x="26" y="44"/>
      <point x="26" y="99" type="curve" smooth="yes"/>
      <point x="26" y="131" type="line"/>
      <point x="108" y="131" type="line"/>
      <point x="108" y="99" type="line" smooth="yes"/>
      <point x="108" y="90"/>
      <point x="116" y="82"/>
      <point x="125" y="82" type="curve" smooth="yes"/>
      <point x="258" y="82" type="line"/>
      <point x="258" y="233" type="line"/>
      <point x="125" y="233" type="line" smooth="yes"/>
      <point x="70" y="233"/>
      <point x="26" y="277"/>
      <point x="26" y="331" type="curve" smooth="yes"/>
      <point x="26" y="448" type="line" smooth="yes"/>
      <point x="26" y="503"/>
      <point x="70" y="547"/>
      <point x="125" y="547" type="curve" smooth="yes"/>
      <point x="258" y="547" type="line"/>
      <point x="258" y="629" type="line"/>
      <point x="340" y="629" type="line"/>
      <point x="340" y="547" type="line"/>
      <point x="474" y="547" type="line" smooth="yes"/>
      <point x="529" y="547"/>
      <point x="573" y="503"/>
      <point x="573" y="448" type="curve" smooth="yes"/>
    </contour>
    <contour>
      <point x="340" y="233" type="line"/>
      <point x="340" y="82" type="line"/>
      <point x="474" y="82" type="line" smooth="yes"/>
      <point x="483" y="82"/>
      <point x="491" y="90"/>
      <point x="491" y="99" type="curve" smooth="yes"/>
      <point x="491" y="216" type="line" smooth="yes"/>
      <point x="491" y="225"/>
      <point x="483" y="233"/>
      <point x="474" y="233" type="curve" smooth="yes"/>
    </contour>
    <contour>
      <point x="198" y="315" type="line"/>
      <point x="258" y="315" type="line"/>
      <point x="258" y="465" type="line"/>
      <point x="125" y="465" type="line" smooth="yes"/>
      <point x="116" y="465"/>
      <point x="108" y="458"/>
      <point x="108" y="448" type="curve" smooth="yes"/>
      <point x="108" y="331" type="line" smooth="yes"/>
      <point x="108" y="322"/>
      <point x="116" y="315"/>
      <point x="125" y="315" type="curve" smooth="yes"/>
    </contour>
  </outline>
</glyph>
<glyph name="percent" format="1">
  <advance width="826"/>
  <unicode hex="0025"/>
  <outline>
    <contour>
      <point x="610" y="46" type="line" name="hr00" smooth="yes"/>
      <point x="601" y="46"/>
      <point x="594" y="49"/>
      <point x="589" y="54" type="curve" smooth="yes"/>
      <point x="582" y="61"/>
      <point x="579" y="69"/>
      <point x="579" y="78" type="curve" smooth="yes"/>
      <point x="579" y="173" type="line" smooth="yes"/>
      <point x="579" y="180"/>
      <point x="582" y="187"/>
      <point x="589" y="192" type="curve" smooth="yes"/>
      <point x="594" y="197"/>
      <point x="601" y="199"/>
      <point x="610" y="199" type="curve" smooth="yes"/>
      <point x="637" y="199" type="line" smooth="yes"/>
      <point x="646" y="199"/>
      <point x="653" y="197"/>
      <point x="660" y="192" type="curve" smooth="yes"/>
      <point x="666" y="187"/>
      <point x="669" y="180"/>
      <point x="669" y="173" type="curve" smooth="yes"/>
      <point x="669" y="78" type="line" smooth="yes"/>
      <point x="669" y="69"/>
      <point x="666" y="61"/>
      <point x="661" y="54" type="curve" smooth="yes"/>
      <point x="656" y="49"/>
      <point x="650" y="46"/>
      <point x="643" y="46" type="curve" smooth="yes"/>
    </contour>
    <contour>
      <point x="721" y="-6" type="line" smooth="yes"/>
      <point x="735" y="-6"/>
      <point x="747" y="-1"/>
      <point x="758" y="8" type="curve"/>
      <point x="768" y="19"/>
      <point x="773" y="32"/>
      <point x="773" y="46" type="curve" smooth="yes"/>
      <point x="773" y="199" type="line" smooth="yes"/>
      <point x="773" y="213"/>
      <point x="768" y="225"/>
      <point x="758" y="235" type="curve" smooth="yes"/>
      <point x="747" y="246"/>
      <point x="735" y="251"/>
      <point x="721" y="251" type="curve" smooth="yes"/>
      <point x="528" y="251" type="line" smooth="yes"/>
      <point x="513" y="251"/>
      <point x="500" y="246"/>
      <point x="490" y="235" type="curve" smooth="yes"/>
      <point x="481" y="225"/>
      <point x="476" y="213"/>
      <point x="476" y="199" type="curve" smooth="yes"/>
      <point x="476" y="46" type="line" smooth="yes"/>
      <point x="476" y="32"/>
      <point x="481" y="19"/>
      <point x="490" y="8" type="curve"/>
      <point x="500" y="-1"/>
      <point x="513" y="-6"/>
      <point x="528" y="-6" type="curve" smooth="yes"/>
    </contour>
    <contour>
      <point x="295" y="-6" type="line"/>
      <point x="688" y="638" type="line"/>
      <point x="592" y="638" type="line"/>
      <point x="198" y="-6" type="line"/>
    </contour>
    <contour>
      <point x="185" y="288" type="line" smooth="yes"/>
      <point x="176" y="288"/>
      <point x="169" y="292"/>
      <point x="163" y="299" type="curve" smooth="yes"/>
      <point x="156" y="306"/>
      <point x="153" y="314"/>
      <point x="153" y="323" type="curve" smooth="yes"/>
      <point x="153" y="419" type="line" smooth="yes"/>
      <point x="153" y="426"/>
      <point x="156" y="432"/>
      <point x="163" y="437" type="curve" smooth="yes"/>
      <point x="169" y="442"/>
      <point x="176" y="444"/>
      <point x="185" y="444" type="curve" smooth="yes"/>
      <point x="211" y="444" type="line" smooth="yes"/>
      <point x="220" y="444"/>
      <point x="227" y="442"/>
      <point x="233" y="437" type="curve" smooth="yes"/>
      <point x="240" y="432"/>
      <point x="243" y="426"/>
      <point x="243" y="419" type="curve" smooth="yes"/>
      <point x="243" y="323" type="line" smooth="yes"/>
      <point x="243" y="314"/>
      <point x="240" y="306"/>
      <point x="235" y="299" type="curve" smooth="yes"/>
      <point x="231" y="292"/>
      <point x="225" y="288"/>
      <point x="218" y="288" type="curve" smooth="yes"/>
    </contour>
    <contour>
      <point x="295" y="238" type="line" smooth="yes"/>
      <point x="310" y="238"/>
      <point x="322" y="243"/>
      <point x="332" y="254" type="curve" smooth="yes"/>
      <point x="341" y="263"/>
      <point x="346" y="275"/>
      <point x="346" y="288" type="curve" smooth="yes"/>
      <point x="346" y="444" type="line" smooth="yes"/>
      <point x="346" y="459"/>
      <point x="341" y="471"/>
      <point x="332" y="481" type="curve" smooth="yes"/>
      <point x="322" y="491"/>
      <point x="310" y="496"/>
      <point x="295" y="496" type="curve" smooth="yes"/>
      <point x="102" y="496" type="line" smooth="yes"/>
      <point x="87" y="496"/>
      <point x="75" y="491"/>
      <point x="65" y="481" type="curve" smooth="yes"/>
      <point x="56" y="471"/>
      <point x="51" y="459"/>
      <point x="51" y="444" type="curve" smooth="yes"/>
      <point x="51" y="288" type="line" smooth="yes"/>
      <point x="51" y="275"/>
      <point x="56" y="263"/>
      <point x="65" y="254" type="curve" smooth="yes"/>
      <point x="75" y="243"/>
      <point x="87" y="238"/>
      <point x="102" y="238" type="curve" smooth="yes"/>
    </contour>
  </outline>
</glyph>
<glyph name="ampersand" format="1">
  <advance width="481"/>
  <unicode hex="0026"/>
  <outline>
    <contour>
      <point x="42" y="85" type="line" name="hr00" smooth="yes"/>
      <point x="42" y="30"/>
      <point x="103" y="-4"/>
      <point x="184" y="-4" type="curve" smooth="yes"/>
      <point x="252" y="-4" type="line" smooth="yes"/>
      <point x="305" y="-4"/>
      <point x="349" y="12"/>
      <point x="374" y="35" type="curve"/>
      <point x="452" y="-9" type="line"/>
      <point x="452" y="87" type="line"/>
      <point x="216" y="222" type="line"/>
      <point x="216" y="127" type="line"/>
      <point x="286" y="87" type="line"/>
      <point x="279" y="74"/>
      <point x="260" y="62"/>
      <point x="233" y="62" type="curve" smooth="yes"/>
      <point x="208" y="62" type="line" smooth="yes"/>
      <point x="179" y="62"/>
      <point x="155" y="73"/>
      <point x="155" y="97" type="curve" smooth="yes"/>
      <point x="155" y="224" type="line" smooth="yes"/>
      <point x="155" y="237"/>
      <point x="166" y="248"/>
      <point x="195" y="248" type="curve" smooth="yes"/>
      <point x="274" y="248" type="line" smooth="yes"/>
      <point x="350" y="248"/>
      <point x="400" y="280"/>
      <point x="400" y="327" type="curve" smooth="yes"/>
      <point x="400" y="411" type="line" smooth="yes"/>
      <point x="400" y="456"/>
      <point x="350" y="490"/>
      <point x="275" y="490" type="curve" smooth="yes"/>
      <point x="175" y="490" type="line" smooth="yes"/>
      <point x="100" y="490"/>
      <point x="49" y="456"/>
      <point x="49" y="411" type="curve" smooth="yes"/>
      <point x="49" y="345" type="line"/>
      <point x="162" y="345" type="line"/>
      <point x="162" y="403" type="line" smooth="yes"/>
      <point x="162" y="415"/>
      <point x="178" y="424"/>
      <point x="199" y="424" type="curve" smooth="yes"/>
      <point x="250" y="424" type="line" smooth="yes"/>
      <point x="275" y="424"/>
      <point x="287" y="415"/>
      <point x="287" y="403" type="curve" smooth="yes"/>
      <point x="287" y="338" type="line" smooth="yes"/>
      <point x="287" y="323"/>
      <point x="276" y="313"/>
      <point x="247" y="313" type="curve" smooth="yes"/>
      <point x="168" y="313" type="line" smooth="yes"/>
      <point x="92" y="313"/>
      <point x="42" y="281"/>
      <point x="42" y="234" type="curve" smooth="yes"/>
    </contour>
  </outline>
</glyph>
<glyph name="quotesingle" format="1">
  <advance width="217"/>
  <unicode hex="0027"/>
  <outline>
    <contour>
      <point x="154" y="548" type="line" name="hr00"/>
      <point x="175" y="701" type="line"/>
      <point x="175" y="770" type="line"/>
      <point x="43" y="770" type="line"/>
      <point x="43" y="701" type="line"/>
      <point x="68" y="548" type="line"/>
    </contour>
  </outline>
</glyph>
<glyph name="parenleft" format="1">
  <advance width="375"/>
  <unicode hex="0028"/>
  <outline>
    <contour>
      <point x="322" y="-202" type="line" name="hr00"/>
      <point x="322" y="-125" type="line" smooth="yes"/>
      <point x="322" y="-118"/>
      <point x="319" y="-111"/>
      <point x="313" y="-106" type="curve" smooth="yes"/>
      <point x="308" y="-101"/>
      <point x="302" y="-99"/>
      <point x="295" y="-99" type="curve" smooth="yes"/>
      <point x="289" y="-99"/>
      <point x="285" y="-100"/>
      <point x="282" y="-102" type="curve" smooth="yes"/>
      <point x="278" y="-105"/>
      <point x="276" y="-108"/>
      <point x="276" y="-112" type="curve" smooth="yes"/>
      <point x="276" y="-117"/>
      <point x="278" y="-121"/>
      <point x="282" y="-126" type="curve" smooth="yes"/>
      <point x="285" y="-129"/>
      <point x="289" y="-131"/>
      <point x="295" y="-131" type="curve"/>
      <point x="295" y="-136"/>
      <point x="291" y="-141"/>
      <point x="284" y="-144" type="curve" smooth="yes"/>
      <point x="276" y="-149"/>
      <point x="267" y="-151"/>
      <point x="257" y="-151" type="curve" smooth="yes"/>
      <point x="192" y="-151" type="line" smooth="yes"/>
      <point x="181" y="-151"/>
      <point x="172" y="-148"/>
      <point x="164" y="-141" type="curve" smooth="yes"/>
      <point x="157" y="-136"/>
      <point x="153" y="-131"/>
      <point x="153" y="-125" type="curve" smooth="yes"/>
      <point x="153" y="561" type="line" smooth="yes"/>
      <point x="153" y="568"/>
      <point x="157" y="575"/>
      <point x="164" y="580" type="curve" smooth="yes"/>
      <point x="172" y="585"/>
      <point x="181" y="587"/>
      <point x="192" y="587" type="curve" smooth="yes"/>
      <point x="257" y="587" type="line" smooth="yes"/>
      <point x="267" y="587"/>
      <point x="276" y="586"/>
      <point x="284" y="583" type="curve" smooth="yes"/>
      <point x="291" y="580"/>
      <point x="295" y="575"/>
      <point x="295" y="568" type="curve"/>
      <point x="289" y="568"/>
      <point x="285" y="567"/>
      <point x="282" y="564" type="curve" smooth="yes"/>
      <point x="278" y="559"/>
      <point x="276" y="554"/>
      <point x="276" y="548" type="curve" smooth="yes"/>
      <point x="276" y="545"/>
      <point x="278" y="543"/>
      <point x="282" y="540" type="curve" smooth="yes"/>
      <point x="285" y="537"/>
      <point x="289" y="536"/>
      <point x="295" y="536" type="curve" smooth="yes"/>
      <point x="302" y="536"/>
      <point x="308" y="539"/>
      <point x="313" y="544" type="curve" smooth="yes"/>
      <point x="319" y="549"/>
      <point x="322" y="555"/>
      <point x="322" y="561" type="curve" smooth="yes"/>
      <point x="322" y="639" type="line"/>
      <point x="128" y="639" type="line" smooth="yes"/>
      <point x="107" y="639"/>
      <point x="89" y="633"/>
      <point x="73" y="620" type="curve" smooth="yes"/>
      <point x="58" y="609"/>
      <point x="51" y="594"/>
      <point x="51" y="577" type="curve" smooth="yes"/>
      <point x="51" y="-138" type="line" smooth="yes"/>
      <point x="51" y="-156"/>
      <point x="58" y="-171"/>
      <point x="73" y="-182" type="curve" smooth="yes"/>
      <point x="89" y="-195"/>
      <point x="107" y="-202"/>
      <point x="128" y="-202" type="curve" smooth="yes"/>
    </contour>
  </outline>
</glyph>
<glyph name="parenright" format="1">
  <advance width="375"/>
  <unicode hex="0029"/>
  <outline>
    <contour>
      <point x="245" y="-202" type="line" name="hr00" smooth="yes"/>
      <point x="266" y="-202"/>
      <point x="283" y="-195"/>
      <point x="298" y="-182" type="curve"/>
      <point x="314" y="-171"/>
      <point x="322" y="-156"/>
      <point x="322" y="-138" type="curve" smooth="yes"/>
      <point x="322" y="577" type="line" smooth="yes"/>
      <point x="322" y="594"/>
      <point x="314" y="609"/>
      <point x="298" y="620" type="curve"/>
      <point x="283" y="633"/>
      <point x="266" y="639"/>
      <point x="245" y="639" type="curve" smooth="yes"/>
      <point x="51" y="639" type="line"/>
      <point x="51" y="561" type="line" smooth="yes"/>
      <point x="51" y="555"/>
      <point x="54" y="549"/>
      <point x="59" y="544" type="curve" smooth="yes"/>
      <point x="64" y="539"/>
      <point x="70" y="536"/>
      <point x="77" y="536" type="curve" smooth="yes"/>
      <point x="83" y="536"/>
      <point x="88" y="537"/>
      <point x="91" y="540" type="curve" smooth="yes"/>
      <point x="95" y="543"/>
      <point x="97" y="545"/>
      <point x="97" y="548" type="curve" smooth="yes"/>
      <point x="97" y="554"/>
      <point x="95" y="559"/>
      <point x="91" y="564" type="curve" smooth="yes"/>
      <point x="88" y="567"/>
      <point x="83" y="568"/>
      <point x="77" y="568" type="curve"/>
      <point x="77" y="575"/>
      <point x="81" y="580"/>
      <point x="89" y="583" type="curve" smooth="yes"/>
      <point x="96" y="586"/>
      <point x="105" y="587"/>
      <point x="116" y="587" type="curve" smooth="yes"/>
      <point x="180" y="587" type="line" smooth="yes"/>
      <point x="191" y="587"/>
      <point x="201" y="585"/>
      <point x="209" y="580" type="curve" smooth="yes"/>
      <point x="216" y="575"/>
      <point x="219" y="568"/>
      <point x="219" y="561" type="curve" smooth="yes"/>
      <point x="219" y="-125" type="line" smooth="yes"/>
      <point x="219" y="-131"/>
      <point x="216" y="-136"/>
      <point x="209" y="-141" type="curve" smooth="yes"/>
      <point x="201" y="-148"/>
      <point x="191" y="-151"/>
      <point x="180" y="-151" type="curve" smooth="yes"/>
      <point x="116" y="-151" type="line" smooth="yes"/>
      <point x="105" y="-151"/>
      <point x="96" y="-149"/>
      <point x="89" y="-144" type="curve"/>
      <point x="81" y="-141"/>
      <point x="77" y="-136"/>
      <point x="77" y="-131" type="curve"/>
      <point x="83" y="-131"/>
      <point x="88" y="-129"/>
      <point x="91" y="-126" type="curve" smooth="yes"/>
      <point x="95" y="-121"/>
      <point x="97" y="-117"/>
      <point x="97" y="-112" type="curve" smooth="yes"/>
      <point x="97" y="-108"/>
      <point x="95" y="-105"/>
      <point x="91" y="-102" type="curve" smooth="yes"/>
      <point x="88" y="-100"/>
      <point x="83" y="-99"/>
      <point x="77" y="-99" type="curve" smooth="yes"/>
      <point x="70" y="-99"/>
      <point x="64" y="-101"/>
      <point x="59" y="-106" type="curve" smooth="yes"/>
      <point x="54" y="-111"/>
      <point x="51" y="-118"/>
      <point x="51" y="-125" type="curve" smooth="yes"/>
      <point x="51" y="-202" type="line"/>
    </contour>
  </outline>
</glyph>
<glyph name="asterisk" format="1">
  <advance width="677"/>
  <unicode hex="002A"/>
  <outline>
    <contour>
      <point x="289" y="227" type="line" name="hr00"/>
      <point x="234" y="206"/>
      <point x="194" y="188"/>
      <point x="169" y="175" type="curve" smooth="yes"/>
      <point x="134" y="156"/>
      <point x="117" y="138"/>
      <point x="117" y="121" type="curve" smooth="yes"/>
      <point x="117" y="112"/>
      <point x="119" y="102"/>
      <point x="124" y="91" type="curve" smooth="yes"/>
      <point x="128" y="80"/>
      <point x="134" y="70"/>
      <point x="142" y="59" type="curve" smooth="yes"/>
      <point x="149" y="50"/>
      <point x="154" y="41"/>
      <point x="157" y="31" type="curve"/>
      <point x="162" y="22"/>
      <point x="163" y="14"/>
      <point x="163" y="7" type="curve"/>
      <point x="158" y="7"/>
      <point x="153" y="5"/>
      <point x="149" y="1" type="curve" smooth="yes"/>
      <point x="144" y="-3"/>
      <point x="142" y="-8"/>
      <point x="142" y="-13" type="curve" smooth="yes"/>
      <point x="142" y="-19"/>
      <point x="145" y="-24"/>
      <point x="151" y="-27" type="curve" smooth="yes"/>
      <point x="156" y="-30"/>
      <point x="162" y="-32"/>
      <point x="169" y="-32" type="curve" smooth="yes"/>
      <point x="178" y="-32"/>
      <point x="185" y="-28"/>
      <point x="191" y="-19" type="curve" smooth="yes"/>
      <point x="198" y="-10"/>
      <point x="202" y="1"/>
      <point x="202" y="13" type="curve" smooth="yes"/>
      <point x="202" y="18"/>
      <point x="200" y="24"/>
      <point x="197" y="33" type="curve" smooth="yes"/>
      <point x="194" y="42"/>
      <point x="193" y="48"/>
      <point x="193" y="52" type="curve" smooth="yes"/>
      <point x="193" y="70"/>
      <point x="204" y="91"/>
      <point x="228" y="112" type="curve" smooth="yes"/>
      <point x="249" y="132"/>
      <point x="280" y="150"/>
      <point x="317" y="167" type="curve"/>
      <point x="304" y="82" type="line"/>
      <point x="291" y="0" type="line"/>
      <point x="291" y="-11"/>
      <point x="294" y="-20"/>
      <point x="301" y="-28" type="curve"/>
      <point x="309" y="-35"/>
      <point x="319" y="-39"/>
      <point x="330" y="-39" type="curve"/>
      <point x="395" y="-32" type="line" smooth="yes"/>
      <point x="397" y="-32"/>
      <point x="400" y="-33"/>
      <point x="405" y="-36" type="curve"/>
      <point x="411" y="-38"/>
      <point x="418" y="-41"/>
      <point x="426" y="-45" type="curve"/>
      <point x="426" y="-50"/>
      <point x="428" y="-55"/>
      <point x="431" y="-58" type="curve" smooth="yes"/>
      <point x="435" y="-62"/>
      <point x="439" y="-64"/>
      <point x="444" y="-64" type="curve" smooth="yes"/>
      <point x="449" y="-64"/>
      <point x="454" y="-62"/>
      <point x="459" y="-58" type="curve" smooth="yes"/>
      <point x="462" y="-55"/>
      <point x="464" y="-50"/>
      <point x="464" y="-45" type="curve" smooth="yes"/>
      <point x="464" y="-40"/>
      <point x="462" y="-35"/>
      <point x="457" y="-29" type="curve" smooth="yes"/>
      <point x="453" y="-24"/>
      <point x="447" y="-18"/>
      <point x="439" y="-13" type="curve" smooth="yes"/>
      <point x="423" y="-4"/>
      <point x="410" y="10"/>
      <point x="401" y="29" type="curve" smooth="yes"/>
      <point x="392" y="50"/>
      <point x="388" y="73"/>
      <point x="388" y="98" type="curve" smooth="yes"/>
      <point x="388" y="167" type="line"/>
      <point x="478" y="82" type="line" smooth="yes"/>
      <point x="493" y="67"/>
      <point x="507" y="58"/>
      <point x="516" y="51" type="curve" smooth="yes"/>
      <point x="527" y="42"/>
      <point x="535" y="38"/>
      <point x="542" y="38" type="curve" smooth="yes"/>
      <point x="549" y="38"/>
      <point x="554" y="40"/>
      <point x="559" y="44" type="curve"/>
      <point x="566" y="47"/>
      <point x="571" y="52"/>
      <point x="574" y="59" type="curve"/>
      <point x="607" y="89" type="line"/>
      <point x="614" y="99"/>
      <point x="619" y="106"/>
      <point x="624" y="111" type="curve" smooth="yes"/>
      <point x="629" y="115"/>
      <point x="634" y="117"/>
      <point x="637" y="117" type="curve"/>
      <point x="637" y="111"/>
      <point x="639" y="106"/>
      <point x="642" y="102" type="curve" smooth="yes"/>
      <point x="645" y="99"/>
      <point x="648" y="98"/>
      <point x="651" y="98" type="curve" smooth="yes"/>
      <point x="657" y="98"/>
      <point x="661" y="100"/>
      <point x="664" y="105" type="curve" smooth="yes"/>
      <point x="668" y="110"/>
      <point x="670" y="115"/>
      <point x="670" y="121" type="curve" smooth="yes"/>
      <point x="670" y="128"/>
      <point x="667" y="135"/>
      <point x="660" y="140" type="curve" smooth="yes"/>
      <point x="652" y="145"/>
      <point x="642" y="147"/>
      <point x="631" y="147" type="curve" smooth="yes"/>
      <point x="624" y="147"/>
      <point x="615" y="144"/>
      <point x="604" y="139" type="curve" smooth="yes"/>
      <point x="591" y="132"/>
      <point x="581" y="128"/>
      <point x="574" y="128" type="curve" smooth="yes"/>
      <point x="565" y="128"/>
      <point x="553" y="132"/>
      <point x="538" y="140" type="curve" smooth="yes"/>
      <point x="523" y="148"/>
      <point x="505" y="159"/>
      <point x="485" y="173" type="curve"/>
      <point x="431" y="221" type="line"/>
      <point x="487" y="242"/>
      <point x="527" y="260"/>
      <point x="552" y="273" type="curve" smooth="yes"/>
      <point x="587" y="292"/>
      <point x="604" y="309"/>
      <point x="604" y="326" type="curve" smooth="yes"/>
      <point x="604" y="335"/>
      <point x="602" y="346"/>
      <point x="597" y="358" type="curve" smooth="yes"/>
      <point x="593" y="368"/>
      <point x="587" y="379"/>
      <point x="579" y="390" type="curve" smooth="yes"/>
      <point x="572" y="399"/>
      <point x="567" y="408"/>
      <point x="564" y="417" type="curve" smooth="yes"/>
      <point x="560" y="426"/>
      <point x="558" y="434"/>
      <point x="558" y="441" type="curve"/>
      <point x="564" y="441"/>
      <point x="569" y="443"/>
      <point x="572" y="447" type="curve"/>
      <point x="577" y="451"/>
      <point x="579" y="456"/>
      <point x="579" y="461" type="curve" smooth="yes"/>
      <point x="579" y="467"/>
      <point x="576" y="472"/>
      <point x="570" y="476" type="curve" smooth="yes"/>
      <point x="565" y="479"/>
      <point x="559" y="480"/>
      <point x="552" y="480" type="curve" smooth="yes"/>
      <point x="543" y="480"/>
      <point x="536" y="476"/>
      <point x="530" y="467" type="curve" smooth="yes"/>
      <point x="523" y="458"/>
      <point x="519" y="447"/>
      <point x="519" y="435" type="curve" smooth="yes"/>
      <point x="519" y="430"/>
      <point x="521" y="424"/>
      <point x="524" y="415" type="curve" smooth="yes"/>
      <point x="527" y="407"/>
      <point x="528" y="401"/>
      <point x="528" y="397" type="curve" smooth="yes"/>
      <point x="528" y="379"/>
      <point x="517" y="359"/>
      <point x="494" y="337" type="curve" smooth="yes"/>
      <point x="472" y="317"/>
      <point x="442" y="298"/>
      <point x="404" y="281" type="curve"/>
      <point x="417" y="365" type="line"/>
      <point x="430" y="448" type="line"/>
      <point x="430" y="459"/>
      <point x="427" y="469"/>
      <point x="421" y="477" type="curve"/>
      <point x="412" y="484"/>
      <point x="402" y="487"/>
      <point x="391" y="487" type="curve"/>
      <point x="326" y="480" type="line" smooth="yes"/>
      <point x="324" y="480"/>
      <point x="320" y="481"/>
      <point x="315" y="484" type="curve" smooth="yes"/>
      <point x="295" y="493" type="line"/>
      <point x="295" y="498"/>
      <point x="293" y="503"/>
      <point x="289" y="506" type="curve"/>
      <point x="286" y="510"/>
      <point x="281" y="512"/>
      <point x="276" y="512" type="curve" smooth="yes"/>
      <point x="271" y="512"/>
      <point x="267" y="510"/>
      <point x="262" y="506" type="curve" smooth="yes"/>
      <point x="259" y="503"/>
      <point x="257" y="498"/>
      <point x="257" y="493" type="curve" smooth="yes"/>
      <point x="257" y="488"/>
      <point x="259" y="483"/>
      <point x="263" y="478" type="curve" smooth="yes"/>
      <point x="268" y="471"/>
      <point x="274" y="466"/>
      <point x="282" y="461" type="curve" smooth="yes"/>
      <point x="298" y="452"/>
      <point x="312" y="438"/>
      <point x="321" y="418" type="curve" smooth="yes"/>
      <point x="330" y="398"/>
      <point x="333" y="376"/>
      <point x="333" y="351" type="curve" smooth="yes"/>
      <point x="333" y="281" type="line"/>
      <point x="243" y="365" type="line" smooth="yes"/>
      <point x="227" y="380"/>
      <point x="214" y="391"/>
      <point x="205" y="398" type="curve" smooth="yes"/>
      <point x="194" y="407"/>
      <point x="186" y="411"/>
      <point x="179" y="411" type="curve" smooth="yes"/>
      <point x="172" y="411"/>
      <point x="167" y="409"/>
      <point x="162" y="404" type="curve"/>
      <point x="155" y="401"/>
      <point x="150" y="396"/>
      <point x="146" y="390" type="curve"/>
      <point x="115" y="359" type="line"/>
      <point x="108" y="350"/>
      <point x="102" y="343"/>
      <point x="97" y="338" type="curve" smooth="yes"/>
      <point x="92" y="334"/>
      <point x="87" y="332"/>
      <point x="84" y="332" type="curve"/>
      <point x="84" y="337"/>
      <point x="82" y="341"/>
      <point x="79" y="346" type="curve" smooth="yes"/>
      <point x="76" y="349"/>
      <point x="73" y="351"/>
      <point x="69" y="351" type="curve" smooth="yes"/>
      <point x="64" y="351"/>
      <point x="60" y="349"/>
      <point x="56" y="344" type="curve" smooth="yes"/>
      <point x="53" y="339"/>
      <point x="51" y="333"/>
      <point x="51" y="326" type="curve" smooth="yes"/>
      <point x="51" y="319"/>
      <point x="55" y="313"/>
      <point x="62" y="308" type="curve" smooth="yes"/>
      <point x="69" y="303"/>
      <point x="79" y="300"/>
      <point x="90" y="300" type="curve" smooth="yes"/>
      <point x="97" y="300"/>
      <point x="106" y="303"/>
      <point x="117" y="310" type="curve" smooth="yes"/>
      <point x="130" y="317"/>
      <point x="140" y="320"/>
      <point x="146" y="320" type="curve" smooth="yes"/>
      <point x="155" y="320"/>
      <point x="167" y="316"/>
      <point x="183" y="308" type="curve" smooth="yes"/>
      <point x="198" y="301"/>
      <point x="217" y="291"/>
      <point x="236" y="274" type="curve" smooth="yes"/>
    </contour>
  </outline>
</glyph>
<glyph name="plus" format="1">
  <advance width="657"/>
  <unicode hex="002B"/>
  <outline>
    <contour>
      <point x="372" y="-6" type="line" name="hr00"/>
      <point x="372" y="194" type="line"/>
      <point x="604" y="194" type="line"/>
      <point x="604" y="245" type="line"/>
      <point x="372" y="245" type="line"/>
      <point x="372" y="444" type="line"/>
      <point x="270" y="444" type="line"/>
      <point x="270" y="245" type="line"/>
      <point x="51" y="245" type="line"/>
      <point x="51" y="194" type="line"/>
      <point x="270" y="194" type="line"/>
      <point x="270" y="-6" type="line"/>
    </contour>
  </outline>
</glyph>
<glyph name="comma" format="1">
  <advance width="297"/>
  <unicode hex="002C"/>
  <outline>
    <contour>
      <point x="146" y="-45" type="line" name="hr00" smooth="yes"/>
      <point x="146" y="-52"/>
      <point x="145" y="-58"/>
      <point x="142" y="-64" type="curve" smooth="yes"/>
      <point x="139" y="-69"/>
      <point x="134" y="-71"/>
      <point x="128" y="-71" type="curve" smooth="yes"/>
      <point x="90" y="-71" type="line"/>
      <point x="90" y="-66"/>
      <point x="88" y="-61"/>
      <point x="85" y="-56" type="curve"/>
      <point x="80" y="-53"/>
      <point x="74" y="-52"/>
      <point x="69" y="-52" type="curve" smooth="yes"/>
      <point x="64" y="-52"/>
      <point x="60" y="-55"/>
      <point x="56" y="-60" type="curve" smooth="yes"/>
      <point x="53" y="-64"/>
      <point x="51" y="-70"/>
      <point x="51" y="-77" type="curve" smooth="yes"/>
      <point x="51" y="-86"/>
      <point x="54" y="-94"/>
      <point x="60" y="-101" type="curve"/>
      <point x="66" y="-106"/>
      <point x="74" y="-109"/>
      <point x="84" y="-109" type="curve" smooth="yes"/>
      <point x="146" y="-109" type="line" smooth="yes"/>
      <point x="161" y="-109"/>
      <point x="173" y="-105"/>
      <point x="183" y="-97" type="curve"/>
      <point x="193" y="-87"/>
      <point x="198" y="-76"/>
      <point x="198" y="-65" type="curve" smooth="yes"/>
      <point x="198" y="78" type="line" smooth="yes"/>
      <point x="198" y="83"/>
      <point x="200" y="88"/>
      <point x="203" y="92" type="curve" smooth="yes"/>
      <point x="205" y="96"/>
      <point x="208" y="98"/>
      <point x="211" y="98" type="curve"/>
      <point x="211" y="94"/>
      <point x="213" y="91"/>
      <point x="217" y="88" type="curve" smooth="yes"/>
      <point x="221" y="86"/>
      <point x="226" y="85"/>
      <point x="231" y="85" type="curve" smooth="yes"/>
      <point x="234" y="85"/>
      <point x="237" y="86"/>
      <point x="239" y="89" type="curve" smooth="yes"/>
      <point x="242" y="93"/>
      <point x="243" y="98"/>
      <point x="243" y="104" type="curve" smooth="yes"/>
      <point x="243" y="109"/>
      <point x="240" y="114"/>
      <point x="235" y="117" type="curve" smooth="yes"/>
      <point x="231" y="120"/>
      <point x="225" y="121"/>
      <point x="218" y="121" type="curve" smooth="yes"/>
      <point x="76" y="121" type="line" smooth="yes"/>
      <point x="69" y="121"/>
      <point x="63" y="120"/>
      <point x="59" y="117" type="curve" smooth="yes"/>
      <point x="54" y="114"/>
      <point x="51" y="109"/>
      <point x="51" y="104" type="curve" smooth="yes"/>
      <point x="51" y="98"/>
      <point x="53" y="93"/>
      <point x="56" y="89" type="curve"/>
      <point x="60" y="86"/>
      <point x="64" y="85"/>
      <point x="69" y="85" type="curve" smooth="yes"/>
      <point x="73" y="85"/>
      <point x="76" y="86"/>
      <point x="79" y="88" type="curve" smooth="yes"/>
      <point x="82" y="91"/>
      <point x="84" y="94"/>
      <point x="84" y="98" type="curve"/>
      <point x="87" y="98"/>
      <point x="90" y="96"/>
      <point x="92" y="92" type="curve" smooth="yes"/>
      <point x="95" y="88"/>
      <point x="97" y="83"/>
      <point x="97" y="78" type="curve" smooth="yes"/>
      <point x="97" y="39" type="line" smooth="yes"/>
      <point x="97" y="34"/>
      <point x="95" y="29"/>
      <point x="92" y="25" type="curve"/>
      <point x="90" y="20"/>
      <point x="87" y="18"/>
      <point x="84" y="18" type="curve"/>
      <point x="84" y="23"/>
      <point x="82" y="26"/>
      <point x="79" y="28" type="curve" smooth="yes"/>
      <point x="76" y="31"/>
      <point x="73" y="33"/>
      <point x="69" y="33" type="curve" smooth="yes"/>
      <point x="64" y="33"/>
      <point x="60" y="31"/>
      <point x="56" y="27" type="curve" smooth="yes"/>
      <point x="53" y="24"/>
      <point x="51" y="19"/>
      <point x="51" y="13" type="curve" smooth="yes"/>
      <point x="51" y="8"/>
      <point x="54" y="3"/>
      <point x="59" y="-1" type="curve" smooth="yes"/>
      <point x="63" y="-4"/>
      <point x="69" y="-6"/>
      <point x="76" y="-6" type="curve" smooth="yes"/>
      <point x="146" y="-6" type="line"/>
    </contour>
  </outline>
</glyph>
<glyph name="hyphen" format="1">
  <advance width="426"/>
  <unicode hex="002D"/>
  <outline>
    <contour>
      <point x="372" y="199" type="line" name="hr00"/>
      <point x="372" y="251" type="line"/>
      <point x="51" y="251" type="line"/>
      <point x="51" y="199" type="line"/>
    </contour>
  </outline>
</glyph>
<glyph name="period" format="1">
  <advance width="297"/>
  <unicode hex="002E"/>
  <outline>
    <contour>
      <point x="218" y="-6" type="line" name="hr00" smooth="yes"/>
      <point x="225" y="-6"/>
      <point x="231" y="-4"/>
      <point x="235" y="-1" type="curve" smooth="yes"/>
      <point x="240" y="3"/>
      <point x="243" y="8"/>
      <point x="243" y="13" type="curve" smooth="yes"/>
      <point x="243" y="19"/>
      <point x="242" y="24"/>
      <point x="239" y="27" type="curve"/>
      <point x="237" y="31"/>
      <point x="234" y="33"/>
      <point x="231" y="33" type="curve" smooth="yes"/>
      <point x="226" y="33"/>
      <point x="221" y="31"/>
      <point x="217" y="28" type="curve" smooth="yes"/>
      <point x="213" y="26"/>
      <point x="211" y="23"/>
      <point x="211" y="18" type="curve"/>
      <point x="208" y="18"/>
      <point x="205" y="20"/>
      <point x="203" y="25" type="curve"/>
      <point x="200" y="29"/>
      <point x="198" y="34"/>
      <point x="198" y="39" type="curve" smooth="yes"/>
      <point x="198" y="78" type="line" smooth="yes"/>
      <point x="198" y="83"/>
      <point x="200" y="88"/>
      <point x="203" y="92" type="curve" smooth="yes"/>
      <point x="205" y="96"/>
      <point x="208" y="98"/>
      <point x="211" y="98" type="curve"/>
      <point x="211" y="94"/>
      <point x="213" y="91"/>
      <point x="217" y="88" type="curve" smooth="yes"/>
      <point x="221" y="86"/>
      <point x="226" y="85"/>
      <point x="231" y="85" type="curve" smooth="yes"/>
      <point x="234" y="85"/>
      <point x="237" y="86"/>
      <point x="239" y="89" type="curve" smooth="yes"/>
      <point x="242" y="93"/>
      <point x="243" y="98"/>
      <point x="243" y="104" type="curve" smooth="yes"/>
      <point x="243" y="109"/>
      <point x="240" y="114"/>
      <point x="235" y="117" type="curve" smooth="yes"/>
      <point x="231" y="120"/>
      <point x="225" y="121"/>
      <point x="218" y="121" type="curve" smooth="yes"/>
      <point x="76" y="121" type="line" smooth="yes"/>
      <point x="69" y="121"/>
      <point x="63" y="120"/>
      <point x="59" y="117" type="curve" smooth="yes"/>
      <point x="54" y="114"/>
      <point x="51" y="109"/>
      <point x="51" y="104" type="curve" smooth="yes"/>
      <point x="51" y="98"/>
      <point x="53" y="93"/>
      <point x="56" y="89" type="curve"/>
      <point x="60" y="86"/>
      <point x="64" y="85"/>
      <point x="69" y="85" type="curve" smooth="yes"/>
      <point x="73" y="85"/>
      <point x="76" y="86"/>
      <point x="79" y="88" type="curve" smooth="yes"/>
      <point x="82" y="91"/>
      <point x="84" y="94"/>
      <point x="84" y="98" type="curve"/>
      <point x="87" y="98"/>
      <point x="90" y="96"/>
      <point x="92" y="92" type="curve" smooth="yes"/>
      <point x="95" y="88"/>
      <point x="97" y="83"/>
      <point x="97" y="78" type="curve" smooth="yes"/>
      <point x="97" y="39" type="line" smooth="yes"/>
      <point x="97" y="34"/>
      <point x="95" y="29"/>
      <point x="92" y="25" type="curve"/>
      <point x="90" y="20"/>
      <point x="87" y="18"/>
      <point x="84" y="18" type="curve"/>
      <point x="84" y="23"/>
      <point x="82" y="26"/>
      <point x="79" y="28" type="curve" smooth="yes"/>
      <point x="76" y="31"/>
      <point x="73" y="33"/>
      <point x="69" y="33" type="curve" smooth="yes"/>
      <point x="64" y="33"/>
      <point x="60" y="31"/>
      <point x="56" y="27" type="curve" smooth="yes"/>
      <point x="53" y="24"/>
      <point x="51" y="19"/>
      <point x="51" y="13" type="curve" smooth="yes"/>
      <point x="51" y="8"/>
      <point x="54" y="3"/>
      <point x="59" y="-1" type="curve" smooth="yes"/>
      <point x="63" y="-4"/>
      <point x="69" y="-6"/>
      <point x="76" y="-6" type="curve" smooth="yes"/>
    </contour>
  </outline>
</glyph>
<glyph name="slash" format="1">
  <advance width="522"/>
  <unicode hex="002F"/>
  <outline>
    <contour>
      <point x="51" y="-11" type="line" name="hr00"/>
      <point x="159" y="-11" type="line"/>
      <point x="479" y="643" type="line"/>
      <point x="362" y="643" type="line"/>
      <point x="51" y="-5" type="line"/>
    </contour>
  </outline>
</glyph>
<glyph name="zero" format="1">
  <advance width="643"/>
  <unicode hex="0030"/>
  <outline>
    <contour>
      <point x="222" y="44" type="line" name="hr00" smooth="yes"/>
      <point x="209" y="44"/>
      <point x="197" y="47"/>
      <point x="188" y="54" type="curve"/>
      <point x="179" y="59"/>
      <point x="175" y="66"/>
      <point x="175" y="74" type="curve" smooth="yes"/>
      <point x="175" y="415" type="line" smooth="yes"/>
      <point x="175" y="428"/>
      <point x="179" y="439"/>
      <point x="188" y="448" type="curve" smooth="yes"/>
      <point x="197" y="458"/>
      <point x="209" y="463"/>
      <point x="222" y="463" type="curve" smooth="yes"/>
      <point x="435" y="463" type="line" smooth="yes"/>
      <point x="446" y="463"/>
      <point x="455" y="459"/>
      <point x="463" y="451" type="curve" smooth="yes"/>
      <point x="471" y="444"/>
      <point x="475" y="435"/>
      <point x="475" y="426" type="curve" smooth="yes"/>
      <point x="475" y="74" type="line" smooth="yes"/>
      <point x="475" y="66"/>
      <point x="471" y="59"/>
      <point x="463" y="53" type="curve" smooth="yes"/>
      <point x="455" y="47"/>
      <point x="444" y="44"/>
      <point x="430" y="44" type="curve" smooth="yes"/>
    </contour>
    <contour>
      <point x="495" y="-11" type="line" smooth="yes"/>
      <point x="521" y="-11"/>
      <point x="543" y="-4"/>
      <point x="561" y="14" type="curve" smooth="yes"/>
      <point x="578" y="31"/>
      <point x="585" y="51"/>
      <point x="585" y="74" type="curve" smooth="yes"/>
      <point x="585" y="443" type="line" smooth="yes"/>
      <point x="585" y="464"/>
      <point x="578" y="481"/>
      <point x="563" y="494" type="curve" smooth="yes"/>
      <point x="546" y="509"/>
      <point x="527" y="516"/>
      <point x="505" y="516" type="curve" smooth="yes"/>
      <point x="131" y="516" type="line" smooth="yes"/>
      <point x="113" y="516"/>
      <point x="98" y="509"/>
      <point x="84" y="497" type="curve" smooth="yes"/>
      <point x="71" y="485"/>
      <point x="64" y="471"/>
      <point x="64" y="454" type="curve" smooth="yes"/>
      <point x="64" y="74" type="line" smooth="yes"/>
      <point x="64" y="51"/>
      <point x="73" y="31"/>
      <point x="91" y="14" type="curve" smooth="yes"/>
      <point x="110" y="-3"/>
      <point x="132" y="-11"/>
      <point x="158" y="-11" type="curve" smooth="yes"/>
    </contour>
  </outline>
</glyph>
<glyph name="one" format="1">
  <advance width="642"/>
  <unicode hex="0031"/>
  <outline>
    <contour>
      <point x="415" y="-11" type="line" smooth="yes" name="hr00"/>
      <point x="427" y="-11"/>
      <point x="438" y="-7"/>
      <point x="449" y="2" type="curve" smooth="yes"/>
      <point x="459" y="11"/>
      <point x="464" y="21"/>
      <point x="464" y="34" type="curve" smooth="yes"/>
      <point x="464" y="41"/>
      <point x="461" y="47"/>
      <point x="455" y="52" type="curve" smooth="yes"/>
      <point x="448" y="57"/>
      <point x="441" y="60"/>
      <point x="432" y="60" type="curve" smooth="yes"/>
      <point x="426" y="60"/>
      <point x="421" y="58"/>
      <point x="417" y="53" type="curve"/>
      <point x="412" y="50"/>
      <point x="410" y="46"/>
      <point x="410" y="40" type="curve" smooth="yes"/>
      <point x="410" y="37"/>
      <point x="411" y="34"/>
      <point x="412" y="29" type="curve"/>
      <point x="415" y="28"/>
      <point x="412" y="29"/>
      <point x="404" y="33" type="curve"/>
      <point x="405" y="33"/>
      <point x="403" y="36"/>
      <point x="396" y="41" type="curve" smooth="yes"/>
      <point x="390" y="46"/>
      <point x="387" y="53"/>
      <point x="387" y="62" type="curve" smooth="yes"/>
      <point x="387" y="516" type="line"/>
      <point x="300" y="516" type="line"/>
      <point x="298" y="493"/>
      <point x="289" y="474"/>
      <point x="273" y="461" type="curve" smooth="yes"/>
      <point x="256" y="448"/>
      <point x="237" y="441"/>
      <point x="218" y="441" type="curve"/>
      <point x="218" y="445" type="line"/>
      <point x="230" y="445"/>
      <point x="236" y="452"/>
      <point x="236" y="467" type="curve" smooth="yes"/>
      <point x="236" y="481"/>
      <point x="228" y="488"/>
      <point x="213" y="488" type="curve" smooth="yes"/>
      <point x="208" y="488"/>
      <point x="202" y="486"/>
      <point x="197" y="481" type="curve"/>
      <point x="192" y="478"/>
      <point x="188" y="474"/>
      <point x="185" y="467" type="curve"/>
      <point x="185" y="392" type="line"/>
      <point x="276" y="392" type="line"/>
      <point x="276" y="62" type="line" smooth="yes"/>
      <point x="276" y="53"/>
      <point x="272" y="46"/>
      <point x="265" y="41" type="curve" smooth="yes"/>
      <point x="258" y="36"/>
      <point x="252" y="33"/>
      <point x="247" y="33" type="curve" smooth="yes"/>
      <point x="249" y="33" type="line"/>
      <point x="250" y="36"/>
      <point x="251" y="39"/>
      <point x="251" y="40" type="curve" smooth="yes"/>
      <point x="251" y="46"/>
      <point x="249" y="50"/>
      <point x="245" y="53" type="curve" smooth="yes"/>
      <point x="240" y="58"/>
      <point x="234" y="60"/>
      <point x="227" y="60" type="curve" smooth="yes"/>
      <point x="220" y="60"/>
      <point x="213" y="57"/>
      <point x="207" y="51" type="curve" smooth="yes"/>
      <point x="201" y="44"/>
      <point x="198" y="37"/>
      <point x="198" y="28" type="curve" smooth="yes"/>
      <point x="198" y="17"/>
      <point x="203" y="7"/>
      <point x="214" y="0" type="curve" smooth="yes"/>
      <point x="225" y="-7"/>
      <point x="237" y="-11"/>
      <point x="249" y="-11" type="curve" smooth="yes"/>
    </contour>
  </outline>
</glyph>
<glyph name="two" format="1">
  <advance width="643"/>
  <unicode hex="0032"/>
  <outline>
    <contour>
      <point x="512" y="-11" type="line" name="hr00" smooth="yes"/>
      <point x="533" y="-11"/>
      <point x="550" y="-4"/>
      <point x="564" y="9" type="curve" smooth="yes"/>
      <point x="578" y="22"/>
      <point x="585" y="38"/>
      <point x="585" y="55" type="curve" smooth="yes"/>
      <point x="585" y="118" type="line"/>
      <point x="478" y="118" type="line" smooth="yes"/>
      <point x="471" y="118"/>
      <point x="464" y="116"/>
      <point x="459" y="111" type="curve" smooth="yes"/>
      <point x="453" y="105"/>
      <point x="450" y="99"/>
      <point x="450" y="92" type="curve" smooth="yes"/>
      <point x="450" y="82"/>
      <point x="455" y="74"/>
      <point x="465" y="69" type="curve"/>
      <point x="476" y="67"/>
      <point x="484" y="68"/>
      <point x="489" y="73" type="curve"/>
      <point x="489" y="68"/>
      <point x="486" y="61"/>
      <point x="481" y="54" type="curve" smooth="yes"/>
      <point x="475" y="47"/>
      <point x="468" y="44"/>
      <point x="461" y="44" type="curve" smooth="yes"/>
      <point x="196" y="44" type="line" smooth="yes"/>
      <point x="191" y="44"/>
      <point x="186" y="46"/>
      <point x="181" y="49" type="curve" smooth="yes"/>
      <point x="177" y="52"/>
      <point x="175" y="57"/>
      <point x="175" y="62" type="curve" smooth="yes"/>
      <point x="175" y="191" type="line" smooth="yes"/>
      <point x="175" y="200"/>
      <point x="178" y="206"/>
      <point x="183" y="211" type="curve" smooth="yes"/>
      <point x="190" y="217"/>
      <point x="198" y="220"/>
      <point x="209" y="220" type="curve" smooth="yes"/>
      <point x="524" y="220" type="line" smooth="yes"/>
      <point x="541" y="220"/>
      <point x="556" y="225"/>
      <point x="568" y="234" type="curve"/>
      <point x="579" y="245"/>
      <point x="585" y="257"/>
      <point x="585" y="270" type="curve" smooth="yes"/>
      <point x="585" y="466" type="line" smooth="yes"/>
      <point x="585" y="479"/>
      <point x="579" y="491"/>
      <point x="567" y="501" type="curve" smooth="yes"/>
      <point x="554" y="511"/>
      <point x="537" y="516"/>
      <point x="518" y="516" type="curve" smooth="yes"/>
      <point x="131" y="516" type="line" smooth="yes"/>
      <point x="113" y="516"/>
      <point x="97" y="511"/>
      <point x="84" y="501" type="curve" smooth="yes"/>
      <point x="71" y="491"/>
      <point x="64" y="479"/>
      <point x="64" y="466" type="curve" smooth="yes"/>
      <point x="64" y="392" type="line"/>
      <point x="177" y="392" type="line" smooth="yes"/>
      <point x="185" y="392"/>
      <point x="191" y="394"/>
      <point x="196" y="397" type="curve"/>
      <point x="203" y="399"/>
      <point x="206" y="403"/>
      <point x="206" y="410" type="curve" smooth="yes"/>
      <point x="206" y="415"/>
      <point x="205" y="419"/>
      <point x="202" y="424" type="curve" smooth="yes"/>
      <point x="199" y="428"/>
      <point x="195" y="430"/>
      <point x="190" y="430" type="curve" smooth="yes"/>
      <point x="184" y="430"/>
      <point x="179" y="429"/>
      <point x="175" y="427" type="curve" smooth="yes"/>
      <point x="169" y="424"/>
      <point x="168" y="430"/>
      <point x="175" y="443" type="curve"/>
      <point x="175" y="448"/>
      <point x="177" y="452"/>
      <point x="182" y="456" type="curve" smooth="yes"/>
      <point x="188" y="461"/>
      <point x="195" y="463"/>
      <point x="203" y="463" type="curve" smooth="yes"/>
      <point x="448" y="463" type="line" smooth="yes"/>
      <point x="455" y="463"/>
      <point x="462" y="461"/>
      <point x="467" y="456" type="curve" smooth="yes"/>
      <point x="472" y="452"/>
      <point x="475" y="448"/>
      <point x="475" y="443" type="curve" smooth="yes"/>
      <point x="475" y="305" type="line" smooth="yes"/>
      <point x="475" y="295"/>
      <point x="472" y="287"/>
      <point x="465" y="282" type="curve" smooth="yes"/>
      <point x="458" y="276"/>
      <point x="450" y="273"/>
      <point x="441" y="273" type="curve" smooth="yes"/>
      <point x="131" y="273" type="line" smooth="yes"/>
      <point x="113" y="273"/>
      <point x="97" y="269"/>
      <point x="84" y="257" type="curve" smooth="yes"/>
      <point x="70" y="245"/>
      <point x="64" y="229"/>
      <point x="64" y="214" type="curve" smooth="yes"/>
      <point x="64" y="52" type="line" smooth="yes"/>
      <point x="64" y="35"/>
      <point x="72" y="21"/>
      <point x="88" y="8" type="curve" smooth="yes"/>
      <point x="104" y="-5"/>
      <point x="122" y="-11"/>
      <point x="141" y="-11" type="curve" smooth="yes"/>
    </contour>
  </outline>
</glyph>
<glyph name="three" format="1">
  <advance width="643"/>
  <unicode hex="0033"/>
  <outline>
    <contour>
      <point x="502" y="-11" type="line" name="hr00" smooth="yes"/>
      <point x="526" y="-11"/>
      <point x="546" y="-5"/>
      <point x="563" y="11" type="curve" smooth="yes"/>
      <point x="578" y="26"/>
      <point x="585" y="43"/>
      <point x="585" y="62" type="curve" smooth="yes"/>
      <point x="585" y="235" type="line" smooth="yes"/>
      <point x="585" y="247"/>
      <point x="581" y="257"/>
      <point x="574" y="266" type="curve" smooth="yes"/>
      <point x="567" y="275"/>
      <point x="561" y="280"/>
      <point x="555" y="281" type="curve"/>
      <point x="561" y="284"/>
      <point x="567" y="291"/>
      <point x="574" y="300" type="curve" smooth="yes"/>
      <point x="581" y="309"/>
      <point x="585" y="318"/>
      <point x="585" y="327" type="curve" smooth="yes"/>
      <point x="585" y="443" type="line" smooth="yes"/>
      <point x="585" y="464"/>
      <point x="577" y="481"/>
      <point x="561" y="494" type="curve" smooth="yes"/>
      <point x="543" y="509"/>
      <point x="522" y="516"/>
      <point x="499" y="516" type="curve" smooth="yes"/>
      <point x="64" y="516" type="line"/>
      <point x="64" y="438" type="line" smooth="yes"/>
      <point x="64" y="431"/>
      <point x="66" y="424"/>
      <point x="71" y="419" type="curve" smooth="yes"/>
      <point x="75" y="414"/>
      <point x="80" y="412"/>
      <point x="86" y="412" type="curve" smooth="yes"/>
      <point x="92" y="412"/>
      <point x="98" y="414"/>
      <point x="104" y="418" type="curve" smooth="yes"/>
      <point x="109" y="422"/>
      <point x="111" y="426"/>
      <point x="111" y="431" type="curve" smooth="yes"/>
      <point x="111" y="436"/>
      <point x="108" y="440"/>
      <point x="103" y="443" type="curve" smooth="yes"/>
      <point x="98" y="446"/>
      <point x="93" y="447"/>
      <point x="90" y="447" type="curve"/>
      <point x="90" y="450"/>
      <point x="91" y="453"/>
      <point x="93" y="456" type="curve" smooth="yes"/>
      <point x="98" y="461"/>
      <point x="102" y="463"/>
      <point x="106" y="463" type="curve" smooth="yes"/>
      <point x="448" y="463" type="line" smooth="yes"/>
      <point x="455" y="463"/>
      <point x="462" y="460"/>
      <point x="467" y="454" type="curve"/>
      <point x="472" y="450"/>
      <point x="475" y="445"/>
      <point x="475" y="438" type="curve" smooth="yes"/>
      <point x="475" y="339" type="line" smooth="yes"/>
      <point x="475" y="330"/>
      <point x="472" y="324"/>
      <point x="465" y="319" type="curve" smooth="yes"/>
      <point x="458" y="313"/>
      <point x="450" y="310"/>
      <point x="441" y="310" type="curve" smooth="yes"/>
      <point x="268" y="310" type="line" smooth="yes"/>
      <point x="262" y="310"/>
      <point x="258" y="311"/>
      <point x="256" y="313" type="curve"/>
      <point x="253" y="314"/>
      <point x="252" y="314"/>
      <point x="252" y="313" type="curve"/>
      <point x="254" y="313"/>
      <point x="256" y="315"/>
      <point x="258" y="318" type="curve" smooth="yes"/>
      <point x="261" y="321"/>
      <point x="263" y="324"/>
      <point x="263" y="327" type="curve" smooth="yes"/>
      <point x="263" y="334"/>
      <point x="261" y="339"/>
      <point x="257" y="344" type="curve"/>
      <point x="252" y="348"/>
      <point x="247" y="350"/>
      <point x="242" y="350" type="curve" smooth="yes"/>
      <point x="235" y="350"/>
      <point x="229" y="347"/>
      <point x="224" y="340" type="curve" smooth="yes"/>
      <point x="220" y="334"/>
      <point x="218" y="327"/>
      <point x="218" y="318" type="curve" smooth="yes"/>
      <point x="218" y="247" type="line" smooth="yes"/>
      <point x="218" y="238"/>
      <point x="220" y="230"/>
      <point x="224" y="224" type="curve" smooth="yes"/>
      <point x="229" y="218"/>
      <point x="235" y="215"/>
      <point x="242" y="215" type="curve" smooth="yes"/>
      <point x="247" y="215"/>
      <point x="252" y="217"/>
      <point x="257" y="222" type="curve"/>
      <point x="261" y="228"/>
      <point x="263" y="234"/>
      <point x="263" y="241" type="curve" smooth="yes"/>
      <point x="263" y="245"/>
      <point x="261" y="248"/>
      <point x="257" y="250" type="curve" smooth="yes"/>
      <point x="256" y="251"/>
      <point x="254" y="251"/>
      <point x="252" y="251" type="curve"/>
      <point x="252" y="250"/>
      <point x="253" y="250"/>
      <point x="256" y="251" type="curve"/>
      <point x="258" y="254"/>
      <point x="262" y="255"/>
      <point x="268" y="255" type="curve" smooth="yes"/>
      <point x="441" y="255" type="line" smooth="yes"/>
      <point x="450" y="255"/>
      <point x="458" y="251"/>
      <point x="465" y="244" type="curve" smooth="yes"/>
      <point x="472" y="235"/>
      <point x="475" y="225"/>
      <point x="475" y="214" type="curve" smooth="yes"/>
      <point x="475" y="67" type="line" smooth="yes"/>
      <point x="475" y="60"/>
      <point x="472" y="54"/>
      <point x="467" y="51" type="curve"/>
      <point x="462" y="46"/>
      <point x="455" y="44"/>
      <point x="448" y="44" type="curve" smooth="yes"/>
      <point x="106" y="44" type="line" smooth="yes"/>
      <point x="102" y="44"/>
      <point x="98" y="46"/>
      <point x="93" y="49" type="curve"/>
      <point x="91" y="52"/>
      <point x="90" y="56"/>
      <point x="90" y="59" type="curve"/>
      <point x="93" y="59"/>
      <point x="98" y="60"/>
      <point x="103" y="62" type="curve" smooth="yes"/>
      <point x="108" y="65"/>
      <point x="111" y="69"/>
      <point x="111" y="74" type="curve" smooth="yes"/>
      <point x="111" y="79"/>
      <point x="109" y="84"/>
      <point x="104" y="89" type="curve"/>
      <point x="98" y="93"/>
      <point x="92" y="95"/>
      <point x="86" y="95" type="curve" smooth="yes"/>
      <point x="80" y="95"/>
      <point x="75" y="93"/>
      <point x="71" y="88" type="curve" smooth="yes"/>
      <point x="66" y="82"/>
      <point x="64" y="75"/>
      <point x="64" y="67" type="curve" smooth="yes"/>
      <point x="64" y="-11" type="line"/>
    </contour>
  </outline>
</glyph>
<glyph name="four" format="1">
  <advance width="643"/>
  <unicode hex="0034"/>
  <outline>
    <contour>
      <point x="127" y="144" type="line" name="hr00" smooth="yes"/>
      <point x="136" y="191"/>
      <point x="156" y="235"/>
      <point x="184" y="275" type="curve" smooth="yes"/>
      <point x="213" y="316"/>
      <point x="248" y="350"/>
      <point x="296" y="371" type="curve" smooth="yes"/>
      <point x="335" y="388" type="line" smooth="yes"/>
      <point x="361" y="399"/>
      <point x="372" y="409"/>
      <point x="373" y="410" type="curve"/>
      <point x="373" y="166" type="line"/>
      <point x="358" y="169"/>
      <point x="329" y="171"/>
      <point x="286" y="171" type="curve" smooth="yes"/>
      <point x="248" y="171"/>
      <point x="216" y="169"/>
      <point x="189" y="165" type="curve" smooth="yes"/>
      <point x="160" y="161"/>
      <point x="140" y="155"/>
      <point x="127" y="146" type="curve"/>
    </contour>
    <contour>
      <point x="512" y="-11" type="line" smooth="yes"/>
      <point x="523" y="-11"/>
      <point x="533" y="-8"/>
      <point x="542" y="-1" type="curve"/>
      <point x="551" y="4"/>
      <point x="555" y="12"/>
      <point x="555" y="22" type="curve" smooth="yes"/>
      <point x="555" y="29"/>
      <point x="553" y="36"/>
      <point x="550" y="41" type="curve"/>
      <point x="543" y="46"/>
      <point x="536" y="49"/>
      <point x="530" y="49" type="curve" smooth="yes"/>
      <point x="523" y="49"/>
      <point x="518" y="47"/>
      <point x="515" y="42" type="curve"/>
      <point x="510" y="38"/>
      <point x="508" y="33"/>
      <point x="508" y="28" type="curve" smooth="yes"/>
      <point x="508" y="26"/>
      <point x="510" y="24"/>
      <point x="513" y="22" type="curve"/>
      <point x="514" y="22"/>
      <point x="514" y="23"/>
      <point x="513" y="26" type="curve"/>
      <point x="507" y="26"/>
      <point x="500" y="28"/>
      <point x="493" y="31" type="curve" smooth="yes"/>
      <point x="486" y="34"/>
      <point x="482" y="37"/>
      <point x="482" y="40" type="curve" smooth="yes"/>
      <point x="482" y="87" type="line"/>
      <point x="502" y="80"/>
      <point x="529" y="77"/>
      <point x="564" y="77" type="curve" smooth="yes"/>
      <point x="581" y="77"/>
      <point x="596" y="78"/>
      <point x="609" y="80" type="curve"/>
      <point x="622" y="84"/>
      <point x="632" y="89"/>
      <point x="637" y="95" type="curve"/>
      <point x="637" y="172" type="line" smooth="yes"/>
      <point x="637" y="185"/>
      <point x="632" y="196"/>
      <point x="623" y="205" type="curve" smooth="yes"/>
      <point x="614" y="214"/>
      <point x="603" y="218"/>
      <point x="589" y="218" type="curve" smooth="yes"/>
      <point x="578" y="218"/>
      <point x="570" y="214"/>
      <point x="564" y="207" type="curve"/>
      <point x="557" y="201"/>
      <point x="553" y="193"/>
      <point x="553" y="182" type="curve" smooth="yes"/>
      <point x="553" y="175"/>
      <point x="556" y="170"/>
      <point x="563" y="165" type="curve" smooth="yes"/>
      <point x="568" y="160"/>
      <point x="574" y="157"/>
      <point x="582" y="157" type="curve" smooth="yes"/>
      <point x="584" y="157"/>
      <point x="587" y="159"/>
      <point x="590" y="162" type="curve" smooth="yes"/>
      <point x="592" y="165"/>
      <point x="594" y="167"/>
      <point x="595" y="167" type="curve" smooth="yes"/>
      <point x="596" y="166"/>
      <point x="597" y="163"/>
      <point x="598" y="160" type="curve"/>
      <point x="598" y="155" type="line" smooth="yes"/>
      <point x="598" y="151"/>
      <point x="595" y="147"/>
      <point x="590" y="144" type="curve" smooth="yes"/>
      <point x="583" y="140"/>
      <point x="574" y="138"/>
      <point x="564" y="138" type="curve" smooth="yes"/>
      <point x="527" y="138"/>
      <point x="499" y="143"/>
      <point x="482" y="152" type="curve"/>
      <point x="482" y="516" type="line"/>
      <point x="375" y="516" type="line"/>
      <point x="373" y="505"/>
      <point x="364" y="493"/>
      <point x="347" y="480" type="curve" smooth="yes"/>
      <point x="331" y="467"/>
      <point x="308" y="454"/>
      <point x="279" y="441" type="curve" smooth="yes"/>
      <point x="213" y="412"/>
      <point x="157" y="372"/>
      <point x="110" y="321" type="curve" smooth="yes"/>
      <point x="63" y="271"/>
      <point x="30" y="213"/>
      <point x="12" y="147" type="curve"/>
      <point x="92" y="68" type="line"/>
      <point x="113" y="85"/>
      <point x="137" y="97"/>
      <point x="166" y="105" type="curve" smooth="yes"/>
      <point x="196" y="113"/>
      <point x="230" y="117"/>
      <point x="267" y="117" type="curve" smooth="yes"/>
      <point x="324" y="117"/>
      <point x="360" y="115"/>
      <point x="373" y="112" type="curve"/>
      <point x="373" y="52" type="line" smooth="yes"/>
      <point x="373" y="34"/>
      <point x="379" y="19"/>
      <point x="391" y="7" type="curve" smooth="yes"/>
      <point x="404" y="-5"/>
      <point x="419" y="-11"/>
      <point x="437" y="-11" type="curve" smooth="yes"/>
    </contour>
  </outline>
</glyph>
<glyph name="five" format="1">
  <advance width="643"/>
  <unicode hex="0035"/>
  <outline>
    <contour>
      <point x="502" y="-11" type="line" smooth="yes" name="hr00"/>
      <point x="526" y="-11"/>
      <point x="546" y="-5"/>
      <point x="563" y="11" type="curve" smooth="yes"/>
      <point x="578" y="26"/>
      <point x="585" y="43"/>
      <point x="585" y="62" type="curve" smooth="yes"/>
      <point x="585" y="270" type="line" smooth="yes"/>
      <point x="585" y="291"/>
      <point x="576" y="308"/>
      <point x="558" y="321" type="curve" smooth="yes"/>
      <point x="539" y="334"/>
      <point x="517" y="341"/>
      <point x="492" y="341" type="curve" smooth="yes"/>
      <point x="201" y="341" type="line"/>
      <point x="201" y="438" type="line" smooth="yes"/>
      <point x="201" y="445"/>
      <point x="203" y="450"/>
      <point x="208" y="454" type="curve" smooth="yes"/>
      <point x="214" y="460"/>
      <point x="221" y="463"/>
      <point x="229" y="463" type="curve" smooth="yes"/>
      <point x="544" y="463" type="line" smooth="yes"/>
      <point x="549" y="463"/>
      <point x="553" y="461"/>
      <point x="556" y="456" type="curve" smooth="yes"/>
      <point x="559" y="453"/>
      <point x="560" y="450"/>
      <point x="560" y="447" type="curve"/>
      <point x="555" y="447"/>
      <point x="549" y="445"/>
      <point x="543" y="441" type="curve" smooth="yes"/>
      <point x="536" y="437"/>
      <point x="532" y="432"/>
      <point x="532" y="426" type="curve" smooth="yes"/>
      <point x="532" y="420"/>
      <point x="536" y="415"/>
      <point x="543" y="411" type="curve" smooth="yes"/>
      <point x="549" y="407"/>
      <point x="556" y="405"/>
      <point x="564" y="405" type="curve" smooth="yes"/>
      <point x="571" y="405"/>
      <point x="576" y="408"/>
      <point x="581" y="414" type="curve"/>
      <point x="584" y="421"/>
      <point x="585" y="429"/>
      <point x="585" y="438" type="curve" smooth="yes"/>
      <point x="585" y="516" type="line"/>
      <point x="158" y="516" type="line" smooth="yes"/>
      <point x="139" y="516"/>
      <point x="123" y="511"/>
      <point x="110" y="500" type="curve" smooth="yes"/>
      <point x="96" y="489"/>
      <point x="89" y="475"/>
      <point x="89" y="460" type="curve" smooth="yes"/>
      <point x="89" y="275" type="line" smooth="yes"/>
      <point x="89" y="266"/>
      <point x="92" y="259"/>
      <point x="99" y="253" type="curve"/>
      <point x="104" y="247"/>
      <point x="110" y="244"/>
      <point x="118" y="244" type="curve" smooth="yes"/>
      <point x="125" y="244"/>
      <point x="131" y="246"/>
      <point x="136" y="251" type="curve" smooth="yes"/>
      <point x="140" y="256"/>
      <point x="142" y="263"/>
      <point x="142" y="270" type="curve" smooth="yes"/>
      <point x="142" y="275"/>
      <point x="139" y="278"/>
      <point x="133" y="281" type="curve"/>
      <point x="130" y="284"/>
      <point x="126" y="285"/>
      <point x="123" y="285" type="curve"/>
      <point x="123" y="284"/>
      <point x="124" y="284"/>
      <point x="125" y="285" type="curve" smooth="yes"/>
      <point x="129" y="287"/>
      <point x="133" y="288"/>
      <point x="138" y="288" type="curve" smooth="yes"/>
      <point x="441" y="288" type="line" smooth="yes"/>
      <point x="450" y="288"/>
      <point x="458" y="284"/>
      <point x="465" y="277" type="curve" smooth="yes"/>
      <point x="472" y="268"/>
      <point x="475" y="258"/>
      <point x="475" y="247" type="curve" smooth="yes"/>
      <point x="475" y="67" type="line" smooth="yes"/>
      <point x="475" y="60"/>
      <point x="472" y="54"/>
      <point x="467" y="51" type="curve"/>
      <point x="462" y="46"/>
      <point x="455" y="44"/>
      <point x="448" y="44" type="curve" smooth="yes"/>
      <point x="113" y="44" type="line" smooth="yes"/>
      <point x="108" y="44"/>
      <point x="105" y="46"/>
      <point x="102" y="49" type="curve" smooth="yes"/>
      <point x="99" y="52"/>
      <point x="97" y="56"/>
      <point x="97" y="59" type="curve"/>
      <point x="101" y="59"/>
      <point x="106" y="61"/>
      <point x="111" y="65" type="curve"/>
      <point x="115" y="70"/>
      <point x="117" y="75"/>
      <point x="117" y="80" type="curve" smooth="yes"/>
      <point x="117" y="86"/>
      <point x="114" y="91"/>
      <point x="108" y="94" type="curve"/>
      <point x="102" y="99"/>
      <point x="95" y="101"/>
      <point x="86" y="101" type="curve" smooth="yes"/>
      <point x="79" y="101"/>
      <point x="74" y="98"/>
      <point x="69" y="92" type="curve"/>
      <point x="66" y="85"/>
      <point x="64" y="76"/>
      <point x="64" y="67" type="curve" smooth="yes"/>
      <point x="64" y="-11" type="line"/>
    </contour>
  </outline>
</glyph>
<glyph name="six" format="1">
  <advance width="643"/>
  <unicode hex="0036"/>
  <outline>
    <contour>
      <point x="209" y="44" type="line" name="hr00" smooth="yes"/>
      <point x="198" y="44"/>
      <point x="190" y="47"/>
      <point x="183" y="53" type="curve" smooth="yes"/>
      <point x="178" y="58"/>
      <point x="175" y="65"/>
      <point x="175" y="74" type="curve" smooth="yes"/>
      <point x="175" y="254" type="line" smooth="yes"/>
      <point x="175" y="263"/>
      <point x="178" y="272"/>
      <point x="185" y="279" type="curve"/>
      <point x="193" y="285"/>
      <point x="203" y="288"/>
      <point x="216" y="288" type="curve" smooth="yes"/>
      <point x="441" y="288" type="line" smooth="yes"/>
      <point x="450" y="288"/>
      <point x="458" y="284"/>
      <point x="465" y="277" type="curve" smooth="yes"/>
      <point x="472" y="268"/>
      <point x="475" y="258"/>
      <point x="475" y="247" type="curve" smooth="yes"/>
      <point x="475" y="67" type="line" smooth="yes"/>
      <point x="475" y="60"/>
      <point x="472" y="54"/>
      <point x="467" y="51" type="curve"/>
      <point x="462" y="46"/>
      <point x="454" y="44"/>
      <point x="443" y="44" type="curve" smooth="yes"/>
    </contour>
    <contour>
      <point x="502" y="-11" type="line" smooth="yes"/>
      <point x="526" y="-11"/>
      <point x="546" y="-5"/>
      <point x="563" y="11" type="curve" smooth="yes"/>
      <point x="578" y="26"/>
      <point x="585" y="43"/>
      <point x="585" y="62" type="curve" smooth="yes"/>
      <point x="585" y="270" type="line" smooth="yes"/>
      <point x="585" y="291"/>
      <point x="576" y="308"/>
      <point x="558" y="321" type="curve" smooth="yes"/>
      <point x="539" y="334"/>
      <point x="517" y="341"/>
      <point x="492" y="341" type="curve" smooth="yes"/>
      <point x="196" y="341" type="line" smooth="yes"/>
      <point x="193" y="341"/>
      <point x="189" y="340"/>
      <point x="184" y="339" type="curve" smooth="yes"/>
      <point x="180" y="338"/>
      <point x="177" y="336"/>
      <point x="175" y="334" type="curve"/>
      <point x="175" y="438" type="line" smooth="yes"/>
      <point x="175" y="445"/>
      <point x="177" y="450"/>
      <point x="182" y="454" type="curve" smooth="yes"/>
      <point x="188" y="460"/>
      <point x="195" y="463"/>
      <point x="203" y="463" type="curve" smooth="yes"/>
      <point x="544" y="463" type="line" smooth="yes"/>
      <point x="549" y="463"/>
      <point x="553" y="461"/>
      <point x="556" y="456" type="curve" smooth="yes"/>
      <point x="559" y="453"/>
      <point x="560" y="450"/>
      <point x="560" y="447" type="curve"/>
      <point x="555" y="447"/>
      <point x="549" y="445"/>
      <point x="543" y="441" type="curve" smooth="yes"/>
      <point x="536" y="437"/>
      <point x="532" y="432"/>
      <point x="532" y="426" type="curve" smooth="yes"/>
      <point x="532" y="420"/>
      <point x="536" y="415"/>
      <point x="543" y="411" type="curve" smooth="yes"/>
      <point x="549" y="407"/>
      <point x="556" y="405"/>
      <point x="564" y="405" type="curve" smooth="yes"/>
      <point x="571" y="405"/>
      <point x="576" y="408"/>
      <point x="581" y="414" type="curve"/>
      <point x="584" y="421"/>
      <point x="585" y="429"/>
      <point x="585" y="438" type="curve" smooth="yes"/>
      <point x="585" y="516" type="line"/>
      <point x="131" y="516" type="line" smooth="yes"/>
      <point x="113" y="516"/>
      <point x="97" y="511"/>
      <point x="84" y="500" type="curve" smooth="yes"/>
      <point x="71" y="489"/>
      <point x="64" y="475"/>
      <point x="64" y="460" type="curve" smooth="yes"/>
      <point x="64" y="62" type="line" smooth="yes"/>
      <point x="64" y="43"/>
      <point x="71" y="26"/>
      <point x="84" y="11" type="curve" smooth="yes"/>
      <point x="97" y="-4"/>
      <point x="113" y="-11"/>
      <point x="131" y="-11" type="curve" smooth="yes"/>
    </contour>
  </outline>
</glyph>
<glyph name="seven" format="1">
  <advance width="643"/>
  <unicode hex="0037"/>
  <outline>
    <contour>
      <point x="128" y="-11" type="line" name="hr00"/>
      <point x="249" y="-11" type="line"/>
      <point x="540" y="360" type="line" smooth="yes"/>
      <point x="554" y="377"/>
      <point x="565" y="393"/>
      <point x="574" y="408" type="curve" smooth="yes"/>
      <point x="581" y="421"/>
      <point x="585" y="433"/>
      <point x="585" y="443" type="curve" smooth="yes"/>
      <point x="585" y="464"/>
      <point x="577" y="481"/>
      <point x="561" y="494" type="curve" smooth="yes"/>
      <point x="543" y="509"/>
      <point x="522" y="516"/>
      <point x="499" y="516" type="curve" smooth="yes"/>
      <point x="64" y="516" type="line"/>
      <point x="64" y="438" type="line" smooth="yes"/>
      <point x="64" y="429"/>
      <point x="67" y="421"/>
      <point x="73" y="414" type="curve" smooth="yes"/>
      <point x="78" y="408"/>
      <point x="84" y="405"/>
      <point x="92" y="405" type="curve" smooth="yes"/>
      <point x="99" y="405"/>
      <point x="106" y="408"/>
      <point x="111" y="413" type="curve" smooth="yes"/>
      <point x="115" y="418"/>
      <point x="117" y="424"/>
      <point x="117" y="431" type="curve" smooth="yes"/>
      <point x="117" y="436"/>
      <point x="115" y="440"/>
      <point x="110" y="443" type="curve" smooth="yes"/>
      <point x="105" y="446"/>
      <point x="101" y="447"/>
      <point x="97" y="447" type="curve"/>
      <point x="97" y="449"/>
      <point x="99" y="452"/>
      <point x="104" y="456" type="curve"/>
      <point x="108" y="461"/>
      <point x="113" y="463"/>
      <point x="118" y="463" type="curve" smooth="yes"/>
      <point x="448" y="463" type="line" smooth="yes"/>
      <point x="455" y="463"/>
      <point x="462" y="460"/>
      <point x="467" y="454" type="curve"/>
      <point x="472" y="450"/>
      <point x="475" y="445"/>
      <point x="475" y="438" type="curve" smooth="yes"/>
      <point x="475" y="434"/>
      <point x="472" y="428"/>
      <point x="468" y="421" type="curve" smooth="yes"/>
      <point x="465" y="415"/>
      <point x="459" y="406"/>
      <point x="451" y="393" type="curve"/>
      <point x="128" y="-5" type="line"/>
    </contour>
  </outline>
</glyph>
<glyph name="eight" format="1">
  <advance width="643"/>
  <unicode hex="0038"/>
  <outline>
    <contour>
      <point x="119" y="-2" type="curve" name="hr00"/>
      <point x="511" y="-2" type="line" smooth="yes"/>
      <point x="528" y="-2"/>
      <point x="543" y="3"/>
      <point x="554" y="13" type="curve" smooth="yes"/>
      <point x="565" y="24"/>
      <point x="570" y="37"/>
      <point x="570" y="52" type="curve" smooth="yes"/>
      <point x="570" y="202" type="line" smooth="yes"/>
      <point x="570" y="219"/>
      <point x="566" y="234"/>
      <point x="557" y="247" type="curve" smooth="yes"/>
      <point x="548" y="260"/>
      <point x="543" y="266"/>
      <point x="543" y="266" type="curve"/>
      <point x="543" y="271"/>
      <point x="548" y="278"/>
      <point x="557" y="288" type="curve" smooth="yes"/>
      <point x="566" y="300"/>
      <point x="570" y="313"/>
      <point x="570" y="327" type="curve" smooth="yes"/>
      <point x="570" y="454" type="line" smooth="yes"/>
      <point x="570" y="470"/>
      <point x="565" y="483"/>
      <point x="554" y="492" type="curve" smooth="yes"/>
      <point x="543" y="502"/>
      <point x="528" y="507"/>
      <point x="511" y="507" type="curve" smooth="yes"/>
      <point x="124" y="507" type="line" smooth="yes"/>
      <point x="107" y="507"/>
      <point x="93" y="502"/>
      <point x="80" y="492" type="curve" smooth="yes"/>
      <point x="69" y="483"/>
      <point x="64" y="470"/>
      <point x="64" y="454" type="curve" smooth="yes"/>
      <point x="64" y="327" type="line" smooth="yes"/>
      <point x="64" y="313"/>
      <point x="68" y="300"/>
      <point x="77" y="288" type="curve" smooth="yes"/>
      <point x="86" y="278"/>
      <point x="91" y="273"/>
      <point x="91" y="273" type="curve"/>
      <point x="91" y="268"/>
      <point x="86" y="261"/>
      <point x="77" y="251" type="curve" smooth="yes"/>
      <point x="68" y="240"/>
      <point x="64" y="227"/>
      <point x="64" y="214" type="curve" smooth="yes"/>
      <point x="64" y="52" type="line" smooth="yes"/>
      <point x="64" y="37"/>
      <point x="69" y="24"/>
      <point x="80" y="13" type="curve"/>
      <point x="93" y="3"/>
      <point x="106" y="-2"/>
    </contour>
    <contour>
      <point x="210" y="44" type="line" smooth="yes"/>
      <point x="201" y="44"/>
      <point x="192" y="47"/>
      <point x="184" y="52" type="curve" smooth="yes"/>
      <point x="176" y="57"/>
      <point x="172" y="61"/>
      <point x="172" y="64" type="curve"/>
      <point x="179" y="64"/>
      <point x="186" y="65"/>
      <point x="193" y="68" type="curve"/>
      <point x="201" y="74"/>
      <point x="205" y="80"/>
      <point x="205" y="87" type="curve" smooth="yes"/>
      <point x="205" y="92"/>
      <point x="203" y="97"/>
      <point x="198" y="100" type="curve"/>
      <point x="197" y="104"/>
      <point x="194" y="106"/>
      <point x="189" y="106" type="curve" smooth="yes"/>
      <point x="182" y="106"/>
      <point x="176" y="105"/>
      <point x="170" y="104" type="curve"/>
      <point x="165" y="101"/>
      <point x="164" y="103"/>
      <point x="166" y="108" type="curve"/>
      <point x="166" y="218" type="line" smooth="yes"/>
      <point x="166" y="225"/>
      <point x="169" y="230"/>
      <point x="175" y="235" type="curve"/>
      <point x="180" y="241"/>
      <point x="187" y="244"/>
      <point x="195" y="244" type="curve" smooth="yes"/>
      <point x="439" y="244" type="line" smooth="yes"/>
      <point x="447" y="244"/>
      <point x="454" y="241"/>
      <point x="459" y="235" type="curve" smooth="yes"/>
      <point x="464" y="230"/>
      <point x="467" y="225"/>
      <point x="467" y="218" type="curve" smooth="yes"/>
      <point x="467" y="67" type="line" smooth="yes"/>
      <point x="467" y="60"/>
      <point x="464" y="54"/>
      <point x="459" y="51" type="curve"/>
      <point x="454" y="46"/>
      <point x="447" y="44"/>
      <point x="439" y="44" type="curve" smooth="yes"/>
    </contour>
    <contour>
      <point x="210" y="297" type="line" smooth="yes"/>
      <point x="201" y="297"/>
      <point x="192" y="300"/>
      <point x="184" y="305" type="curve" smooth="yes"/>
      <point x="176" y="310"/>
      <point x="172" y="315"/>
      <point x="172" y="319" type="curve"/>
      <point x="179" y="319"/>
      <point x="186" y="321"/>
      <point x="192" y="324" type="curve" smooth="yes"/>
      <point x="201" y="327"/>
      <point x="205" y="331"/>
      <point x="205" y="338" type="curve" smooth="yes"/>
      <point x="205" y="344"/>
      <point x="204" y="349"/>
      <point x="201" y="353" type="curve" smooth="yes"/>
      <point x="198" y="358"/>
      <point x="194" y="361"/>
      <point x="189" y="361" type="curve" smooth="yes"/>
      <point x="182" y="361"/>
      <point x="176" y="360"/>
      <point x="170" y="359" type="curve"/>
      <point x="165" y="354"/>
      <point x="164" y="355"/>
      <point x="166" y="361" type="curve"/>
      <point x="166" y="438" type="line" smooth="yes"/>
      <point x="166" y="445"/>
      <point x="169" y="450"/>
      <point x="175" y="454" type="curve"/>
      <point x="180" y="460"/>
      <point x="187" y="463"/>
      <point x="195" y="463" type="curve" smooth="yes"/>
      <point x="439" y="463" type="line" smooth="yes"/>
      <point x="447" y="463"/>
      <point x="454" y="460"/>
      <point x="459" y="454" type="curve"/>
      <point x="464" y="450"/>
      <point x="467" y="445"/>
      <point x="467" y="438" type="curve" smooth="yes"/>
      <point x="467" y="323" type="line" smooth="yes"/>
      <point x="467" y="316"/>
      <point x="464" y="310"/>
      <point x="457" y="305" type="curve" smooth="yes"/>
      <point x="451" y="300"/>
      <point x="443" y="297"/>
      <point x="434" y="297" type="curve" smooth="yes"/>
    </contour>
  </outline>
</glyph>
<glyph name="nine" format="1">
  <advance width="643"/>
  <unicode hex="0039"/>
  <outline>
    <contour>
      <point x="218" y="240" type="line" name="hr00" smooth="yes"/>
      <point x="209" y="240"/>
      <point x="200" y="243"/>
      <point x="192" y="248" type="curve" smooth="yes"/>
      <point x="185" y="253"/>
      <point x="181" y="257"/>
      <point x="181" y="260" type="curve"/>
      <point x="188" y="260"/>
      <point x="194" y="262"/>
      <point x="201" y="266" type="curve" smooth="yes"/>
      <point x="209" y="270"/>
      <point x="213" y="275"/>
      <point x="213" y="281" type="curve" smooth="yes"/>
      <point x="213" y="286"/>
      <point x="211" y="290"/>
      <point x="208" y="295" type="curve" smooth="yes"/>
      <point x="205" y="300"/>
      <point x="201" y="302"/>
      <point x="196" y="302" type="curve" smooth="yes"/>
      <point x="189" y="302"/>
      <point x="183" y="301"/>
      <point x="178" y="299" type="curve" smooth="yes"/>
      <point x="173" y="296"/>
      <point x="172" y="298"/>
      <point x="175" y="305" type="curve"/>
      <point x="175" y="438" type="line" smooth="yes"/>
      <point x="175" y="445"/>
      <point x="177" y="450"/>
      <point x="182" y="454" type="curve" smooth="yes"/>
      <point x="188" y="460"/>
      <point x="195" y="463"/>
      <point x="203" y="463" type="curve" smooth="yes"/>
      <point x="448" y="463" type="line" smooth="yes"/>
      <point x="455" y="463"/>
      <point x="462" y="460"/>
      <point x="467" y="454" type="curve"/>
      <point x="472" y="450"/>
      <point x="475" y="445"/>
      <point x="475" y="438" type="curve" smooth="yes"/>
      <point x="475" y="264" type="line" smooth="yes"/>
      <point x="475" y="258"/>
      <point x="472" y="252"/>
      <point x="465" y="247" type="curve" smooth="yes"/>
      <point x="458" y="242"/>
      <point x="450" y="240"/>
      <point x="441" y="240" type="curve" smooth="yes"/>
    </contour>
    <contour>
      <point x="64" y="-11" type="line"/>
      <point x="518" y="-11" type="line" smooth="yes"/>
      <point x="537" y="-11"/>
      <point x="554" y="-6"/>
      <point x="567" y="5" type="curve"/>
      <point x="579" y="18"/>
      <point x="585" y="31"/>
      <point x="585" y="46" type="curve" smooth="yes"/>
      <point x="585" y="443" type="line" smooth="yes"/>
      <point x="585" y="464"/>
      <point x="579" y="481"/>
      <point x="567" y="494" type="curve" smooth="yes"/>
      <point x="554" y="509"/>
      <point x="537" y="516"/>
      <point x="518" y="516" type="curve" smooth="yes"/>
      <point x="144" y="516" type="line" smooth="yes"/>
      <point x="123" y="516"/>
      <point x="105" y="508"/>
      <point x="88" y="494" type="curve" smooth="yes"/>
      <point x="72" y="480"/>
      <point x="64" y="464"/>
      <point x="64" y="443" type="curve" smooth="yes"/>
      <point x="64" y="254" type="line" smooth="yes"/>
      <point x="64" y="235"/>
      <point x="71" y="219"/>
      <point x="86" y="206" type="curve" smooth="yes"/>
      <point x="101" y="193"/>
      <point x="118" y="186"/>
      <point x="138" y="186" type="curve" smooth="yes"/>
      <point x="454" y="186" type="line" smooth="yes"/>
      <point x="459" y="186"/>
      <point x="463" y="187"/>
      <point x="467" y="189" type="curve" smooth="yes"/>
      <point x="472" y="192"/>
      <point x="475" y="194"/>
      <point x="475" y="194" type="curve"/>
      <point x="475" y="67" type="line" smooth="yes"/>
      <point x="475" y="60"/>
      <point x="472" y="54"/>
      <point x="467" y="51" type="curve"/>
      <point x="462" y="46"/>
      <point x="455" y="44"/>
      <point x="448" y="44" type="curve" smooth="yes"/>
      <point x="106" y="44" type="line" smooth="yes"/>
      <point x="102" y="44"/>
      <point x="98" y="46"/>
      <point x="93" y="49" type="curve"/>
      <point x="91" y="52"/>
      <point x="90" y="56"/>
      <point x="90" y="59" type="curve"/>
      <point x="96" y="59"/>
      <point x="102" y="61"/>
      <point x="108" y="65" type="curve" smooth="yes"/>
      <point x="114" y="68"/>
      <point x="117" y="73"/>
      <point x="117" y="80" type="curve" smooth="yes"/>
      <point x="117" y="86"/>
      <point x="114" y="91"/>
      <point x="108" y="94" type="curve"/>
      <point x="102" y="99"/>
      <point x="95" y="101"/>
      <point x="86" y="101" type="curve" smooth="yes"/>
      <point x="79" y="101"/>
      <point x="74" y="98"/>
      <point x="69" y="92" type="curve"/>
      <point x="66" y="85"/>
      <point x="64" y="76"/>
      <point x="64" y="67" type="curve" smooth="yes"/>
      <point x="64" y="-6" type="line"/>
    </contour>
  </outline>
</glyph>
<glyph name="colon" format="1">
  <advance width="297"/>
  <unicode hex="003A"/>
  <outline>
    <contour>
      <point x="218" y="251" type="line" name="hr00" smooth="yes"/>
      <point x="225" y="251"/>
      <point x="231" y="253"/>
      <point x="235" y="257" type="curve"/>
      <point x="240" y="260"/>
      <point x="243" y="265"/>
      <point x="243" y="271" type="curve" smooth="yes"/>
      <point x="243" y="276"/>
      <point x="242" y="281"/>
      <point x="239" y="284" type="curve" smooth="yes"/>
      <point x="237" y="287"/>
      <point x="234" y="288"/>
      <point x="231" y="288" type="curve" smooth="yes"/>
      <point x="226" y="288"/>
      <point x="221" y="287"/>
      <point x="217" y="285" type="curve" smooth="yes"/>
      <point x="213" y="283"/>
      <point x="211" y="280"/>
      <point x="211" y="277" type="curve"/>
      <point x="208" y="277"/>
      <point x="205" y="279"/>
      <point x="203" y="282" type="curve" smooth="yes"/>
      <point x="200" y="285"/>
      <point x="198" y="290"/>
      <point x="198" y="295" type="curve" smooth="yes"/>
      <point x="198" y="334" type="line" smooth="yes"/>
      <point x="198" y="339"/>
      <point x="200" y="343"/>
      <point x="203" y="348" type="curve" smooth="yes"/>
      <point x="205" y="352"/>
      <point x="208" y="354"/>
      <point x="211" y="354" type="curve"/>
      <point x="211" y="350"/>
      <point x="213" y="347"/>
      <point x="217" y="345" type="curve" smooth="yes"/>
      <point x="221" y="342"/>
      <point x="226" y="340"/>
      <point x="231" y="340" type="curve" smooth="yes"/>
      <point x="234" y="340"/>
      <point x="237" y="342"/>
      <point x="239" y="346" type="curve" smooth="yes"/>
      <point x="242" y="351"/>
      <point x="243" y="356"/>
      <point x="243" y="361" type="curve" smooth="yes"/>
      <point x="243" y="367"/>
      <point x="240" y="371"/>
      <point x="235" y="374" type="curve" smooth="yes"/>
      <point x="231" y="377"/>
      <point x="225" y="379"/>
      <point x="218" y="379" type="curve" smooth="yes"/>
      <point x="76" y="379" type="line" smooth="yes"/>
      <point x="69" y="379"/>
      <point x="63" y="377"/>
      <point x="59" y="374" type="curve" smooth="yes"/>
      <point x="54" y="371"/>
      <point x="51" y="367"/>
      <point x="51" y="361" type="curve" smooth="yes"/>
      <point x="51" y="356"/>
      <point x="53" y="351"/>
      <point x="56" y="346" type="curve"/>
      <point x="60" y="342"/>
      <point x="64" y="340"/>
      <point x="69" y="340" type="curve" smooth="yes"/>
      <point x="73" y="340"/>
      <point x="76" y="342"/>
      <point x="79" y="345" type="curve" smooth="yes"/>
      <point x="82" y="347"/>
      <point x="84" y="350"/>
      <point x="84" y="354" type="curve"/>
      <point x="87" y="354"/>
      <point x="90" y="352"/>
      <point x="92" y="348" type="curve" smooth="yes"/>
      <point x="95" y="343"/>
      <point x="97" y="339"/>
      <point x="97" y="334" type="curve" smooth="yes"/>
      <point x="97" y="295" type="line" smooth="yes"/>
      <point x="97" y="290"/>
      <point x="95" y="285"/>
      <point x="92" y="282" type="curve" smooth="yes"/>
      <point x="90" y="279"/>
      <point x="87" y="277"/>
      <point x="84" y="277" type="curve"/>
      <point x="84" y="280"/>
      <point x="82" y="283"/>
      <point x="79" y="285" type="curve" smooth="yes"/>
      <point x="76" y="287"/>
      <point x="73" y="288"/>
      <point x="69" y="288" type="curve" smooth="yes"/>
      <point x="64" y="288"/>
      <point x="60" y="287"/>
      <point x="56" y="284" type="curve" smooth="yes"/>
      <point x="53" y="281"/>
      <point x="51" y="276"/>
      <point x="51" y="271" type="curve" smooth="yes"/>
      <point x="51" y="265"/>
      <point x="54" y="260"/>
      <point x="59" y="257" type="curve"/>
      <point x="63" y="253"/>
      <point x="69" y="251"/>
      <point x="76" y="251" type="curve" smooth="yes"/>
    </contour>
    <contour>
      <point x="218" y="-6" type="line" smooth="yes"/>
      <point x="225" y="-6"/>
      <point x="231" y="-4"/>
      <point x="235" y="-1" type="curve" smooth="yes"/>
      <point x="240" y="3"/>
      <point x="243" y="8"/>
      <point x="243" y="13" type="curve" smooth="yes"/>
      <point x="243" y="19"/>
      <point x="242" y="24"/>
      <point x="239" y="27" type="curve"/>
      <point x="237" y="31"/>
      <point x="234" y="33"/>
      <point x="231" y="33" type="curve" smooth="yes"/>
      <point x="226" y="33"/>
      <point x="221" y="31"/>
      <point x="217" y="28" type="curve" smooth="yes"/>
      <point x="213" y="26"/>
      <point x="211" y="23"/>
      <point x="211" y="18" type="curve"/>
      <point x="208" y="18"/>
      <point x="205" y="20"/>
      <point x="203" y="25" type="curve"/>
      <point x="200" y="29"/>
      <point x="198" y="34"/>
      <point x="198" y="39" type="curve" smooth="yes"/>
      <point x="198" y="78" type="line" smooth="yes"/>
      <point x="198" y="83"/>
      <point x="200" y="88"/>
      <point x="203" y="92" type="curve" smooth="yes"/>
      <point x="205" y="96"/>
      <point x="208" y="98"/>
      <point x="211" y="98" type="curve"/>
      <point x="211" y="94"/>
      <point x="213" y="91"/>
      <point x="217" y="88" type="curve" smooth="yes"/>
      <point x="221" y="86"/>
      <point x="226" y="85"/>
      <point x="231" y="85" type="curve" smooth="yes"/>
      <point x="234" y="85"/>
      <point x="237" y="86"/>
      <point x="239" y="89" type="curve" smooth="yes"/>
      <point x="242" y="93"/>
      <point x="243" y="98"/>
      <point x="243" y="104" type="curve" smooth="yes"/>
      <point x="243" y="109"/>
      <point x="240" y="114"/>
      <point x="235" y="117" type="curve" smooth="yes"/>
      <point x="231" y="120"/>
      <point x="225" y="121"/>
      <point x="218" y="121" type="curve" smooth="yes"/>
      <point x="76" y="121" type="line" smooth="yes"/>
      <point x="69" y="121"/>
      <point x="63" y="120"/>
      <point x="59" y="117" type="curve" smooth="yes"/>
      <point x="54" y="114"/>
      <point x="51" y="109"/>
      <point x="51" y="104" type="curve" smooth="yes"/>
      <point x="51" y="98"/>
      <point x="53" y="93"/>
      <point x="56" y="89" type="curve"/>
      <point x="60" y="86"/>
      <point x="64" y="85"/>
      <point x="69" y="85" type="curve" smooth="yes"/>
      <point x="73" y="85"/>
      <point x="76" y="86"/>
      <point x="79" y="88" type="curve" smooth="yes"/>
      <point x="82" y="91"/>
      <point x="84" y="94"/>
      <point x="84" y="98" type="curve"/>
      <point x="87" y="98"/>
      <point x="90" y="96"/>
      <point x="92" y="92" type="curve" smooth="yes"/>
      <point x="95" y="88"/>
      <point x="97" y="83"/>
      <point x="97" y="78" type="curve" smooth="yes"/>
      <point x="97" y="39" type="line" smooth="yes"/>
      <point x="97" y="34"/>
      <point x="95" y="29"/>
      <point x="92" y="25" type="curve"/>
      <point x="90" y="20"/>
      <point x="87" y="18"/>
      <point x="84" y="18" type="curve"/>
      <point x="84" y="23"/>
      <point x="82" y="26"/>
      <point x="79" y="28" type="curve" smooth="yes"/>
      <point x="76" y="31"/>
      <point x="73" y="33"/>
      <point x="69" y="33" type="curve" smooth="yes"/>
      <point x="64" y="33"/>
      <point x="60" y="31"/>
      <point x="56" y="27" type="curve" smooth="yes"/>
      <point x="53" y="24"/>
      <point x="51" y="19"/>
      <point x="51" y="13" type="curve" smooth="yes"/>
      <point x="51" y="8"/>
      <point x="54" y="3"/>
      <point x="59" y="-1" type="curve" smooth="yes"/>
      <point x="63" y="-4"/>
      <point x="69" y="-6"/>
      <point x="76" y="-6" type="curve" smooth="yes"/>
    </contour>
  </outline>
</glyph>
<glyph name="semicolon" format="1">
  <advance width="350"/>
  <unicode hex="003B"/>
  <outline>
    <contour>
      <point x="271" y="251" type="line" smooth="yes" name="hr00"/>
      <point x="278" y="251"/>
      <point x="284" y="253"/>
      <point x="288" y="257" type="curve"/>
      <point x="293" y="260"/>
      <point x="296" y="265"/>
      <point x="296" y="271" type="curve" smooth="yes"/>
      <point x="296" y="276"/>
      <point x="295" y="281"/>
      <point x="292" y="284" type="curve" smooth="yes"/>
      <point x="290" y="287"/>
      <point x="287" y="288"/>
      <point x="284" y="288" type="curve" smooth="yes"/>
      <point x="279" y="288"/>
      <point x="274" y="287"/>
      <point x="270" y="285" type="curve" smooth="yes"/>
      <point x="266" y="283"/>
      <point x="264" y="280"/>
      <point x="264" y="277" type="curve"/>
      <point x="261" y="277"/>
      <point x="258" y="279"/>
      <point x="256" y="282" type="curve" smooth="yes"/>
      <point x="253" y="285"/>
      <point x="251" y="290"/>
      <point x="251" y="295" type="curve" smooth="yes"/>
      <point x="251" y="334" type="line" smooth="yes"/>
      <point x="251" y="339"/>
      <point x="253" y="343"/>
      <point x="256" y="348" type="curve" smooth="yes"/>
      <point x="258" y="352"/>
      <point x="261" y="354"/>
      <point x="264" y="354" type="curve"/>
      <point x="264" y="350"/>
      <point x="266" y="347"/>
      <point x="270" y="345" type="curve" smooth="yes"/>
      <point x="274" y="342"/>
      <point x="279" y="340"/>
      <point x="284" y="340" type="curve" smooth="yes"/>
      <point x="287" y="340"/>
      <point x="290" y="342"/>
      <point x="292" y="346" type="curve" smooth="yes"/>
      <point x="295" y="351"/>
      <point x="296" y="356"/>
      <point x="296" y="361" type="curve" smooth="yes"/>
      <point x="296" y="367"/>
      <point x="293" y="371"/>
      <point x="288" y="374" type="curve" smooth="yes"/>
      <point x="284" y="377"/>
      <point x="278" y="379"/>
      <point x="271" y="379" type="curve" smooth="yes"/>
      <point x="129" y="379" type="line" smooth="yes"/>
      <point x="122" y="379"/>
      <point x="116" y="377"/>
      <point x="112" y="374" type="curve" smooth="yes"/>
      <point x="107" y="371"/>
      <point x="104" y="367"/>
      <point x="104" y="361" type="curve" smooth="yes"/>
      <point x="104" y="356"/>
      <point x="106" y="351"/>
      <point x="109" y="346" type="curve"/>
      <point x="113" y="342"/>
      <point x="117" y="340"/>
      <point x="122" y="340" type="curve" smooth="yes"/>
      <point x="126" y="340"/>
      <point x="129" y="342"/>
      <point x="132" y="345" type="curve" smooth="yes"/>
      <point x="135" y="347"/>
      <point x="137" y="350"/>
      <point x="137" y="354" type="curve"/>
      <point x="140" y="354"/>
      <point x="143" y="352"/>
      <point x="145" y="348" type="curve" smooth="yes"/>
      <point x="148" y="343"/>
      <point x="150" y="339"/>
      <point x="150" y="334" type="curve" smooth="yes"/>
      <point x="150" y="295" type="line" smooth="yes"/>
      <point x="150" y="290"/>
      <point x="148" y="285"/>
      <point x="145" y="282" type="curve" smooth="yes"/>
      <point x="143" y="279"/>
      <point x="140" y="277"/>
      <point x="137" y="277" type="curve"/>
      <point x="137" y="280"/>
      <point x="135" y="283"/>
      <point x="132" y="285" type="curve" smooth="yes"/>
      <point x="129" y="287"/>
      <point x="126" y="288"/>
      <point x="122" y="288" type="curve" smooth="yes"/>
      <point x="117" y="288"/>
      <point x="113" y="287"/>
      <point x="109" y="284" type="curve" smooth="yes"/>
      <point x="106" y="281"/>
      <point x="104" y="276"/>
      <point x="104" y="271" type="curve" smooth="yes"/>
      <point x="104" y="265"/>
      <point x="107" y="260"/>
      <point x="112" y="257" type="curve"/>
      <point x="116" y="253"/>
      <point x="122" y="251"/>
      <point x="129" y="251" type="curve" smooth="yes"/>
    </contour>
    <contour>
      <point x="199" y="-45" type="line" smooth="yes"/>
      <point x="199" y="-52"/>
      <point x="198" y="-58"/>
      <point x="195" y="-64" type="curve" smooth="yes"/>
      <point x="192" y="-69"/>
      <point x="187" y="-71"/>
      <point x="181" y="-71" type="curve" smooth="yes"/>
      <point x="143" y="-71" type="line"/>
      <point x="143" y="-66"/>
      <point x="141" y="-61"/>
      <point x="138" y="-56" type="curve"/>
      <point x="133" y="-53"/>
      <point x="127" y="-52"/>
      <point x="122" y="-52" type="curve" smooth="yes"/>
      <point x="117" y="-52"/>
      <point x="113" y="-55"/>
      <point x="109" y="-60" type="curve" smooth="yes"/>
      <point x="106" y="-64"/>
      <point x="104" y="-70"/>
      <point x="104" y="-77" type="curve" smooth="yes"/>
      <point x="104" y="-86"/>
      <point x="107" y="-94"/>
      <point x="113" y="-101" type="curve"/>
      <point x="119" y="-106"/>
      <point x="127" y="-109"/>
      <point x="137" y="-109" type="curve" smooth="yes"/>
      <point x="199" y="-109" type="line" smooth="yes"/>
      <point x="214" y="-109"/>
      <point x="226" y="-105"/>
      <point x="236" y="-97" type="curve"/>
      <point x="246" y="-87"/>
      <point x="251" y="-76"/>
      <point x="251" y="-65" type="curve" smooth="yes"/>
      <point x="251" y="78" type="line" smooth="yes"/>
      <point x="251" y="83"/>
      <point x="253" y="88"/>
      <point x="256" y="92" type="curve" smooth="yes"/>
      <point x="258" y="96"/>
      <point x="261" y="98"/>
      <point x="264" y="98" type="curve"/>
      <point x="264" y="94"/>
      <point x="266" y="91"/>
      <point x="270" y="88" type="curve" smooth="yes"/>
      <point x="274" y="86"/>
      <point x="279" y="85"/>
      <point x="284" y="85" type="curve" smooth="yes"/>
      <point x="287" y="85"/>
      <point x="290" y="86"/>
      <point x="292" y="89" type="curve" smooth="yes"/>
      <point x="295" y="93"/>
      <point x="296" y="98"/>
      <point x="296" y="104" type="curve" smooth="yes"/>
      <point x="296" y="109"/>
      <point x="293" y="114"/>
      <point x="288" y="117" type="curve" smooth="yes"/>
      <point x="284" y="120"/>
      <point x="278" y="121"/>
      <point x="271" y="121" type="curve" smooth="yes"/>
      <point x="129" y="121" type="line" smooth="yes"/>
      <point x="122" y="121"/>
      <point x="116" y="120"/>
      <point x="112" y="117" type="curve" smooth="yes"/>
      <point x="107" y="114"/>
      <point x="104" y="109"/>
      <point x="104" y="104" type="curve" smooth="yes"/>
      <point x="104" y="98"/>
      <point x="106" y="93"/>
      <point x="109" y="89" type="curve"/>
      <point x="113" y="86"/>
      <point x="117" y="85"/>
      <point x="122" y="85" type="curve" smooth="yes"/>
      <point x="126" y="85"/>
      <point x="129" y="86"/>
      <point x="132" y="88" type="curve" smooth="yes"/>
      <point x="135" y="91"/>
      <point x="137" y="94"/>
      <point x="137" y="98" type="curve"/>
      <point x="140" y="98"/>
      <point x="143" y="96"/>
      <point x="145" y="92" type="curve" smooth="yes"/>
      <point x="148" y="88"/>
      <point x="150" y="83"/>
      <point x="150" y="78" type="curve" smooth="yes"/>
      <point x="150" y="39" type="line" smooth="yes"/>
      <point x="150" y="34"/>
      <point x="148" y="29"/>
      <point x="145" y="25" type="curve"/>
      <point x="143" y="20"/>
      <point x="140" y="18"/>
      <point x="137" y="18" type="curve"/>
      <point x="137" y="23"/>
      <point x="135" y="26"/>
      <point x="132" y="28" type="curve" smooth="yes"/>
      <point x="129" y="31"/>
      <point x="126" y="33"/>
      <point x="122" y="33" type="curve" smooth="yes"/>
      <point x="117" y="33"/>
      <point x="113" y="31"/>
      <point x="109" y="27" type="curve" smooth="yes"/>
      <point x="106" y="24"/>
      <point x="104" y="19"/>
      <point x="104" y="13" type="curve" smooth="yes"/>
      <point x="104" y="8"/>
      <point x="107" y="3"/>
      <point x="112" y="-1" type="curve" smooth="yes"/>
      <point x="116" y="-4"/>
      <point x="122" y="-6"/>
      <point x="129" y="-6" type="curve" smooth="yes"/>
      <point x="199" y="-6" type="line"/>
    </contour>
  </outline>
</glyph>
<glyph name="less" format="1">
  <advance width="624"/>
  <unicode hex="003C"/>
  <outline>
    <contour>
      <point x="570" y="-86" type="line" name="hr00"/>
      <point x="570" y="-52" type="line"/>
      <point x="192" y="126" type="line"/>
      <point x="570" y="305" type="line"/>
      <point x="570" y="339" type="line"/>
      <point x="51" y="157" type="line"/>
      <point x="51" y="93" type="line"/>
    </contour>
  </outline>
</glyph>
<glyph name="equal" format="1">
  <advance width="490"/>
  <unicode hex="003D"/>
  <outline>
    <contour>
      <point x="437" y="212" type="line" name="hr00"/>
      <point x="437" y="245" type="line"/>
      <point x="51" y="245" type="line"/>
      <point x="51" y="212" type="line"/>
    </contour>
    <contour>
      <point x="437" y="98" type="line"/>
      <point x="437" y="131" type="line"/>
      <point x="51" y="131" type="line"/>
      <point x="51" y="98" type="line"/>
    </contour>
  </outline>
</glyph>
<glyph name="greater" format="1">
  <advance width="624"/>
  <unicode hex="003E"/>
  <outline>
    <contour>
      <point x="570" y="157" type="line" name="hr00"/>
      <point x="51" y="339" type="line"/>
      <point x="51" y="305" type="line"/>
      <point x="430" y="126" type="line"/>
      <point x="51" y="-52" type="line"/>
      <point x="51" y="-86" type="line"/>
      <point x="570" y="93" type="line"/>
    </contour>
  </outline>
</glyph>
<glyph name="question" format="1">
  <advance width="557"/>
  <unicode hex="003F"/>
  <outline>
    <contour>
      <point x="271" y="-6" type="line" name="hr00" smooth="yes"/>
      <point x="278" y="-6"/>
      <point x="284" y="-5"/>
      <point x="288" y="-2" type="curve" smooth="yes"/>
      <point x="293" y="1"/>
      <point x="296" y="4"/>
      <point x="296" y="9" type="curve" smooth="yes"/>
      <point x="296" y="14"/>
      <point x="295" y="17"/>
      <point x="292" y="20" type="curve" smooth="yes"/>
      <point x="290" y="23"/>
      <point x="287" y="25"/>
      <point x="284" y="25" type="curve" smooth="yes"/>
      <point x="279" y="25"/>
      <point x="274" y="24"/>
      <point x="270" y="21" type="curve"/>
      <point x="266" y="20"/>
      <point x="264" y="17"/>
      <point x="264" y="13" type="curve"/>
      <point x="261" y="13"/>
      <point x="258" y="15"/>
      <point x="256" y="19" type="curve"/>
      <point x="253" y="22"/>
      <point x="251" y="26"/>
      <point x="251" y="29" type="curve" smooth="yes"/>
      <point x="251" y="61" type="line" smooth="yes"/>
      <point x="251" y="65"/>
      <point x="253" y="69"/>
      <point x="256" y="72" type="curve" smooth="yes"/>
      <point x="258" y="75"/>
      <point x="261" y="77"/>
      <point x="264" y="77" type="curve"/>
      <point x="264" y="74"/>
      <point x="266" y="71"/>
      <point x="270" y="69" type="curve" smooth="yes"/>
      <point x="274" y="68"/>
      <point x="279" y="67"/>
      <point x="284" y="67" type="curve" smooth="yes"/>
      <point x="287" y="67"/>
      <point x="290" y="68"/>
      <point x="292" y="71" type="curve" smooth="yes"/>
      <point x="295" y="74"/>
      <point x="296" y="77"/>
      <point x="296" y="81" type="curve" smooth="yes"/>
      <point x="296" y="86"/>
      <point x="293" y="89"/>
      <point x="288" y="92" type="curve" smooth="yes"/>
      <point x="284" y="94"/>
      <point x="278" y="95"/>
      <point x="271" y="95" type="curve" smooth="yes"/>
      <point x="129" y="95" type="line" smooth="yes"/>
      <point x="122" y="95"/>
      <point x="116" y="94"/>
      <point x="112" y="92" type="curve" smooth="yes"/>
      <point x="107" y="89"/>
      <point x="104" y="86"/>
      <point x="104" y="81" type="curve" smooth="yes"/>
      <point x="104" y="77"/>
      <point x="106" y="74"/>
      <point x="109" y="71" type="curve" smooth="yes"/>
      <point x="113" y="68"/>
      <point x="117" y="67"/>
      <point x="122" y="67" type="curve" smooth="yes"/>
      <point x="126" y="67"/>
      <point x="129" y="68"/>
      <point x="132" y="69" type="curve" smooth="yes"/>
      <point x="135" y="71"/>
      <point x="137" y="74"/>
      <point x="137" y="77" type="curve"/>
      <point x="140" y="77"/>
      <point x="143" y="75"/>
      <point x="145" y="72" type="curve" smooth="yes"/>
      <point x="148" y="69"/>
      <point x="150" y="65"/>
      <point x="150" y="61" type="curve" smooth="yes"/>
      <point x="150" y="29" type="line" smooth="yes"/>
      <point x="150" y="26"/>
      <point x="148" y="22"/>
      <point x="145" y="19" type="curve"/>
      <point x="143" y="15"/>
      <point x="140" y="13"/>
      <point x="137" y="13" type="curve"/>
      <point x="137" y="17"/>
      <point x="135" y="20"/>
      <point x="132" y="21" type="curve"/>
      <point x="129" y="24"/>
      <point x="126" y="25"/>
      <point x="122" y="25" type="curve" smooth="yes"/>
      <point x="117" y="25"/>
      <point x="113" y="23"/>
      <point x="109" y="20" type="curve" smooth="yes"/>
      <point x="106" y="17"/>
      <point x="104" y="14"/>
      <point x="104" y="9" type="curve" smooth="yes"/>
      <point x="104" y="4"/>
      <point x="107" y="1"/>
      <point x="112" y="-2" type="curve" smooth="yes"/>
      <point x="116" y="-5"/>
      <point x="122" y="-6"/>
      <point x="129" y="-6" type="curve" smooth="yes"/>
    </contour>
    <contour>
      <point x="258" y="149" type="line"/>
      <point x="258" y="205" type="line" smooth="yes"/>
      <point x="258" y="212"/>
      <point x="262" y="217"/>
      <point x="269" y="222" type="curve" smooth="yes"/>
      <point x="277" y="227"/>
      <point x="286" y="230"/>
      <point x="296" y="230" type="curve" smooth="yes"/>
      <point x="444" y="230" type="line" smooth="yes"/>
      <point x="461" y="230"/>
      <point x="475" y="235"/>
      <point x="487" y="245" type="curve" smooth="yes"/>
      <point x="498" y="254"/>
      <point x="503" y="264"/>
      <point x="503" y="277" type="curve" smooth="yes"/>
      <point x="503" y="415" type="line" smooth="yes"/>
      <point x="503" y="427"/>
      <point x="497" y="437"/>
      <point x="484" y="445" type="curve" smooth="yes"/>
      <point x="471" y="453"/>
      <point x="456" y="457"/>
      <point x="438" y="457" type="curve" smooth="yes"/>
      <point x="168" y="457" type="line" smooth="yes"/>
      <point x="151" y="457"/>
      <point x="135" y="453"/>
      <point x="122" y="445" type="curve" smooth="yes"/>
      <point x="110" y="437"/>
      <point x="104" y="427"/>
      <point x="104" y="415" type="curve" smooth="yes"/>
      <point x="104" y="354" type="line"/>
      <point x="212" y="354" type="line" smooth="yes"/>
      <point x="219" y="354"/>
      <point x="226" y="355"/>
      <point x="231" y="358" type="curve"/>
      <point x="236" y="359"/>
      <point x="238" y="361"/>
      <point x="238" y="364" type="curve" smooth="yes"/>
      <point x="238" y="369"/>
      <point x="237" y="373"/>
      <point x="235" y="375" type="curve" smooth="yes"/>
      <point x="232" y="378"/>
      <point x="229" y="380"/>
      <point x="225" y="380" type="curve" smooth="yes"/>
      <point x="220" y="380"/>
      <point x="216" y="379"/>
      <point x="211" y="378" type="curve"/>
      <point x="208" y="375"/>
      <point x="206" y="373"/>
      <point x="206" y="371" type="curve" smooth="yes"/>
      <point x="206" y="395" type="line" smooth="yes"/>
      <point x="206" y="401"/>
      <point x="209" y="406"/>
      <point x="216" y="410" type="curve" smooth="yes"/>
      <point x="222" y="413"/>
      <point x="229" y="415"/>
      <point x="238" y="415" type="curve" smooth="yes"/>
      <point x="368" y="415" type="line" smooth="yes"/>
      <point x="377" y="415"/>
      <point x="384" y="413"/>
      <point x="390" y="410" type="curve" smooth="yes"/>
      <point x="396" y="406"/>
      <point x="399" y="401"/>
      <point x="399" y="395" type="curve" smooth="yes"/>
      <point x="399" y="302" type="line" smooth="yes"/>
      <point x="399" y="294"/>
      <point x="396" y="286"/>
      <point x="389" y="279" type="curve"/>
      <point x="381" y="274"/>
      <point x="372" y="271"/>
      <point x="362" y="271" type="curve" smooth="yes"/>
      <point x="219" y="271" type="line" smooth="yes"/>
      <point x="202" y="271"/>
      <point x="186" y="267"/>
      <point x="172" y="260" type="curve"/>
      <point x="161" y="251"/>
      <point x="155" y="241"/>
      <point x="155" y="230" type="curve" smooth="yes"/>
      <point x="155" y="149" type="line"/>
    </contour>
  </outline>
</glyph>
<glyph name="at" format="1">
  <advance width="632"/>
  <unicode hex="0040"/>
  <outline>
    <contour>
      <point x="351" y="403" type="line" smooth="yes"/>
      <point x="406" y="403"/>
      <point x="450" y="359"/>
      <point x="450" y="304" type="curve" smooth="yes"/>
      <point x="450" y="211" type="line"/>
      <point x="508" y="211" type="line"/>
      <point x="508" y="448" type="line" smooth="yes"/>
      <point x="508" y="458"/>
      <point x="501" y="465"/>
      <point x="492" y="465" type="curve" smooth="yes"/>
      <point x="142" y="465" type="line" smooth="yes"/>
      <point x="133" y="465"/>
      <point x="125" y="458"/>
      <point x="125" y="448" type="curve" smooth="yes"/>
      <point x="125" y="99" type="line" smooth="yes"/>
      <point x="125" y="90"/>
      <point x="133" y="82"/>
      <point x="142" y="82" type="curve" smooth="yes"/>
      <point x="591" y="82" type="line"/>
      <point x="591" y="0" type="line"/>
      <point x="142" y="0" type="line" smooth="yes"/>
      <point x="87" y="0"/>
      <point x="43" y="44"/>
      <point x="43" y="99" type="curve" smooth="yes"/>
      <point x="43" y="448" type="line" smooth="yes"/>
      <point x="43" y="503"/>
      <point x="87" y="547"/>
      <point x="142" y="547" type="curve" smooth="yes"/>
      <point x="492" y="547" type="line" smooth="yes"/>
      <point x="546" y="547"/>
      <point x="591" y="503"/>
      <point x="591" y="448" type="curve" smooth="yes"/>
      <point x="591" y="144" type="line"/>
      <point x="283" y="144" type="line" smooth="yes"/>
      <point x="228" y="144"/>
      <point x="184" y="188"/>
      <point x="184" y="243" type="curve" smooth="yes"/>
      <point x="184" y="304" type="line" smooth="yes"/>
      <point x="184" y="359"/>
      <point x="228" y="403"/>
      <point x="283" y="403" type="curve" smooth="yes"/>
    </contour>
    <contour>
      <point x="383" y="211" type="line"/>
      <point x="383" y="319" type="line" smooth="yes"/>
      <point x="383" y="328"/>
      <point x="375" y="336"/>
      <point x="366" y="336" type="curve" smooth="yes"/>
      <point x="268" y="336" type="line" smooth="yes"/>
      <point x="258" y="336"/>
      <point x="251" y="328"/>
      <point x="251" y="319" type="curve" smooth="yes"/>
      <point x="251" y="228" type="line" smooth="yes"/>
      <point x="251" y="219"/>
      <point x="258" y="211"/>
      <point x="268" y="211" type="curve" smooth="yes"/>
    </contour>
  </outline>
</glyph>
<glyph name="B" format="1">
  <advance width="632"/>
  <unicode hex="0042"/>
  <outline>
    <contour>
      <point x="581" y="275"/>
      <point x="592" y="251"/>
      <point x="592" y="221" type="curve" smooth="yes"/>
      <point x="592" y="99" type="line" smooth="yes"/>
      <point x="592" y="44"/>
      <point x="548" y="0"/>
      <point x="493" y="0" type="curve" smooth="yes"/>
      <point x="45" y="0" type="line"/>
      <point x="45" y="547" type="line"/>
      <point x="470" y="547" type="line" smooth="yes"/>
      <point x="525" y="547"/>
      <point x="569" y="503"/>
      <point x="569" y="448" type="curve" smooth="yes"/>
      <point x="569" y="337" type="line" smooth="yes"/>
      <point x="569" y="322"/>
      <point x="566" y="309"/>
      <point x="559" y="294" type="curve"/>
    </contour>
    <contour>
      <point x="144" y="465" type="line" smooth="yes"/>
      <point x="135" y="465"/>
      <point x="127" y="458"/>
      <point x="127" y="448" type="curve" smooth="yes"/>
      <point x="127" y="337" type="line" smooth="yes"/>
      <point x="127" y="328"/>
      <point x="135" y="320"/>
      <point x="144" y="320" type="curve" smooth="yes"/>
      <point x="470" y="320" type="line" smooth="yes"/>
      <point x="480" y="320"/>
      <point x="487" y="328"/>
      <point x="487" y="337" type="curve" smooth="yes"/>
      <point x="487" y="448" type="line" smooth="yes"/>
      <point x="487" y="458"/>
      <point x="480" y="465"/>
      <point x="470" y="465" type="curve" smooth="yes"/>
    </contour>
    <contour>
      <point x="510" y="221" type="line" smooth="yes"/>
      <point x="510" y="230"/>
      <point x="502" y="238"/>
      <point x="493" y="238" type="curve" smooth="yes"/>
      <point x="144" y="238" type="line" smooth="yes"/>
      <point x="135" y="238"/>
      <point x="127" y="230"/>
      <point x="127" y="221" type="curve" smooth="yes"/>
      <point x="127" y="99" type="line" smooth="yes"/>
      <point x="127" y="90"/>
      <point x="135" y="82"/>
      <point x="144" y="82" type="curve" smooth="yes"/>
      <point x="493" y="82" type="line" smooth="yes"/>
      <point x="502" y="82"/>
      <point x="510" y="90"/>
      <point x="510" y="99" type="curve" smooth="yes"/>
    </contour>
  </outline>
</glyph>
<glyph name="D" format="1">
  <advance width="634"/>
  <unicode hex="0044"/>
  <outline>
    <contour>
      <point x="44" y="547" type="line"/>
      <point x="492" y="547" type="line" smooth="yes"/>
      <point x="547" y="547"/>
      <point x="591" y="503"/>
      <point x="591" y="448" type="curve" smooth="yes"/>
      <point x="591" y="99" type="line" smooth="yes"/>
      <point x="591" y="44"/>
      <point x="547" y="0"/>
      <point x="492" y="0" type="curve" smooth="yes"/>
      <point x="44" y="0" type="line"/>
    </contour>
    <contour>
      <point x="509" y="448" type="line" smooth="yes"/>
      <point x="509" y="458"/>
      <point x="502" y="465"/>
      <point x="492" y="465" type="curve" smooth="yes"/>
      <point x="143" y="465" type="line" smooth="yes"/>
      <point x="134" y="465"/>
      <point x="126" y="458"/>
      <point x="126" y="448" type="curve" smooth="yes"/>
      <point x="126" y="99" type="line" smooth="yes"/>
      <point x="126" y="90"/>
      <point x="134" y="82"/>
      <point x="143" y="82" type="curve" smooth="yes"/>
      <point x="492" y="82" type="line" smooth="yes"/>
      <point x="502" y="82"/>
      <point x="509" y="90"/>
      <point x="509" y="99" type="curve" smooth="yes"/>
    </contour>
  </outline>
</glyph>
<glyph name="E" format="1">
  <advance width="582"/>
  <unicode hex="0045"/>
  <outline>
    <contour>
      <point x="546" y="547" type="line"/>
      <point x="546" y="465" type="line"/>
      <point x="126" y="465" type="line"/>
      <point x="126" y="315" type="line"/>
      <point x="464" y="315" type="line"/>
      <point x="464" y="233" type="line"/>
      <point x="126" y="233" type="line"/>
      <point x="126" y="82" type="line"/>
      <point x="546" y="82" type="line"/>
      <point x="546" y="0" type="line"/>
      <point x="44" y="0" type="line"/>
      <point x="44" y="547" type="line"/>
    </contour>
  </outline>
</glyph>
<glyph name="F" format="1">
  <advance width="549"/>
  <unicode hex="0046"/>
  <outline>
    <contour>
      <point x="44" y="547" type="line"/>
      <point x="546" y="547" type="line"/>
      <point x="546" y="465" type="line"/>
      <point x="126" y="465" type="line"/>
      <point x="126" y="315" type="line"/>
      <point x="464" y="315" type="line"/>
      <point x="464" y="233" type="line"/>
      <point x="126" y="233" type="line"/>
      <point x="126" y="0" type="line"/>
      <point x="44" y="0" type="line"/>
    </contour>
  </outline>
</glyph>
<glyph name="G" format="1">
  <advance width="631"/>
  <unicode hex="0047"/>
  <outline>
    <contour>
      <point x="590" y="416" type="line"/>
      <point x="508" y="416" type="line"/>
      <point x="508" y="448" type="line" smooth="yes"/>
      <point x="508" y="458"/>
      <point x="500" y="465"/>
      <point x="491" y="465" type="curve" smooth="yes"/>
      <point x="141" y="465" type="line" smooth="yes"/>
      <point x="132" y="465"/>
      <point x="125" y="458"/>
      <point x="125" y="448" type="curve" smooth="yes"/>
      <point x="125" y="99" type="line" smooth="yes"/>
      <point x="125" y="90"/>
      <point x="132" y="82"/>
      <point x="141" y="82" type="curve" smooth="yes"/>
      <point x="491" y="82" type="line" smooth="yes"/>
      <point x="500" y="82"/>
      <point x="508" y="90"/>
      <point x="508" y="99" type="curve" smooth="yes"/>
      <point x="508" y="217" type="line"/>
      <point x="378" y="217" type="line"/>
      <point x="378" y="299" type="line"/>
      <point x="590" y="299" type="line"/>
      <point x="590" y="99" type="line" smooth="yes"/>
      <point x="590" y="44"/>
      <point x="546" y="0"/>
      <point x="491" y="0" type="curve" smooth="yes"/>
      <point x="141" y="0" type="line" smooth="yes"/>
      <point x="87" y="0"/>
      <point x="43" y="44"/>
      <point x="43" y="99" type="curve" smooth="yes"/>
      <point x="43" y="448" type="line" smooth="yes"/>
      <point x="43" y="503"/>
      <point x="87" y="547"/>
      <point x="141" y="547" type="curve" smooth="yes"/>
      <point x="491" y="547" type="line" smooth="yes"/>
      <point x="546" y="547"/>
      <point x="590" y="503"/>
      <point x="590" y="448" type="curve" smooth="yes"/>
    </contour>
  </outline>
</glyph>
<glyph name="H" format="1">
  <advance width="647"/>
  <unicode hex="0048"/>
  <outline>
    <contour>
      <point x="521" y="547" type="line"/>
      <point x="603" y="547" type="line"/>
      <point x="603" y="0" type="line"/>
      <point x="521" y="0" type="line"/>
      <point x="521" y="233" type="line"/>
      <point x="125" y="233" type="line"/>
      <point x="125" y="0" type="line"/>
      <point x="43" y="0" type="line"/>
      <point x="43" y="547" type="line"/>
      <point x="125" y="547" type="line"/>
      <point x="125" y="315" type="line"/>
      <point x="521" y="315" type="line"/>
    </contour>
  </outline>
</glyph>
<glyph name="I" format="1">
  <advance width="167"/>
  <unicode hex="0049"/>
  <outline>
    <contour>
      <point x="43" y="0" type="line"/>
      <point x="43" y="547" type="line"/>
      <point x="125" y="547" type="line"/>
      <point x="125" y="0" type="line"/>
    </contour>
  </outline>
</glyph>
<glyph name="J" format="1">
  <advance width="593"/>
  <unicode hex="004A"/>
  <outline>
    <contour>
      <point x="468" y="547" type="line"/>
      <point x="550" y="547" type="line"/>
      <point x="550" y="99" type="line" smooth="yes"/>
      <point x="550" y="44"/>
      <point x="506" y="0"/>
      <point x="451" y="0" type="curve" smooth="yes"/>
      <point x="102" y="0" type="line" smooth="yes"/>
      <point x="47" y="0"/>
      <point x="3" y="44"/>
      <point x="3" y="99" type="curve" smooth="yes"/>
      <point x="3" y="152" type="line"/>
      <point x="85" y="152" type="line"/>
      <point x="85" y="99" type="line" smooth="yes"/>
      <point x="85" y="90"/>
      <point x="93" y="82"/>
      <point x="102" y="82" type="curve" smooth="yes"/>
      <point x="451" y="82" type="line" smooth="yes"/>
      <point x="461" y="82"/>
      <point x="468" y="90"/>
      <point x="468" y="99" type="curve" smooth="yes"/>
    </contour>
  </outline>
</glyph>
<glyph name="K" format="1">
  <advance width="606"/>
  <unicode hex="004B"/>
  <outline>
    <contour>
      <point x="473" y="547" type="line"/>
      <point x="570" y="547" type="line"/>
      <point x="570" y="536" type="line"/>
      <point x="350" y="274" type="line"/>
      <point x="570" y="11" type="line"/>
      <point x="570" y="0" type="line"/>
      <point x="473" y="0" type="line"/>
      <point x="277" y="233" type="line"/>
      <point x="125" y="233" type="line"/>
      <point x="125" y="0" type="line"/>
      <point x="43" y="0" type="line"/>
      <point x="43" y="547" type="line"/>
      <point x="125" y="547" type="line"/>
      <point x="125" y="315" type="line"/>
      <point x="277" y="315" type="line"/>
    </contour>
  </outline>
</glyph>
<glyph name="M" format="1">
  <advance width="705"/>
  <unicode hex="004D"/>
  <outline>
    <contour>
      <point x="353" y="294" type="line"/>
      <point x="565" y="547" type="line"/>
      <point x="663" y="547" type="line"/>
      <point x="663" y="0" type="line"/>
      <point x="581" y="0" type="line"/>
      <point x="581" y="438" type="line"/>
      <point x="353" y="166" type="line"/>
      <point x="125" y="438" type="line"/>
      <point x="125" y="0" type="line"/>
      <point x="43" y="0" type="line"/>
      <point x="43" y="547" type="line"/>
      <point x="140" y="547" type="line"/>
    </contour>
  </outline>
</glyph>
<glyph name="N" format="1">
  <advance width="632"/>
  <unicode hex="004E"/>
  <outline>
    <contour>
      <point x="508" y="109" type="line"/>
      <point x="508" y="547" type="line"/>
      <point x="590" y="547" type="line"/>
      <point x="590" y="0" type="line"/>
      <point x="492" y="0" type="line"/>
      <point x="125" y="438" type="line"/>
      <point x="125" y="0" type="line"/>
      <point x="43" y="0" type="line"/>
      <point x="43" y="547" type="line"/>
      <point x="140" y="547" type="line"/>
    </contour>
  </outline>
</glyph>
<glyph name="P" format="1">
  <advance width="601"/>
  <unicode hex="0050"/>
  <outline>
    <contour>
      <point x="43" y="546" type="line"/>
      <point x="491" y="546" type="line" smooth="yes"/>
      <point x="546" y="546"/>
      <point x="590" y="502"/>
      <point x="590" y="448" type="curve" smooth="yes"/>
      <point x="590" y="294" type="line" smooth="yes"/>
      <point x="590" y="240"/>
      <point x="546" y="195"/>
      <point x="491" y="195" type="curve" smooth="yes"/>
      <point x="141" y="195" type="line" smooth="yes"/>
      <point x="138" y="195"/>
      <point x="131" y="196"/>
      <point x="125" y="197" type="curve"/>
      <point x="125" y="0" type="line"/>
      <point x="43" y="0" type="line"/>
    </contour>
    <contour>
      <point x="508" y="448" type="line" smooth="yes"/>
      <point x="508" y="457"/>
      <point x="500" y="464"/>
      <point x="491" y="464" type="curve" smooth="yes"/>
      <point x="141" y="464" type="line" smooth="yes"/>
      <point x="132" y="464"/>
      <point x="125" y="457"/>
      <point x="125" y="448" type="curve" smooth="yes"/>
      <point x="125" y="294" type="line" smooth="yes"/>
      <point x="125" y="285"/>
      <point x="132" y="277"/>
      <point x="141" y="277" type="curve" smooth="yes"/>
      <point x="491" y="277" type="line" smooth="yes"/>
      <point x="500" y="277"/>
      <point x="508" y="285"/>
      <point x="508" y="294" type="curve" smooth="yes"/>
    </contour>
  </outline>
</glyph>
<glyph name="Q" format="1">
  <advance width="672"/>
  <unicode hex="0051"/>
  <outline>
    <contour>
      <point x="657" y="82" type="line"/>
      <point x="657" y="0" type="line"/>
      <point x="140" y="0" type="line" smooth="yes"/>
      <point x="85" y="0"/>
      <point x="41" y="44"/>
      <point x="41" y="99" type="curve" smooth="yes"/>
      <point x="41" y="448" type="line" smooth="yes"/>
      <point x="41" y="503"/>
      <point x="85" y="547"/>
      <point x="140" y="547" type="curve" smooth="yes"/>
      <point x="489" y="547" type="line" smooth="yes"/>
      <point x="544" y="547"/>
      <point x="588" y="503"/>
      <point x="588" y="448" type="curve" smooth="yes"/>
      <point x="588" y="99" type="line" smooth="yes"/>
      <point x="588" y="95"/>
      <point x="587" y="89"/>
      <point x="587" y="82" type="curve"/>
    </contour>
    <contour>
      <point x="489" y="82" type="line" smooth="yes"/>
      <point x="499" y="82"/>
      <point x="506" y="90"/>
      <point x="506" y="99" type="curve" smooth="yes"/>
      <point x="506" y="448" type="line" smooth="yes"/>
      <point x="506" y="458"/>
      <point x="499" y="465"/>
      <point x="489" y="465" type="curve" smooth="yes"/>
      <point x="140" y="465" type="line" smooth="yes"/>
      <point x="131" y="465"/>
      <point x="123" y="458"/>
      <point x="123" y="448" type="curve" smooth="yes"/>
      <point x="123" y="99" type="line" smooth="yes"/>
      <point x="123" y="90"/>
      <point x="131" y="82"/>
      <point x="140" y="82" type="curve" smooth="yes"/>
    </contour>
  </outline>
</glyph>
<glyph name="R" format="1">
  <advance width="627"/>
  <unicode hex="0052"/>
  <outline>
    <contour>
      <point x="589" y="294" type="line" smooth="yes"/>
      <point x="589" y="240"/>
      <point x="545" y="195"/>
      <point x="490" y="195" type="curve" smooth="yes"/>
      <point x="435" y="195" type="line"/>
      <point x="589" y="11" type="line"/>
      <point x="589" y="0" type="line"/>
      <point x="492" y="0" type="line"/>
      <point x="328" y="195" type="line"/>
      <point x="141" y="195" type="line" smooth="yes"/>
      <point x="137" y="195"/>
      <point x="131" y="196"/>
      <point x="124" y="197" type="curve"/>
      <point x="124" y="0" type="line"/>
      <point x="42" y="0" type="line"/>
      <point x="42" y="546" type="line"/>
      <point x="490" y="546" type="line" smooth="yes"/>
      <point x="545" y="546"/>
      <point x="589" y="502"/>
      <point x="589" y="448" type="curve" smooth="yes"/>
    </contour>
    <contour>
      <point x="490" y="277" type="line" smooth="yes"/>
      <point x="499" y="277"/>
      <point x="507" y="285"/>
      <point x="507" y="294" type="curve" smooth="yes"/>
      <point x="507" y="448" type="line" smooth="yes"/>
      <point x="507" y="457"/>
      <point x="499" y="464"/>
      <point x="490" y="464" type="curve" smooth="yes"/>
      <point x="141" y="464" type="line" smooth="yes"/>
      <point x="131" y="464"/>
      <point x="124" y="457"/>
      <point x="124" y="448" type="curve" smooth="yes"/>
      <point x="124" y="294" type="line" smooth="yes"/>
      <point x="124" y="285"/>
      <point x="131" y="277"/>
      <point x="141" y="277" type="curve" smooth="yes"/>
    </contour>
  </outline>
</glyph>
<glyph name="T" format="1">
  <advance width="577"/>
  <unicode hex="0054"/>
  <outline>
    <contour>
      <point x="15" y="547" type="line"/>
      <point x="562" y="547" type="line"/>
      <point x="562" y="465" type="line"/>
      <point x="330" y="465" type="line"/>
      <point x="330" y="0" type="line"/>
      <point x="248" y="0" type="line"/>
      <point x="248" y="465" type="line"/>
      <point x="15" y="465" type="line"/>
    </contour>
  </outline>
</glyph>
<glyph name="V" format="1">
  <advance width="762"/>
  <unicode hex="0056"/>
  <outline>
    <contour>
      <point x="384" y="93" type="line"/>
      <point x="646" y="547" type="line"/>
      <point x="740" y="547" type="line"/>
      <point x="425" y="0" type="line"/>
      <point x="343" y="0" type="line"/>
      <point x="27" y="547" type="line"/>
      <point x="122" y="547" type="line"/>
    </contour>
  </outline>
</glyph>
<glyph name="W" format="1">
  <advance width="896"/>
  <unicode hex="0057"/>
  <outline>
    <contour>
      <point x="782" y="547" type="line"/>
      <point x="869" y="547" type="line"/>
      <point x="670" y="0" type="line"/>
      <point x="603" y="0" type="line"/>
      <point x="448" y="426" type="line"/>
      <point x="293" y="0" type="line"/>
      <point x="291" y="1" type="line"/>
      <point x="292" y="0" type="line"/>
      <point x="226" y="0" type="line"/>
      <point x="27" y="547" type="line"/>
      <point x="114" y="547" type="line"/>
      <point x="259" y="148" type="line"/>
      <point x="404" y="547" type="line"/>
      <point x="492" y="547" type="line"/>
      <point x="637" y="148" type="line"/>
    </contour>
  </outline>
</glyph>
<glyph name="X" format="1">
  <advance width="617"/>
  <unicode hex="0058"/>
  <outline>
    <contour>
      <point x="485" y="547" type="line"/>
      <point x="582" y="547" type="line"/>
      <point x="582" y="536" type="line"/>
      <point x="362" y="274" type="line"/>
      <point x="582" y="11" type="line"/>
      <point x="582" y="0" type="line"/>
      <point x="485" y="0" type="line"/>
      <point x="309" y="210" type="line"/>
      <point x="132" y="0" type="line"/>
      <point x="35" y="0" type="line"/>
      <point x="35" y="11" type="line"/>
      <point x="255" y="274" type="line"/>
      <point x="35" y="536" type="line"/>
      <point x="35" y="547" type="line"/>
      <point x="132" y="547" type="line"/>
      <point x="309" y="337" type="line"/>
    </contour>
  </outline>
</glyph>
<glyph name="Y" format="1">
  <advance width="613"/>
  <unicode hex="0059"/>
  <outline>
    <contour>
      <point x="502" y="547" type="line"/>
      <point x="600" y="547" type="line"/>
      <point x="347" y="205" type="line"/>
      <point x="347" y="0" type="line"/>
      <point x="265" y="0" type="line"/>
      <point x="265" y="205" type="line"/>
      <point x="13" y="547" type="line"/>
      <point x="109" y="547" type="line"/>
      <point x="306" y="298" type="line"/>
    </contour>
  </outline>
</glyph>
<glyph name="Z" format="1">
  <advance width="624"/>
  <unicode hex="005A"/>
  <outline>
    <contour>
      <point x="39" y="465" type="line"/>
      <point x="39" y="547" type="line"/>
      <point x="586" y="547" type="line"/>
      <point x="586" y="450" type="line"/>
      <point x="148" y="82" type="line"/>
      <point x="586" y="82" type="line"/>
      <point x="586" y="0" type="line"/>
      <point x="39" y="0" type="line"/>
      <point x="39" y="97" type="line"/>
      <point x="477" y="465" type="line"/>
    </contour>
  </outline>
</glyph>
<glyph name="bracketleft" format="1">
  <advance width="209"/>
  <unicode hex="005B"/>
  <outline>
    <contour>
      <point x="41" y="0" type="line"/>
      <point x="41" y="547" type="line"/>
      <point x="172" y="547" type="line"/>
      <point x="172" y="465" type="line"/>
      <point x="123" y="465" type="line"/>
      <point x="123" y="82" type="line"/>
      <point x="172" y="82" type="line"/>
      <point x="172" y="0" type="line"/>
    </contour>
  </outline>
</glyph>
<glyph name="backslash" format="1">
  <advance width="395"/>
  <unicode hex="005C"/>
  <outline>
    <contour>
      <point x="4" y="547" type="line"/>
      <point x="15" y="547" type="line"/>
      <point x="391" y="97" type="line"/>
      <point x="391" y="0" type="line"/>
      <point x="380" y="0" type="line"/>
      <point x="4" y="450" type="line"/>
    </contour>
  </outline>
</glyph>
<glyph name="bracketright" format="1">
  <advance width="210"/>
  <unicode hex="005D"/>
  <outline>
    <contour>
      <point x="39" y="465" type="line"/>
      <point x="39" y="547" type="line"/>
      <point x="169" y="547" type="line"/>
      <point x="169" y="0" type="line"/>
      <point x="39" y="0" type="line"/>
      <point x="39" y="82" type="line"/>
      <point x="87" y="82" type="line"/>
      <point x="87" y="465" type="line"/>
    </contour>
  </outline>
</glyph>
<glyph name="underscore" format="1">
  <advance width="629"/>
  <unicode hex="005F"/>
  <outline>
    <contour>
      <point x="588" y="0" type="line"/>
      <point x="588" y="-82" type="line"/>
      <point x="41" y="-82" type="line"/>
      <point x="41" y="0" type="line"/>
    </contour>
  </outline>
</glyph>
<glyph name="b" format="1">
  <advance width="507"/>
  <unicode hex="0062"/>
  <outline>
    <contour>
      <point x="391" y="441" type="line" smooth="yes"/>
      <point x="445" y="441"/>
      <point x="489" y="397"/>
      <point x="489" y="342" type="curve" smooth="yes"/>
      <point x="489" y="99" type="line" smooth="yes"/>
      <point x="489" y="44"/>
      <point x="445" y="0"/>
      <point x="391" y="0" type="curve" smooth="yes"/>
      <point x="41" y="0" type="line"/>
      <point x="41" y="585" type="line"/>
      <point x="123" y="585" type="line"/>
      <point x="123" y="441" type="line"/>
    </contour>
    <contour>
      <point x="407" y="342" type="line" smooth="yes"/>
      <point x="407" y="351"/>
      <point x="400" y="359"/>
      <point x="391" y="359" type="curve" smooth="yes"/>
      <point x="140" y="359" type="line" smooth="yes"/>
      <point x="131" y="359"/>
      <point x="123" y="351"/>
      <point x="123" y="342" type="curve" smooth="yes"/>
      <point x="123" y="99" type="line" smooth="yes"/>
      <point x="123" y="90"/>
      <point x="131" y="82"/>
      <point x="140" y="82" type="curve" smooth="yes"/>
      <point x="391" y="82" type="line" smooth="yes"/>
      <point x="400" y="82"/>
      <point x="407" y="90"/>
      <point x="407" y="99" type="curve" smooth="yes"/>
    </contour>
  </outline>
</glyph>
<glyph name="c" format="1">
  <advance width="528"/>
  <unicode hex="0063"/>
  <outline>
    <contour>
      <point x="487" y="82" type="line"/>
      <point x="487" y="0" type="line"/>
      <point x="138" y="0" type="line" smooth="yes"/>
      <point x="83" y="0"/>
      <point x="39" y="44"/>
      <point x="39" y="99" type="curve" smooth="yes"/>
      <point x="39" y="342" type="line" smooth="yes"/>
      <point x="39" y="397"/>
      <point x="83" y="441"/>
      <point x="138" y="441" type="curve" smooth="yes"/>
      <point x="486" y="441" type="line"/>
      <point x="486" y="359" type="line"/>
      <point x="138" y="359" type="line" smooth="yes"/>
      <point x="128" y="359"/>
      <point x="121" y="351"/>
      <point x="121" y="342" type="curve" smooth="yes"/>
      <point x="121" y="99" type="line" smooth="yes"/>
      <point x="121" y="90"/>
      <point x="128" y="82"/>
      <point x="138" y="82" type="curve" smooth="yes"/>
    </contour>
  </outline>
</glyph>
<glyph name="d" format="1">
  <advance width="507"/>
  <unicode hex="0064"/>
  <outline>
    <contour>
      <point x="384" y="585" type="line"/>
      <point x="466" y="585" type="line"/>
      <point x="466" y="0" type="line"/>
      <point x="116" y="0" type="line" smooth="yes"/>
      <point x="62" y="0"/>
      <point x="17" y="44"/>
      <point x="17" y="99" type="curve" smooth="yes"/>
      <point x="17" y="342" type="line" smooth="yes"/>
      <point x="17" y="397"/>
      <point x="62" y="441"/>
      <point x="116" y="441" type="curve" smooth="yes"/>
      <point x="384" y="441" type="line"/>
    </contour>
    <contour>
      <point x="367" y="82" type="line" smooth="yes"/>
      <point x="376" y="82"/>
      <point x="384" y="90"/>
      <point x="384" y="99" type="curve" smooth="yes"/>
      <point x="384" y="342" type="line" smooth="yes"/>
      <point x="384" y="351"/>
      <point x="376" y="359"/>
      <point x="367" y="359" type="curve" smooth="yes"/>
      <point x="116" y="359" type="line" smooth="yes"/>
      <point x="107" y="359"/>
      <point x="100" y="351"/>
      <point x="100" y="342" type="curve" smooth="yes"/>
      <point x="100" y="99" type="line" smooth="yes"/>
      <point x="100" y="90"/>
      <point x="107" y="82"/>
      <point x="116" y="82" type="curve" smooth="yes"/>
    </contour>
  </outline>
</glyph>
<glyph name="f" format="1">
  <advance width="309"/>
  <unicode hex="0066"/>
  <outline>
    <contour>
      <point x="139" y="503" type="line" smooth="yes"/>
      <point x="130" y="503"/>
      <point x="122" y="496"/>
      <point x="122" y="486" type="curve" smooth="yes"/>
      <point x="122" y="441" type="line"/>
      <point x="303" y="441" type="line"/>
      <point x="303" y="359" type="line"/>
      <point x="122" y="359" type="line"/>
      <point x="122" y="0" type="line"/>
      <point x="40" y="0" type="line"/>
      <point x="40" y="243" type="line"/>
      <point x="40" y="486" type="line" smooth="yes"/>
      <point x="40" y="541"/>
      <point x="84" y="585"/>
      <point x="139" y="585" type="curve" smooth="yes"/>
      <point x="303" y="585" type="line"/>
      <point x="303" y="503" type="line"/>
    </contour>
  </outline>
</glyph>
<glyph name="g" format="1">
  <advance width="519"/>
  <unicode hex="0067"/>
  <outline>
    <contour>
      <point x="480" y="168" type="line"/>
      <point x="480" y="167" type="line"/>
      <point x="480" y="-76" type="line" smooth="yes"/>
      <point x="480" y="-131"/>
      <point x="435" y="-175"/>
      <point x="381" y="-175" type="curve" smooth="yes"/>
      <point x="109" y="-175" type="line"/>
      <point x="109" y="-93" type="line"/>
      <point x="381" y="-93" type="line" smooth="yes"/>
      <point x="390" y="-93"/>
      <point x="397" y="-85"/>
      <point x="397" y="-76" type="curve" smooth="yes"/>
      <point x="397" y="0" type="line"/>
      <point x="130" y="0" type="line" smooth="yes"/>
      <point x="75" y="0"/>
      <point x="31" y="44"/>
      <point x="31" y="99" type="curve" smooth="yes"/>
      <point x="31" y="342" type="line" smooth="yes"/>
      <point x="31" y="397"/>
      <point x="75" y="441"/>
      <point x="130" y="441" type="curve" smooth="yes"/>
      <point x="381" y="441" type="line" smooth="yes"/>
      <point x="435" y="441"/>
      <point x="480" y="397"/>
      <point x="480" y="342" type="curve" smooth="yes"/>
    </contour>
    <contour>
      <point x="381" y="82" type="line" smooth="yes"/>
      <point x="390" y="82"/>
      <point x="397" y="90"/>
      <point x="397" y="99" type="curve" smooth="yes"/>
      <point x="397" y="342" type="line" smooth="yes"/>
      <point x="397" y="351"/>
      <point x="390" y="359"/>
      <point x="381" y="359" type="curve" smooth="yes"/>
      <point x="130" y="359" type="line" smooth="yes"/>
      <point x="121" y="359"/>
      <point x="113" y="351"/>
      <point x="113" y="342" type="curve" smooth="yes"/>
      <point x="113" y="99" type="line" smooth="yes"/>
      <point x="113" y="90"/>
      <point x="121" y="82"/>
      <point x="130" y="82" type="curve" smooth="yes"/>
    </contour>
  </outline>
</glyph>
<glyph name="h" format="1">
  <advance width="508"/>
  <unicode hex="0068"/>
  <outline>
    <contour>
      <point x="391" y="441" type="line" smooth="yes"/>
      <point x="445" y="441"/>
      <point x="489" y="397"/>
      <point x="489" y="342" type="curve" smooth="yes"/>
      <point x="489" y="0" type="line"/>
      <point x="407" y="0" type="line"/>
      <point x="407" y="342" type="line" smooth="yes"/>
      <point x="407" y="351"/>
      <point x="400" y="359"/>
      <point x="391" y="359" type="curve" smooth="yes"/>
      <point x="140" y="359" type="line" smooth="yes"/>
      <point x="131" y="359"/>
      <point x="123" y="351"/>
      <point x="123" y="342" type="curve" smooth="yes"/>
      <point x="123" y="0" type="line"/>
      <point x="41" y="0" type="line"/>
      <point x="41" y="585" type="line"/>
      <point x="123" y="585" type="line"/>
      <point x="123" y="441" type="line"/>
    </contour>
  </outline>
</glyph>
<glyph name="i" format="1">
  <advance width="158"/>
  <unicode hex="0069"/>
  <outline>
    <contour>
      <point x="40" y="0" type="line"/>
      <point x="40" y="441" type="line"/>
      <point x="122" y="441" type="line"/>
      <point x="122" y="0" type="line"/>
    </contour>
    <contour>
      <point x="40" y="585" type="line"/>
      <point x="122" y="585" type="line"/>
      <point x="122" y="503" type="line"/>
      <point x="40" y="503" type="line"/>
    </contour>
  </outline>
</glyph>
<glyph name="j" format="1">
  <advance width="182"/>
  <unicode hex="006A"/>
  <outline>
    <contour>
      <point x="63" y="585" type="line"/>
      <point x="145" y="585" type="line"/>
      <point x="145" y="503" type="line"/>
      <point x="63" y="503" type="line"/>
    </contour>
    <contour>
      <point x="145" y="439" type="line"/>
      <point x="145" y="167" type="line"/>
      <point x="145" y="-76" type="line" smooth="yes"/>
      <point x="145" y="-131"/>
      <point x="101" y="-175"/>
      <point x="46" y="-175" type="curve" smooth="yes"/>
      <point x="-142" y="-175" type="line"/>
      <point x="-142" y="-93" type="line"/>
      <point x="46" y="-93" type="line" smooth="yes"/>
      <point x="55" y="-93"/>
      <point x="63" y="-85"/>
      <point x="63" y="-76" type="curve" smooth="yes"/>
      <point x="63" y="439" type="line"/>
    </contour>
  </outline>
</glyph>
<glyph name="l" format="1">
  <advance width="230"/>
  <unicode hex="006C"/>
  <outline>
    <contour>
      <point x="40" y="342" type="line"/>
      <point x="40" y="585" type="line"/>
      <point x="122" y="585" type="line"/>
      <point x="122" y="99" type="line" smooth="yes"/>
      <point x="122" y="90"/>
      <point x="129" y="82"/>
      <point x="138" y="82" type="curve" smooth="yes"/>
      <point x="220" y="82" type="line"/>
      <point x="220" y="0" type="line"/>
      <point x="138" y="0" type="line" smooth="yes"/>
      <point x="84" y="0"/>
      <point x="40" y="44"/>
      <point x="40" y="99" type="curve" smooth="yes"/>
    </contour>
  </outline>
</glyph>
<glyph name="m" format="1">
  <advance width="743"/>
  <unicode hex="006D"/>
  <outline>
    <contour>
      <point x="604" y="441" type="line" smooth="yes"/>
      <point x="659" y="441"/>
      <point x="703" y="397"/>
      <point x="703" y="342" type="curve" smooth="yes"/>
      <point x="703" y="0" type="line"/>
      <point x="622" y="0" type="line"/>
      <point x="622" y="342" type="line" smooth="yes"/>
      <point x="622" y="351"/>
      <point x="614" y="359"/>
      <point x="604" y="359" type="curve" smooth="yes"/>
      <point x="430" y="359" type="line" smooth="yes"/>
      <point x="421" y="359"/>
      <point x="413" y="351"/>
      <point x="413" y="342" type="curve" smooth="yes"/>
      <point x="413" y="0" type="line"/>
      <point x="331" y="0" type="line"/>
      <point x="331" y="342" type="line" smooth="yes"/>
      <point x="331" y="351"/>
      <point x="324" y="359"/>
      <point x="315" y="359" type="curve" smooth="yes"/>
      <point x="140" y="359" type="line" smooth="yes"/>
      <point x="131" y="359"/>
      <point x="123" y="351"/>
      <point x="123" y="342" type="curve" smooth="yes"/>
      <point x="123" y="0" type="line"/>
      <point x="41" y="0" type="line"/>
      <point x="41" y="441" type="line"/>
    </contour>
  </outline>
</glyph>
<glyph name="q" format="1">
  <advance width="505"/>
  <unicode hex="0071"/>
  <outline>
    <contour>
      <point x="15" y="342" type="line" smooth="yes"/>
      <point x="15" y="397"/>
      <point x="59" y="441"/>
      <point x="114" y="441" type="curve" smooth="yes"/>
      <point x="464" y="441" type="line"/>
      <point x="464" y="-175" type="line"/>
      <point x="382" y="-175" type="line"/>
      <point x="382" y="0" type="line"/>
      <point x="114" y="0" type="line" smooth="yes"/>
      <point x="59" y="0"/>
      <point x="15" y="44"/>
      <point x="15" y="99" type="curve" smooth="yes"/>
    </contour>
    <contour>
      <point x="97" y="99" type="line" smooth="yes"/>
      <point x="97" y="90"/>
      <point x="105" y="82"/>
      <point x="114" y="82" type="curve" smooth="yes"/>
      <point x="365" y="82" type="line" smooth="yes"/>
      <point x="374" y="82"/>
      <point x="382" y="90"/>
      <point x="382" y="99" type="curve" smooth="yes"/>
      <point x="382" y="342" type="line" smooth="yes"/>
      <point x="382" y="351"/>
      <point x="374" y="359"/>
      <point x="365" y="359" type="curve" smooth="yes"/>
      <point x="114" y="359" type="line" smooth="yes"/>
      <point x="105" y="359"/>
      <point x="97" y="351"/>
      <point x="97" y="342" type="curve" smooth="yes"/>
    </contour>
  </outline>
</glyph>
<glyph name="r" format="1">
  <advance width="389"/>
  <unicode hex="0072"/>
  <outline>
    <contour>
      <point x="385" y="441" type="line"/>
      <point x="385" y="359" type="line"/>
      <point x="138" y="359" type="line" smooth="yes"/>
      <point x="129" y="359"/>
      <point x="122" y="351"/>
      <point x="122" y="342" type="curve" smooth="yes"/>
      <point x="122" y="0" type="line"/>
      <point x="40" y="0" type="line"/>
      <point x="40" y="99" type="line"/>
      <point x="40" y="342" type="line" smooth="yes"/>
      <point x="40" y="397"/>
      <point x="84" y="441"/>
      <point x="138" y="441" type="curve" smooth="yes"/>
    </contour>
  </outline>
</glyph>
<glyph name="s" format="1">
  <advance width="521"/>
  <unicode hex="0073"/>
  <outline>
    <contour>
      <point x="485" y="325" type="line"/>
      <point x="403" y="325" type="line"/>
      <point x="403" y="342" type="line" smooth="yes"/>
      <point x="403" y="351"/>
      <point x="395" y="359"/>
      <point x="386" y="359" type="curve" smooth="yes"/>
      <point x="135" y="359" type="line" smooth="yes"/>
      <point x="126" y="359"/>
      <point x="119" y="351"/>
      <point x="119" y="342" type="curve" smooth="yes"/>
      <point x="119" y="278" type="line" smooth="yes"/>
      <point x="119" y="269"/>
      <point x="126" y="261"/>
      <point x="135" y="261" type="curve" smooth="yes"/>
      <point x="386" y="261" type="line" smooth="yes"/>
      <point x="441" y="261"/>
      <point x="485" y="217"/>
      <point x="485" y="163" type="curve" smooth="yes"/>
      <point x="485" y="99" type="line" smooth="yes"/>
      <point x="485" y="44"/>
      <point x="441" y="0"/>
      <point x="386" y="0" type="curve" smooth="yes"/>
      <point x="135" y="0" type="line" smooth="yes"/>
      <point x="81" y="0"/>
      <point x="36" y="44"/>
      <point x="36" y="99" type="curve" smooth="yes"/>
      <point x="36" y="116" type="line"/>
      <point x="119" y="116" type="line"/>
      <point x="119" y="99" type="line" smooth="yes"/>
      <point x="119" y="90"/>
      <point x="126" y="82"/>
      <point x="135" y="82" type="curve" smooth="yes"/>
      <point x="386" y="82" type="line" smooth="yes"/>
      <point x="395" y="82"/>
      <point x="403" y="90"/>
      <point x="403" y="99" type="curve" smooth="yes"/>
      <point x="403" y="163" type="line" smooth="yes"/>
      <point x="403" y="172"/>
      <point x="395" y="179"/>
      <point x="386" y="179" type="curve" smooth="yes"/>
      <point x="135" y="179" type="line" smooth="yes"/>
      <point x="81" y="179"/>
      <point x="36" y="223"/>
      <point x="36" y="278" type="curve" smooth="yes"/>
      <point x="36" y="342" type="line" smooth="yes"/>
      <point x="36" y="397"/>
      <point x="81" y="441"/>
      <point x="135" y="441" type="curve" smooth="yes"/>
      <point x="386" y="441" type="line" smooth="yes"/>
      <point x="441" y="441"/>
      <point x="485" y="397"/>
      <point x="485" y="342" type="curve" smooth="yes"/>
    </contour>
  </outline>
</glyph>
<glyph name="t" format="1">
  <advance width="312"/>
  <unicode hex="0074"/>
  <outline>
    <contour>
      <point x="303" y="359" type="line"/>
      <point x="122" y="359" type="line"/>
      <point x="122" y="99" type="line" smooth="yes"/>
      <point x="122" y="90"/>
      <point x="130" y="82"/>
      <point x="139" y="82" type="curve" smooth="yes"/>
      <point x="303" y="82" type="line"/>
      <point x="303" y="0" type="line"/>
      <point x="139" y="0" type="line" smooth="yes"/>
      <point x="84" y="0"/>
      <point x="40" y="44"/>
      <point x="40" y="99" type="curve" smooth="yes"/>
      <point x="40" y="342" type="line"/>
      <point x="40" y="585" type="line"/>
      <point x="122" y="585" type="line"/>
      <point x="122" y="441" type="line"/>
      <point x="303" y="441" type="line"/>
    </contour>
  </outline>
</glyph>
<glyph name="v" format="1">
  <advance width="600"/>
  <unicode hex="0076"/>
  <outline>
    <contour>
      <point x="490" y="441" type="line"/>
      <point x="584" y="441" type="line"/>
      <point x="341" y="0" type="line"/>
      <point x="259" y="0" type="line"/>
      <point x="16" y="441" type="line"/>
      <point x="111" y="441" type="line"/>
      <point x="300" y="93" type="line"/>
    </contour>
  </outline>
</glyph>
<glyph name="w" format="1">
  <advance width="806"/>
  <unicode hex="0077"/>
  <outline>
    <contour>
      <point x="700" y="441" type="line"/>
      <point x="787" y="441" type="line"/>
      <point x="622" y="0" type="line"/>
      <point x="555" y="0" type="line"/>
      <point x="407" y="328" type="line"/>
      <point x="267" y="0" type="line"/>
      <point x="265" y="1" type="line"/>
      <point x="266" y="0" type="line"/>
      <point x="200" y="0" type="line"/>
      <point x="27" y="441" type="line"/>
      <point x="114" y="441" type="line"/>
      <point x="233" y="148" type="line"/>
      <point x="360" y="441" type="line"/>
      <point x="454" y="441" type="line"/>
      <point x="588" y="148" type="line"/>
    </contour>
  </outline>
</glyph>
<glyph name="x" format="1">
  <advance width="526"/>
  <unicode hex="0078"/>
  <outline>
    <contour>
      <point x="394" y="441" type="line"/>
      <point x="491" y="441" type="line"/>
      <point x="491" y="429" type="line"/>
      <point x="316" y="224" type="line"/>
      <point x="491" y="11" type="line"/>
      <point x="491" y="0" type="line"/>
      <point x="394" y="0" type="line"/>
      <point x="263" y="160" type="line"/>
      <point x="132" y="0" type="line"/>
      <point x="35" y="0" type="line"/>
      <point x="35" y="11" type="line"/>
      <point x="209" y="224" type="line"/>
      <point x="35" y="429" type="line"/>
      <point x="35" y="441" type="line"/>
      <point x="132" y="441" type="line"/>
      <point x="263" y="288" type="line"/>
    </contour>
  </outline>
</glyph>
<glyph name="y" format="1">
  <advance width="521"/>
  <unicode hex="0079"/>
  <outline>
    <contour>
      <point x="480" y="169" type="line"/>
      <point x="480" y="167" type="line"/>
      <point x="480" y="-76" type="line" smooth="yes"/>
      <point x="480" y="-131"/>
      <point x="436" y="-175"/>
      <point x="382" y="-175" type="curve" smooth="yes"/>
      <point x="109" y="-175" type="line"/>
      <point x="109" y="-93" type="line"/>
      <point x="382" y="-93" type="line" smooth="yes"/>
      <point x="391" y="-93"/>
      <point x="398" y="-85"/>
      <point x="398" y="-76" type="curve" smooth="yes"/>
      <point x="398" y="0" type="line"/>
      <point x="131" y="0" type="line" smooth="yes"/>
      <point x="76" y="0"/>
      <point x="32" y="44"/>
      <point x="32" y="99" type="curve" smooth="yes"/>
      <point x="32" y="439" type="line"/>
      <point x="114" y="439" type="line"/>
      <point x="114" y="99" type="line" smooth="yes"/>
      <point x="114" y="90"/>
      <point x="122" y="82"/>
      <point x="131" y="82" type="curve" smooth="yes"/>
      <point x="382" y="82" type="line" smooth="yes"/>
      <point x="391" y="82"/>
      <point x="398" y="90"/>
      <point x="398" y="99" type="curve" smooth="yes"/>
      <point x="398" y="439" type="line"/>
      <point x="480" y="439" type="line"/>
    </contour>
  </outline>
</glyph>
<glyph name="braceleft" format="1">
  <advance width="220"/>
  <unicode hex="007B"/>
  <outline>
    <contour>
      <point x="133" y="234" type="line"/>
      <point x="133" y="99" type="line" smooth="yes"/>
      <point x="133" y="90"/>
      <point x="141" y="82"/>
      <point x="150" y="82" type="curve" smooth="yes"/>
      <point x="182" y="82" type="line"/>
      <point x="182" y="0" type="line"/>
      <point x="150" y="0" type="line" smooth="yes"/>
      <point x="95" y="0"/>
      <point x="51" y="44"/>
      <point x="51" y="99" type="curve" smooth="yes"/>
      <point x="51" y="217" type="line"/>
      <point x="17" y="237" type="line"/>
      <point x="17" y="319" type="line"/>
      <point x="51" y="338" type="line"/>
      <point x="51" y="448" type="line" smooth="yes"/>
      <point x="51" y="503"/>
      <point x="95" y="547"/>
      <point x="150" y="547" type="curve" smooth="yes"/>
      <point x="182" y="547" type="line"/>
      <point x="182" y="465" type="line"/>
      <point x="150" y="465" type="line" smooth="yes"/>
      <point x="141" y="465"/>
      <point x="133" y="458"/>
      <point x="133" y="448" type="curve" smooth="yes"/>
      <point x="133" y="320" type="line"/>
      <point x="80" y="278" type="line"/>
    </contour>
  </outline>
</glyph>
<glyph name="bar" format="1">
  <advance width="163"/>
  <unicode hex="007C"/>
  <outline>
    <contour>
      <point x="41" y="-83" type="line"/>
      <point x="41" y="629" type="line"/>
      <point x="123" y="629" type="line"/>
      <point x="123" y="-83" type="line"/>
    </contour>
  </outline>
</glyph>
<glyph name="braceright" format="1">
  <advance width="220"/>
  <unicode hex="007D"/>
  <outline>
    <contour>
      <point x="87" y="234" type="line"/>
      <point x="141" y="278" type="line"/>
      <point x="87" y="320" type="line"/>
      <point x="87" y="448" type="line" smooth="yes"/>
      <point x="87" y="458"/>
      <point x="80" y="465"/>
      <point x="71" y="465" type="curve" smooth="yes"/>
      <point x="39" y="465" type="line"/>
      <point x="39" y="547" type="line"/>
      <point x="71" y="547" type="line" smooth="yes"/>
      <point x="125" y="547"/>
      <point x="169" y="503"/>
      <point x="169" y="448" type="curve" smooth="yes"/>
      <point x="169" y="338" type="line"/>
      <point x="203" y="319" type="line"/>
      <point x="203" y="237" type="line"/>
      <point x="169" y="217" type="line"/>
      <point x="169" y="99" type="line" smooth="yes"/>
      <point x="169" y="44"/>
      <point x="125" y="0"/>
      <point x="71" y="0" type="curve" smooth="yes"/>
      <point x="39" y="0" type="line"/>
      <point x="39" y="82" type="line"/>
      <point x="71" y="82" type="line" smooth="yes"/>
      <point x="80" y="82"/>
      <point x="87" y="90"/>
      <point x="87" y="99" type="curve" smooth="yes"/>
    </contour>
  </outline>
</glyph>
<glyph name="asciitilde" format="1">
  <advance width="307"/>
  <unicode hex="007E"/>
  <outline>
    <contour>
      <point x="246" y="226"/>
      <point x="266" y="233"/>
      <point x="286" y="246" type="curve"/>
      <point x="286" y="190" type="line"/>
      <point x="264" y="181"/>
      <point x="245" y="176"/>
      <point x="226" y="176" type="curve" smooth="yes"/>
      <point x="209" y="176"/>
      <point x="184" y="185"/>
      <point x="152" y="202" type="curve" smooth="yes"/>
      <point x="120" y="220"/>
      <point x="94" y="228"/>
      <point x="74" y="228" type="curve" smooth="yes"/>
      <point x="44" y="228"/>
      <point x="25" y="222"/>
      <point x="18" y="211" type="curve"/>
      <point x="18" y="268" type="line"/>
      <point x="35" y="274"/>
      <point x="54" y="278"/>
      <point x="74" y="278" type="curve" smooth="yes"/>
      <point x="94" y="278"/>
      <point x="120" y="270"/>
      <point x="153" y="254" type="curve" smooth="yes"/>
      <point x="185" y="238"/>
      <point x="209" y="229"/>
      <point x="226" y="226" type="curve"/>
    </contour>
  </outline>
</glyph>
<glyph name="exclamdown" format="1">
  <advance width="160"/>
  <unicode hex="00A1"/>
  <outline>
    <contour>
      <point x="122" y="547" type="line"/>
      <point x="122" y="465" type="line"/>
      <point x="40" y="465" type="line"/>
      <point x="40" y="547" type="line"/>
    </contour>
    <contour>
      <point x="122" y="0" type="line"/>
      <point x="40" y="0" type="line"/>
      <point x="40" y="395" type="line"/>
      <point x="122" y="395" type="line"/>
    </contour>
  </outline>
</glyph>
<glyph name="cent" format="1">
  <advance width="483"/>
  <unicode hex="00A2"/>
  <outline>
    <contour>
      <point x="472" y="366" type="line"/>
      <point x="290" y="366" type="line"/>
      <point x="290" y="82" type="line"/>
      <point x="472" y="82" type="line"/>
      <point x="472" y="0" type="line"/>
      <point x="290" y="0" type="line"/>
      <point x="290" y="-83" type="line"/>
      <point x="208" y="-83" type="line"/>
      <point x="208" y="0" type="line"/>
      <point x="124" y="0" type="line" smooth="yes"/>
      <point x="69" y="0"/>
      <point x="25" y="44"/>
      <point x="25" y="99" type="curve" smooth="yes"/>
      <point x="25" y="350" type="line" smooth="yes"/>
      <point x="25" y="404"/>
      <point x="69" y="448"/>
      <point x="124" y="448" type="curve" smooth="yes"/>
      <point x="208" y="448" type="line"/>
      <point x="208" y="546" type="line"/>
      <point x="290" y="546" type="line"/>
      <point x="290" y="448" type="line"/>
      <point x="472" y="448" type="line"/>
    </contour>
    <contour>
      <point x="208" y="82" type="line"/>
      <point x="208" y="366" type="line"/>
      <point x="124" y="366" type="line" smooth="yes"/>
      <point x="115" y="366"/>
      <point x="107" y="359"/>
      <point x="107" y="350" type="curve" smooth="yes"/>
      <point x="107" y="99" type="line" smooth="yes"/>
      <point x="107" y="90"/>
      <point x="115" y="82"/>
      <point x="124" y="82" type="curve" smooth="yes"/>
    </contour>
  </outline>
</glyph>
<glyph name="sterling" format="1">
  <advance width="558"/>
  <unicode hex="00A3"/>
  <outline>
    <contour>
      <point x="522" y="426" type="line"/>
      <point x="440" y="426" type="line"/>
      <point x="440" y="448" type="line" smooth="yes"/>
      <point x="440" y="458"/>
      <point x="432" y="465"/>
      <point x="423" y="465" type="curve" smooth="yes"/>
      <point x="204" y="465" type="line" smooth="yes"/>
      <point x="195" y="465"/>
      <point x="188" y="458"/>
      <point x="188" y="448" type="curve" smooth="yes"/>
      <point x="188" y="315" type="line"/>
      <point x="442" y="315" type="line"/>
      <point x="442" y="233" type="line"/>
      <point x="188" y="233" type="line"/>
      <point x="188" y="82" type="line"/>
      <point x="522" y="82" type="line"/>
      <point x="522" y="0" type="line"/>
      <point x="30" y="0" type="line"/>
      <point x="30" y="82" type="line"/>
      <point x="106" y="82" type="line"/>
      <point x="106" y="233" type="line"/>
      <point x="30" y="233" type="line"/>
      <point x="30" y="315" type="line"/>
      <point x="106" y="315" type="line"/>
      <point x="106" y="448" type="line" smooth="yes"/>
      <point x="106" y="503"/>
      <point x="150" y="547"/>
      <point x="204" y="547" type="curve" smooth="yes"/>
      <point x="423" y="547" type="line" smooth="yes"/>
      <point x="478" y="547"/>
      <point x="522" y="503"/>
      <point x="522" y="448" type="curve" smooth="yes"/>
    </contour>
  </outline>
</glyph>
<glyph name="dieresis" format="1">
  <advance width="293"/>
  <unicode hex="00A8"/>
  <outline>
    <contour>
      <point x="252" y="711" type="line"/>
      <point x="252" y="629" type="line"/>
      <point x="170" y="629" type="line"/>
      <point x="170" y="711" type="line"/>
    </contour>
    <contour>
      <point x="123" y="711" type="line"/>
      <point x="123" y="629" type="line"/>
      <point x="41" y="629" type="line"/>
      <point x="41" y="711" type="line"/>
    </contour>
  </outline>
</glyph>
<glyph name="degree" format="1">
  <advance width="334"/>
  <unicode hex="00B0"/>
  <outline>
    <contour>
      <point x="201" y="547" type="line" smooth="yes"/>
      <point x="256" y="547"/>
      <point x="300" y="503"/>
      <point x="300" y="448" type="curve" smooth="yes"/>
      <point x="300" y="388" type="line" smooth="yes"/>
      <point x="300" y="333"/>
      <point x="256" y="289"/>
      <point x="201" y="289" type="curve" smooth="yes"/>
      <point x="133" y="289" type="line" smooth="yes"/>
      <point x="78" y="289"/>
      <point x="34" y="333"/>
      <point x="34" y="388" type="curve" smooth="yes"/>
      <point x="34" y="448" type="line" smooth="yes"/>
      <point x="34" y="503"/>
      <point x="78" y="547"/>
      <point x="133" y="547" type="curve" smooth="yes"/>
    </contour>
    <contour>
      <point x="217" y="356" type="line" smooth="yes"/>
      <point x="226" y="356"/>
      <point x="233" y="363"/>
      <point x="233" y="372" type="curve" smooth="yes"/>
      <point x="233" y="464" type="line" smooth="yes"/>
      <point x="233" y="473"/>
      <point x="226" y="480"/>
      <point x="217" y="480" type="curve" smooth="yes"/>
      <point x="118" y="480" type="line" smooth="yes"/>
      <point x="109" y="480"/>
      <point x="101" y="473"/>
      <point x="101" y="464" type="curve" smooth="yes"/>
      <point x="101" y="372" type="line" smooth="yes"/>
      <point x="101" y="363"/>
      <point x="109" y="356"/>
      <point x="118" y="356" type="curve" smooth="yes"/>
    </contour>
  </outline>
</glyph>
<glyph name="acute" format="1">
  <advance width="162"/>
  <unicode hex="00B4"/>
  <outline>
    <contour>
      <point x="25" y="629" type="line"/>
      <point x="55" y="752" type="line"/>
      <point x="138" y="752" type="line"/>
      <point x="107" y="629" type="line"/>
    </contour>
  </outline>
</glyph>
<glyph name="paragraph" format="1">
  <advance width="633"/>
  <unicode hex="00B6"/>
  <outline>
    <contour>
      <point x="43" y="448" type="line" smooth="yes"/>
      <point x="43" y="502"/>
      <point x="87" y="546"/>
      <point x="141" y="546" type="curve" smooth="yes"/>
      <point x="590" y="546" type="line"/>
      <point x="590" y="0" type="line"/>
      <point x="508" y="0" type="line"/>
      <point x="508" y="195" type="line"/>
      <point x="431" y="195" type="line"/>
      <point x="431" y="0" type="line"/>
      <point x="349" y="0" type="line"/>
      <point x="349" y="195" type="line"/>
      <point x="141" y="195" type="line" smooth="yes"/>
      <point x="87" y="195"/>
      <point x="43" y="240"/>
      <point x="43" y="294" type="curve" smooth="yes"/>
    </contour>
    <contour>
      <point x="431" y="464" type="line"/>
      <point x="431" y="277" type="line"/>
      <point x="508" y="277" type="line"/>
      <point x="508" y="464" type="line"/>
    </contour>
    <contour>
      <point x="125" y="294" type="line" smooth="yes"/>
      <point x="125" y="285"/>
      <point x="132" y="277"/>
      <point x="141" y="277" type="curve" smooth="yes"/>
      <point x="349" y="277" type="line"/>
      <point x="349" y="464" type="line"/>
      <point x="141" y="464" type="line" smooth="yes"/>
      <point x="132" y="464"/>
      <point x="125" y="457"/>
      <point x="125" y="448" type="curve" smooth="yes"/>
    </contour>
  </outline>
</glyph>
<glyph name="cedilla" format="1">
  <advance width="162"/>
  <unicode hex="00B8"/>
  <outline>
    <contour>
      <point x="25" y="-123" type="line"/>
      <point x="55" y="0" type="line"/>
      <point x="138" y="0" type="line"/>
      <point x="107" y="-123" type="line"/>
    </contour>
  </outline>
</glyph>
<glyph name="questiondown" format="1">
  <advance width="513"/>
  <unicode hex="00BF"/>
  <outline>
    <contour>
      <point x="491" y="0" type="line"/>
      <point x="113" y="0" type="line" smooth="yes"/>
      <point x="59" y="0"/>
      <point x="14" y="44"/>
      <point x="14" y="99" type="curve" smooth="yes"/>
      <point x="14" y="239" type="line" smooth="yes"/>
      <point x="14" y="293"/>
      <point x="59" y="337"/>
      <point x="113" y="337" type="curve" smooth="yes"/>
      <point x="310" y="337" type="line" smooth="yes"/>
      <point x="319" y="337"/>
      <point x="327" y="345"/>
      <point x="327" y="354" type="curve" smooth="yes"/>
      <point x="327" y="401" type="line"/>
      <point x="409" y="401" type="line"/>
      <point x="409" y="354" type="line" smooth="yes"/>
      <point x="409" y="299"/>
      <point x="365" y="255"/>
      <point x="310" y="255" type="curve" smooth="yes"/>
      <point x="113" y="255" type="line" smooth="yes"/>
      <point x="104" y="255"/>
      <point x="97" y="248"/>
      <point x="97" y="239" type="curve" smooth="yes"/>
      <point x="97" y="99" type="line" smooth="yes"/>
      <point x="97" y="90"/>
      <point x="104" y="82"/>
      <point x="113" y="82" type="curve" smooth="yes"/>
      <point x="491" y="82" type="line"/>
    </contour>
    <contour>
      <point x="409" y="547" type="line"/>
      <point x="409" y="465" type="line"/>
      <point x="327" y="465" type="line"/>
      <point x="327" y="547" type="line"/>
    </contour>
  </outline>
</glyph>
<glyph name="Agrave" format="1">
  <advance width="635"/>
  <unicode hex="00C0"/>
  <outline>
    <contour>
      <point x="492" y="547" type="line" smooth="yes"/>
      <point x="547" y="547"/>
      <point x="591" y="503"/>
      <point x="591" y="448" type="curve" smooth="yes"/>
      <point x="591" y="0" type="line"/>
      <point x="509" y="0" type="line"/>
      <point x="509" y="192" type="line"/>
      <point x="126" y="192" type="line"/>
      <point x="126" y="0" type="line"/>
      <point x="44" y="0" type="line"/>
      <point x="44" y="448" type="line" smooth="yes"/>
      <point x="44" y="503"/>
      <point x="88" y="547"/>
      <point x="143" y="547" type="curve" smooth="yes"/>
    </contour>
    <contour>
      <point x="126" y="274" type="line"/>
      <point x="509" y="274" type="line"/>
      <point x="509" y="448" type="line" smooth="yes"/>
      <point x="509" y="458"/>
      <point x="502" y="465"/>
      <point x="492" y="465" type="curve" smooth="yes"/>
      <point x="143" y="465" type="line" smooth="yes"/>
      <point x="134" y="465"/>
      <point x="126" y="458"/>
      <point x="126" y="448" type="curve" smooth="yes"/>
    </contour>
    <contour>
      <point x="344" y="746" type="line"/>
      <point x="374" y="623" type="line"/>
      <point x="292" y="623" type="line"/>
      <point x="261" y="746" type="line"/>
    </contour>
  </outline>
</glyph>
<glyph name="Acircumflex" format="1">
  <advance width="635"/>
  <unicode hex="00C2"/>
  <outline>
    <contour>
      <point x="492" y="547" type="line" smooth="yes"/>
      <point x="547" y="547"/>
      <point x="591" y="503"/>
      <point x="591" y="448" type="curve" smooth="yes"/>
      <point x="591" y="0" type="line"/>
      <point x="509" y="0" type="line"/>
      <point x="509" y="192" type="line"/>
      <point x="126" y="192" type="line"/>
      <point x="126" y="0" type="line"/>
      <point x="44" y="0" type="line"/>
      <point x="44" y="448" type="line" smooth="yes"/>
      <point x="44" y="503"/>
      <point x="88" y="547"/>
      <point x="143" y="547" type="curve" smooth="yes"/>
    </contour>
    <contour>
      <point x="126" y="274" type="line"/>
      <point x="509" y="274" type="line"/>
      <point x="509" y="448" type="line" smooth="yes"/>
      <point x="509" y="458"/>
      <point x="502" y="465"/>
      <point x="492" y="465" type="curve" smooth="yes"/>
      <point x="143" y="465" type="line" smooth="yes"/>
      <point x="134" y="465"/>
      <point x="126" y="458"/>
      <point x="126" y="448" type="curve" smooth="yes"/>
    </contour>
    <contour>
      <point x="281" y="622" type="line"/>
      <point x="225" y="622" type="line"/>
      <point x="290" y="730" type="line"/>
      <point x="346" y="730" type="line"/>
      <point x="410" y="622" type="line"/>
      <point x="353" y="622" type="line"/>
      <point x="318" y="680" type="line"/>
    </contour>
  </outline>
</glyph>
<glyph name="Atilde" format="1">
  <advance width="635"/>
  <unicode hex="00C3"/>
  <outline>
    <contour>
      <point x="492" y="547" type="line" smooth="yes"/>
      <point x="547" y="547"/>
      <point x="591" y="503"/>
      <point x="591" y="448" type="curve" smooth="yes"/>
      <point x="591" y="0" type="line"/>
      <point x="509" y="0" type="line"/>
      <point x="509" y="192" type="line"/>
      <point x="126" y="192" type="line"/>
      <point x="126" y="0" type="line"/>
      <point x="44" y="0" type="line"/>
      <point x="44" y="448" type="line" smooth="yes"/>
      <point x="44" y="503"/>
      <point x="88" y="547"/>
      <point x="143" y="547" type="curve" smooth="yes"/>
    </contour>
    <contour>
      <point x="126" y="274" type="line"/>
      <point x="509" y="274" type="line"/>
      <point x="509" y="448" type="line" smooth="yes"/>
      <point x="509" y="458"/>
      <point x="502" y="465"/>
      <point x="492" y="465" type="curve" smooth="yes"/>
      <point x="143" y="465" type="line" smooth="yes"/>
      <point x="134" y="465"/>
      <point x="126" y="458"/>
      <point x="126" y="448" type="curve" smooth="yes"/>
    </contour>
    <contour>
      <point x="412" y="676"/>
      <point x="432" y="683"/>
      <point x="451" y="696" type="curve"/>
      <point x="451" y="640" type="line"/>
      <point x="430" y="631"/>
      <point x="410" y="626"/>
      <point x="392" y="626" type="curve" smooth="yes"/>
      <point x="375" y="626"/>
      <point x="350" y="635"/>
      <point x="318" y="652" type="curve" smooth="yes"/>
      <point x="286" y="670"/>
      <point x="260" y="678"/>
      <point x="240" y="678" type="curve" smooth="yes"/>
      <point x="210" y="678"/>
      <point x="191" y="672"/>
      <point x="184" y="660" type="curve"/>
      <point x="184" y="717" type="line"/>
      <point x="201" y="724"/>
      <point x="220" y="728"/>
      <point x="240" y="728" type="curve" smooth="yes"/>
      <point x="260" y="728"/>
      <point x="286" y="720"/>
      <point x="318" y="704" type="curve" smooth="yes"/>
      <point x="350" y="688"/>
      <point x="375" y="679"/>
      <point x="392" y="676" type="curve"/>
    </contour>
  </outline>
</glyph>
<glyph name="Aring" format="1">
  <advance width="635"/>
  <unicode hex="00C5"/>
  <outline>
    <contour>
      <point x="492" y="547" type="line" smooth="yes"/>
      <point x="547" y="547"/>
      <point x="591" y="503"/>
      <point x="591" y="448" type="curve" smooth="yes"/>
      <point x="591" y="0" type="line"/>
      <point x="509" y="0" type="line"/>
      <point x="509" y="192" type="line"/>
      <point x="126" y="192" type="line"/>
      <point x="126" y="0" type="line"/>
      <point x="44" y="0" type="line"/>
      <point x="44" y="448" type="line" smooth="yes"/>
      <point x="44" y="503"/>
      <point x="88" y="547"/>
      <point x="143" y="547" type="curve" smooth="yes"/>
    </contour>
    <contour>
      <point x="126" y="274" type="line"/>
      <point x="509" y="274" type="line"/>
      <point x="509" y="448" type="line" smooth="yes"/>
      <point x="509" y="458"/>
      <point x="502" y="465"/>
      <point x="492" y="465" type="curve" smooth="yes"/>
      <point x="143" y="465" type="line" smooth="yes"/>
      <point x="134" y="465"/>
      <point x="126" y="458"/>
      <point x="126" y="448" type="curve" smooth="yes"/>
    </contour>
    <contour>
      <point x="339" y="746" type="line" smooth="yes"/>
      <point x="361" y="746"/>
      <point x="380" y="727"/>
      <point x="380" y="705" type="curve" smooth="yes"/>
      <point x="380" y="664" type="line" smooth="yes"/>
      <point x="380" y="642"/>
      <point x="361" y="624"/>
      <point x="339" y="624" type="curve" smooth="yes"/>
      <point x="296" y="624" type="line" smooth="yes"/>
      <point x="274" y="624"/>
      <point x="255" y="642"/>
      <point x="255" y="664" type="curve" smooth="yes"/>
      <point x="255" y="705" type="line" smooth="yes"/>
      <point x="255" y="727"/>
      <point x="274" y="746"/>
      <point x="296" y="746" type="curve" smooth="yes"/>
    </contour>
    <contour>
      <point x="343" y="654" type="line" smooth="yes"/>
      <point x="347" y="654"/>
      <point x="350" y="657"/>
      <point x="350" y="662" type="curve" smooth="yes"/>
      <point x="350" y="708" type="line" smooth="yes"/>
      <point x="350" y="713"/>
      <point x="347" y="715"/>
      <point x="343" y="715" type="curve" smooth="yes"/>
      <point x="293" y="715" type="line" smooth="yes"/>
      <point x="288" y="715"/>
      <point x="286" y="713"/>
      <point x="286" y="708" type="curve" smooth="yes"/>
      <point x="286" y="662" type="line" smooth="yes"/>
      <point x="286" y="657"/>
      <point x="288" y="654"/>
      <point x="293" y="654" type="curve" smooth="yes"/>
    </contour>
  </outline>
</glyph>
<glyph name="AE" format="1">
  <advance width="1045"/>
  <unicode hex="00C6"/>
  <outline>
    <contour>
      <point x="588" y="465" type="line"/>
      <point x="588" y="315" type="line"/>
      <point x="926" y="315" type="line"/>
      <point x="926" y="233" type="line"/>
      <point x="588" y="233" type="line"/>
      <point x="588" y="82" type="line"/>
      <point x="1008" y="82" type="line"/>
      <point x="1008" y="0" type="line"/>
      <point x="506" y="0" type="line"/>
      <point x="506" y="192" type="line"/>
      <point x="123" y="192" type="line"/>
      <point x="123" y="0" type="line"/>
      <point x="41" y="0" type="line"/>
      <point x="41" y="448" type="line" smooth="yes"/>
      <point x="41" y="503"/>
      <point x="85" y="547"/>
      <point x="140" y="547" type="curve" smooth="yes"/>
      <point x="1008" y="547" type="line"/>
      <point x="1008" y="465" type="line"/>
    </contour>
    <contour>
      <point x="506" y="274" type="line"/>
      <point x="506" y="448" type="line" smooth="yes"/>
      <point x="506" y="458"/>
      <point x="499" y="465"/>
      <point x="489" y="465" type="curve" smooth="yes"/>
      <point x="140" y="465" type="line" smooth="yes"/>
      <point x="131" y="465"/>
      <point x="123" y="458"/>
      <point x="123" y="448" type="curve" smooth="yes"/>
      <point x="123" y="274" type="line"/>
    </contour>
  </outline>
</glyph>
<glyph name="Ccedilla" format="1">
  <advance width="625"/>
  <unicode hex="00C7"/>
  <outline>
    <contour>
      <point x="588" y="465" type="line"/>
      <point x="141" y="465" type="line" smooth="yes"/>
      <point x="132" y="465"/>
      <point x="125" y="458"/>
      <point x="125" y="448" type="curve" smooth="yes"/>
      <point x="125" y="99" type="line" smooth="yes"/>
      <point x="125" y="90"/>
      <point x="132" y="82"/>
      <point x="141" y="82" type="curve" smooth="yes"/>
      <point x="588" y="82" type="line"/>
      <point x="588" y="0" type="line"/>
      <point x="369" y="0" type="line"/>
      <point x="338" y="-123" type="line"/>
      <point x="256" y="-123" type="line"/>
      <point x="287" y="0" type="line"/>
      <point x="141" y="0" type="line" smooth="yes"/>
      <point x="87" y="0"/>
      <point x="43" y="44"/>
      <point x="43" y="99" type="curve" smooth="yes"/>
      <point x="43" y="448" type="line" smooth="yes"/>
      <point x="43" y="503"/>
      <point x="87" y="547"/>
      <point x="141" y="547" type="curve" smooth="yes"/>
      <point x="588" y="547" type="line"/>
    </contour>
  </outline>
</glyph>
<glyph name="Egrave" format="1">
  <advance width="582"/>
  <unicode hex="00C8"/>
  <outline>
    <contour>
      <point x="546" y="547" type="line"/>
      <point x="546" y="465" type="line"/>
      <point x="126" y="465" type="line"/>
      <point x="126" y="315" type="line"/>
      <point x="464" y="315" type="line"/>
      <point x="464" y="233" type="line"/>
      <point x="126" y="233" type="line"/>
      <point x="126" y="82" type="line"/>
      <point x="546" y="82" type="line"/>
      <point x="546" y="0" type="line"/>
      <point x="44" y="0" type="line"/>
      <point x="44" y="547" type="line"/>
    </contour>
    <contour>
      <point x="317" y="746" type="line"/>
      <point x="347" y="623" type="line"/>
      <point x="265" y="623" type="line"/>
      <point x="235" y="746" type="line"/>
    </contour>
  </outline>
</glyph>
<glyph name="Ecircumflex" format="1">
  <advance width="582"/>
  <unicode hex="00CA"/>
  <outline>
    <contour>
      <point x="546" y="547" type="line"/>
      <point x="546" y="465" type="line"/>
      <point x="126" y="465" type="line"/>
      <point x="126" y="315" type="line"/>
      <point x="464" y="315" type="line"/>
      <point x="464" y="233" type="line"/>
      <point x="126" y="233" type="line"/>
      <point x="126" y="82" type="line"/>
      <point x="546" y="82" type="line"/>
      <point x="546" y="0" type="line"/>
      <point x="44" y="0" type="line"/>
      <point x="44" y="547" type="line"/>
    </contour>
    <contour>
      <point x="255" y="622" type="line"/>
      <point x="198" y="622" type="line"/>
      <point x="263" y="730" type="line"/>
      <point x="319" y="730" type="line"/>
      <point x="384" y="622" type="line"/>
      <point x="327" y="622" type="line"/>
      <point x="291" y="680" type="line"/>
    </contour>
  </outline>
</glyph>
<glyph name="Edieresis" format="1">
  <advance width="582"/>
  <unicode hex="00CB"/>
  <outline>
    <contour>
      <point x="546" y="547" type="line"/>
      <point x="546" y="465" type="line"/>
      <point x="126" y="465" type="line"/>
      <point x="126" y="315" type="line"/>
      <point x="464" y="315" type="line"/>
      <point x="464" y="233" type="line"/>
      <point x="126" y="233" type="line"/>
      <point x="126" y="82" type="line"/>
      <point x="546" y="82" type="line"/>
      <point x="546" y="0" type="line"/>
      <point x="44" y="0" type="line"/>
      <point x="44" y="547" type="line"/>
    </contour>
    <contour>
      <point x="397" y="705" type="line"/>
      <point x="397" y="623" type="line"/>
      <point x="315" y="623" type="line"/>
      <point x="315" y="705" type="line"/>
    </contour>
    <contour>
      <point x="268" y="705" type="line"/>
      <point x="268" y="623" type="line"/>
      <point x="185" y="623" type="line"/>
      <point x="185" y="705" type="line"/>
    </contour>
  </outline>
</glyph>
<glyph name="Igrave" format="1">
  <advance width="167"/>
  <unicode hex="00CC"/>
  <outline>
    <contour>
      <point x="43" y="0" type="line"/>
      <point x="43" y="547" type="line"/>
      <point x="125" y="547" type="line"/>
      <point x="125" y="0" type="line"/>
    </contour>
    <contour>
      <point x="109" y="746" type="line"/>
      <point x="140" y="623" type="line"/>
      <point x="58" y="623" type="line"/>
      <point x="27" y="746" type="line"/>
    </contour>
  </outline>
</glyph>
<glyph name="Iacute" format="1">
  <advance width="167"/>
  <unicode hex="00CD"/>
  <outline>
    <contour>
      <point x="43" y="0" type="line"/>
      <point x="43" y="547" type="line"/>
      <point x="125" y="547" type="line"/>
      <point x="125" y="0" type="line"/>
    </contour>
    <contour>
      <point x="27" y="623" type="line"/>
      <point x="58" y="746" type="line"/>
      <point x="140" y="746" type="line"/>
      <point x="109" y="623" type="line"/>
    </contour>
  </outline>
</glyph>
<glyph name="Icircumflex" format="1">
  <advance width="167"/>
  <unicode hex="00CE"/>
  <outline>
    <contour>
      <point x="43" y="0" type="line"/>
      <point x="43" y="547" type="line"/>
      <point x="125" y="547" type="line"/>
      <point x="125" y="0" type="line"/>
    </contour>
    <contour>
      <point x="47" y="622" type="line"/>
      <point x="-9" y="622" type="line"/>
      <point x="55" y="730" type="line"/>
      <point x="112" y="730" type="line"/>
      <point x="176" y="622" type="line"/>
      <point x="119" y="622" type="line"/>
      <point x="84" y="680" type="line"/>
    </contour>
  </outline>
</glyph>
<glyph name="Idieresis" format="1">
  <advance width="167"/>
  <unicode hex="00CF"/>
  <outline>
    <contour>
      <point x="43" y="0" type="line"/>
      <point x="43" y="547" type="line"/>
      <point x="125" y="547" type="line"/>
      <point x="125" y="0" type="line"/>
    </contour>
    <contour>
      <point x="189" y="705" type="line"/>
      <point x="189" y="623" type="line"/>
      <point x="107" y="623" type="line"/>
      <point x="107" y="705" type="line"/>
    </contour>
    <contour>
      <point x="60" y="705" type="line"/>
      <point x="60" y="623" type="line"/>
      <point x="-22" y="623" type="line"/>
      <point x="-22" y="705" type="line"/>
    </contour>
  </outline>
</glyph>
<glyph name="Ntilde" format="1">
  <advance width="632"/>
  <unicode hex="00D1"/>
  <outline>
    <contour>
      <point x="508" y="109" type="line"/>
      <point x="508" y="547" type="line"/>
      <point x="590" y="547" type="line"/>
      <point x="590" y="0" type="line"/>
      <point x="492" y="0" type="line"/>
      <point x="125" y="438" type="line"/>
      <point x="125" y="0" type="line"/>
      <point x="43" y="0" type="line"/>
      <point x="43" y="547" type="line"/>
      <point x="140" y="547" type="line"/>
    </contour>
    <contour>
      <point x="410" y="676"/>
      <point x="430" y="683"/>
      <point x="450" y="696" type="curve"/>
      <point x="450" y="640" type="line"/>
      <point x="429" y="631"/>
      <point x="409" y="626"/>
      <point x="391" y="626" type="curve" smooth="yes"/>
      <point x="373" y="626"/>
      <point x="348" y="635"/>
      <point x="316" y="652" type="curve" smooth="yes"/>
      <point x="284" y="670"/>
      <point x="258" y="678"/>
      <point x="239" y="678" type="curve" smooth="yes"/>
      <point x="208" y="678"/>
      <point x="189" y="672"/>
      <point x="182" y="660" type="curve"/>
      <point x="182" y="717" type="line"/>
      <point x="199" y="724"/>
      <point x="218" y="728"/>
      <point x="239" y="728" type="curve" smooth="yes"/>
      <point x="258" y="728"/>
      <point x="284" y="720"/>
      <point x="317" y="704" type="curve" smooth="yes"/>
      <point x="349" y="688"/>
      <point x="373" y="679"/>
      <point x="391" y="676" type="curve"/>
    </contour>
  </outline>
</glyph>
<glyph name="Otilde" format="1">
  <advance width="629"/>
  <unicode hex="00D5"/>
  <outline>
    <contour>
      <point x="489" y="547" type="line" smooth="yes"/>
      <point x="544" y="547"/>
      <point x="588" y="503"/>
      <point x="588" y="448" type="curve" smooth="yes"/>
      <point x="588" y="99" type="line" smooth="yes"/>
      <point x="588" y="44"/>
      <point x="544" y="0"/>
      <point x="489" y="0" type="curve" smooth="yes"/>
      <point x="140" y="0" type="line" smooth="yes"/>
      <point x="85" y="0"/>
      <point x="41" y="44"/>
      <point x="41" y="99" type="curve" smooth="yes"/>
      <point x="41" y="448" type="line" smooth="yes"/>
      <point x="41" y="503"/>
      <point x="85" y="547"/>
      <point x="140" y="547" type="curve" smooth="yes"/>
    </contour>
    <contour>
      <point x="489" y="82" type="line" smooth="yes"/>
      <point x="499" y="82"/>
      <point x="506" y="90"/>
      <point x="506" y="99" type="curve" smooth="yes"/>
      <point x="506" y="448" type="line" smooth="yes"/>
      <point x="506" y="458"/>
      <point x="499" y="465"/>
      <point x="489" y="465" type="curve" smooth="yes"/>
      <point x="140" y="465" type="line" smooth="yes"/>
      <point x="131" y="465"/>
      <point x="123" y="458"/>
      <point x="123" y="448" type="curve" smooth="yes"/>
      <point x="123" y="99" type="line" smooth="yes"/>
      <point x="123" y="90"/>
      <point x="131" y="82"/>
      <point x="140" y="82" type="curve" smooth="yes"/>
    </contour>
    <contour>
      <point x="409" y="676"/>
      <point x="429" y="683"/>
      <point x="448" y="696" type="curve"/>
      <point x="448" y="640" type="line"/>
      <point x="427" y="631"/>
      <point x="407" y="626"/>
      <point x="389" y="626" type="curve" smooth="yes"/>
      <point x="372" y="626"/>
      <point x="347" y="635"/>
      <point x="315" y="652" type="curve" smooth="yes"/>
      <point x="283" y="670"/>
      <point x="257" y="678"/>
      <point x="237" y="678" type="curve" smooth="yes"/>
      <point x="207" y="678"/>
      <point x="188" y="672"/>
      <point x="181" y="660" type="curve"/>
      <point x="181" y="717" type="line"/>
      <point x="198" y="724"/>
      <point x="217" y="728"/>
      <point x="237" y="728" type="curve" smooth="yes"/>
      <point x="257" y="728"/>
      <point x="283" y="720"/>
      <point x="315" y="704" type="curve" smooth="yes"/>
      <point x="347" y="688"/>
      <point x="372" y="679"/>
      <point x="389" y="676" type="curve"/>
    </contour>
  </outline>
</glyph>
<glyph name="multiply" format="1">
  <advance width="415"/>
  <unicode hex="00D7"/>
  <outline>
    <contour>
      <point x="375" y="388" type="line"/>
      <point x="375" y="376" type="line"/>
      <point x="261" y="228" type="line"/>
      <point x="375" y="80" type="line"/>
      <point x="375" y="68" type="line"/>
      <point x="277" y="68" type="line"/>
      <point x="207" y="164" type="line"/>
      <point x="138" y="68" type="line"/>
      <point x="40" y="68" type="line"/>
      <point x="40" y="80" type="line"/>
      <point x="154" y="228" type="line"/>
      <point x="40" y="376" type="line"/>
      <point x="40" y="388" type="line"/>
      <point x="138" y="388" type="line"/>
      <point x="207" y="292" type="line"/>
      <point x="277" y="388" type="line"/>
    </contour>
  </outline>
</glyph>
<glyph name="Ugrave" format="1">
  <advance width="629"/>
  <unicode hex="00D9"/>
  <outline>
    <contour>
      <point x="506" y="547" type="line"/>
      <point x="588" y="547" type="line"/>
      <point x="588" y="99" type="line" smooth="yes"/>
      <point x="588" y="44"/>
      <point x="544" y="0"/>
      <point x="489" y="0" type="curve" smooth="yes"/>
      <point x="140" y="0" type="line" smooth="yes"/>
      <point x="85" y="0"/>
      <point x="41" y="44"/>
      <point x="41" y="99" type="curve" smooth="yes"/>
      <point x="41" y="547" type="line"/>
      <point x="123" y="547" type="line"/>
      <point x="123" y="99" type="line" smooth="yes"/>
      <point x="123" y="90"/>
      <point x="131" y="82"/>
      <point x="140" y="82" type="curve" smooth="yes"/>
      <point x="489" y="82" type="line" smooth="yes"/>
      <point x="499" y="82"/>
      <point x="506" y="90"/>
      <point x="506" y="99" type="curve" smooth="yes"/>
    </contour>
    <contour>
      <point x="340" y="746" type="line"/>
      <point x="371" y="623" type="line"/>
      <point x="289" y="623" type="line"/>
      <point x="258" y="746" type="line"/>
    </contour>
  </outline>
</glyph>
<glyph name="Ucircumflex" format="1">
  <advance width="629"/>
  <unicode hex="00DB"/>
  <outline>
    <contour>
      <point x="506" y="547" type="line"/>
      <point x="588" y="547" type="line"/>
      <point x="588" y="99" type="line" smooth="yes"/>
      <point x="588" y="44"/>
      <point x="544" y="0"/>
      <point x="489" y="0" type="curve" smooth="yes"/>
      <point x="140" y="0" type="line" smooth="yes"/>
      <point x="85" y="0"/>
      <point x="41" y="44"/>
      <point x="41" y="99" type="curve" smooth="yes"/>
      <point x="41" y="547" type="line"/>
      <point x="123" y="547" type="line"/>
      <point x="123" y="99" type="line" smooth="yes"/>
      <point x="123" y="90"/>
      <point x="131" y="82"/>
      <point x="140" y="82" type="curve" smooth="yes"/>
      <point x="489" y="82" type="line" smooth="yes"/>
      <point x="499" y="82"/>
      <point x="506" y="90"/>
      <point x="506" y="99" type="curve" smooth="yes"/>
    </contour>
    <contour>
      <point x="278" y="622" type="line"/>
      <point x="222" y="622" type="line"/>
      <point x="287" y="730" type="line"/>
      <point x="343" y="730" type="line"/>
      <point x="407" y="622" type="line"/>
      <point x="350" y="622" type="line"/>
      <point x="315" y="680" type="line"/>
    </contour>
  </outline>
</glyph>
<glyph name="Yacute" format="1">
  <advance width="613"/>
  <unicode hex="00DD"/>
  <outline>
    <contour>
      <point x="502" y="547" type="line"/>
      <point x="600" y="547" type="line"/>
      <point x="347" y="205" type="line"/>
      <point x="347" y="0" type="line"/>
      <point x="265" y="0" type="line"/>
      <point x="265" y="205" type="line"/>
      <point x="13" y="547" type="line"/>
      <point x="109" y="547" type="line"/>
      <point x="306" y="298" type="line"/>
    </contour>
    <contour>
      <point x="250" y="623" type="line"/>
      <point x="280" y="746" type="line"/>
      <point x="363" y="746" type="line"/>
      <point x="332" y="623" type="line"/>
    </contour>
  </outline>
</glyph>
<glyph name="germandbls" format="1">
  <advance width="633"/>
  <unicode hex="00DF"/>
  <outline>
    <contour>
      <point x="591" y="339" type="line" smooth="yes"/>
      <point x="591" y="317"/>
      <point x="584" y="298"/>
      <point x="572" y="281" type="curve"/>
      <point x="584" y="264"/>
      <point x="591" y="245"/>
      <point x="591" y="223" type="curve" smooth="yes"/>
      <point x="591" y="99" type="line" smooth="yes"/>
      <point x="591" y="44"/>
      <point x="546" y="0"/>
      <point x="492" y="0" type="curve" smooth="yes"/>
      <point x="207" y="0" type="line"/>
      <point x="207" y="82" type="line"/>
      <point x="492" y="82" type="line" smooth="yes"/>
      <point x="501" y="82"/>
      <point x="508" y="90"/>
      <point x="508" y="99" type="curve" smooth="yes"/>
      <point x="508" y="223" type="line" smooth="yes"/>
      <point x="508" y="233"/>
      <point x="501" y="240"/>
      <point x="492" y="240" type="curve" smooth="yes"/>
      <point x="207" y="240" type="line"/>
      <point x="207" y="314" type="line"/>
      <point x="492" y="314" type="line" smooth="yes"/>
      <point x="501" y="314"/>
      <point x="508" y="321"/>
      <point x="508" y="331" type="curve" smooth="yes"/>
      <point x="508" y="448" type="line" smooth="yes"/>
      <point x="508" y="457"/>
      <point x="501" y="464"/>
      <point x="492" y="464" type="curve" smooth="yes"/>
      <point x="142" y="464" type="line" smooth="yes"/>
      <point x="133" y="464"/>
      <point x="125" y="457"/>
      <point x="125" y="448" type="curve" smooth="yes"/>
      <point x="125" y="0" type="line"/>
      <point x="43" y="0" type="line"/>
      <point x="43" y="448" type="line" smooth="yes"/>
      <point x="43" y="503"/>
      <point x="87" y="547"/>
      <point x="142" y="547" type="curve" smooth="yes"/>
      <point x="492" y="547" type="line" smooth="yes"/>
      <point x="540" y="547"/>
      <point x="582" y="511"/>
      <point x="591" y="465" type="curve"/>
    </contour>
  </outline>
</glyph>
<glyph name="aacute" format="1">
  <advance width="551"/>
  <unicode hex="00E1"/>
  <outline>
    <contour>
      <point x="389" y="441" type="line" smooth="yes"/>
      <point x="444" y="441"/>
      <point x="488" y="397"/>
      <point x="488" y="342" type="curve" smooth="yes"/>
      <point x="488" y="0" type="line"/>
      <point x="138" y="0" type="line" smooth="yes"/>
      <point x="84" y="0"/>
      <point x="40" y="44"/>
      <point x="40" y="99" type="curve" smooth="yes"/>
      <point x="40" y="261" type="line"/>
      <point x="406" y="261" type="line"/>
      <point x="406" y="342" type="line" smooth="yes"/>
      <point x="406" y="351"/>
      <point x="398" y="359"/>
      <point x="389" y="359" type="curve" smooth="yes"/>
      <point x="40" y="359" type="line"/>
      <point x="40" y="441" type="line"/>
    </contour>
    <contour>
      <point x="406" y="82" type="line"/>
      <point x="406" y="179" type="line"/>
      <point x="122" y="179" type="line"/>
      <point x="122" y="99" type="line" smooth="yes"/>
      <point x="122" y="90"/>
      <point x="129" y="82"/>
      <point x="138" y="82" type="curve" smooth="yes"/>
    </contour>
    <contour>
      <point x="219" y="546" type="line"/>
      <point x="249" y="669" type="line"/>
      <point x="331" y="669" type="line"/>
      <point x="301" y="546" type="line"/>
    </contour>
  </outline>
</glyph>
